<svg width="24" height="25" viewBox="0 0 24 25" fill="none" xmlns="http://www.w3.org/2000/svg">
<g clip-path="url(#clip0_529_5467)">
<path fill-rule="evenodd" clip-rule="evenodd" d="M17.293 8.79296C17.3853 8.69745 17.4956 8.62127 17.6176 8.56886C17.7396 8.51645 17.8708 8.48886 18.0036 8.48771C18.1364 8.48655 18.2681 8.51186 18.391 8.56214C18.5139 8.61242 18.6255 8.68667 18.7194 8.78056C18.8133 8.87446 18.8876 8.98611 18.9378 9.10901C18.9881 9.2319 19.0134 9.36358 19.0123 9.49636C19.0111 9.62914 18.9835 9.76036 18.9311 9.88236C18.8787 10.0044 18.8025 10.1147 18.707 10.207L12.707 16.207C12.5248 16.3892 12.2792 16.4941 12.0215 16.4997C11.7639 16.5053 11.514 16.4111 11.324 16.237L5.32401 10.737C5.12855 10.5577 5.01231 10.3081 5.00087 10.0431C4.99521 9.91188 5.01544 9.78084 5.06042 9.65745C5.1054 9.53407 5.17424 9.42074 5.26301 9.32396C5.35178 9.22718 5.45875 9.14882 5.57781 9.09338C5.69686 9.03793 5.82567 9.00648 5.95688 9.00082C6.22187 8.98938 6.48055 9.08367 6.67601 9.26296L11.97 14.116L17.293 8.79296Z" fill="#CCCDD0" fill-opacity="0.46"/>
</g>
<defs>
<clipPath id="clip0_529_5467">
<rect width="24" height="24" fill="white" transform="translate(0 0.5)"/>
</clipPath>
</defs>
</svg>
