<svg width="19" height="16" viewBox="0 0 19 16" fill="none" xmlns="http://www.w3.org/2000/svg">
<path d="M4.83337 2C4.83337 1.80109 4.91239 1.61032 5.05304 1.46967C5.1937 1.32902 5.38446 1.25 5.58337 1.25H17.5834C17.7823 1.25 17.9731 1.32902 18.1137 1.46967C18.2544 1.61032 18.3334 1.80109 18.3334 2C18.3334 2.19891 18.2544 2.38968 18.1137 2.53033C17.9731 2.67098 17.7823 2.75 17.5834 2.75H5.58337C5.38446 2.75 5.1937 2.67098 5.05304 2.53033C4.91239 2.38968 4.83337 2.19891 4.83337 2ZM17.5834 7.25H5.58337C5.38446 7.25 5.1937 7.32902 5.05304 7.46967C4.91239 7.61032 4.83337 7.80109 4.83337 8C4.83337 8.19891 4.91239 8.38968 5.05304 8.53033C5.1937 8.67098 5.38446 8.75 5.58337 8.75H17.5834C17.7823 8.75 17.9731 8.67098 18.1137 8.53033C18.2544 8.38968 18.3334 8.19891 18.3334 8C18.3334 7.80109 18.2544 7.61032 18.1137 7.46967C17.9731 7.32902 17.7823 7.25 17.5834 7.25ZM17.5834 13.25H5.58337C5.38446 13.25 5.1937 13.329 5.05304 13.4697C4.91239 13.6103 4.83337 13.8011 4.83337 14C4.83337 14.1989 4.91239 14.3897 5.05304 14.5303C5.1937 14.671 5.38446 14.75 5.58337 14.75H17.5834C17.7823 14.75 17.9731 14.671 18.1137 14.5303C18.2544 14.3897 18.3334 14.1989 18.3334 14C18.3334 13.8011 18.2544 13.6103 18.1137 13.4697C17.9731 13.329 17.7823 13.25 17.5834 13.25ZM1.45837 0.875C1.23587 0.875 1.01836 0.94098 0.833358 1.0646C0.648353 1.18821 0.504159 1.36391 0.41901 1.56948C0.333861 1.77505 0.311583 2.00125 0.354991 2.21948C0.398399 2.43771 0.505545 2.63816 0.662879 2.7955C0.820213 2.95283 1.02067 3.05998 1.2389 3.10338C1.45713 3.14679 1.68333 3.12451 1.88889 3.03936C2.09446 2.95422 2.27016 2.81002 2.39378 2.62502C2.51739 2.44001 2.58337 2.2225 2.58337 2C2.58337 1.70163 2.46485 1.41548 2.25387 1.2045C2.04289 0.993526 1.75674 0.875 1.45837 0.875ZM1.45837 6.875C1.23587 6.875 1.01836 6.94098 0.833358 7.0646C0.648353 7.18821 0.504159 7.36391 0.41901 7.56948C0.333861 7.77505 0.311583 8.00125 0.354991 8.21948C0.398399 8.43771 0.505545 8.63816 0.662879 8.79549C0.820213 8.95283 1.02067 9.05998 1.2389 9.10338C1.45713 9.14679 1.68333 9.12451 1.88889 9.03936C2.09446 8.95422 2.27016 8.81002 2.39378 8.62502C2.51739 8.44001 2.58337 8.2225 2.58337 8C2.58337 7.70163 2.46485 7.41548 2.25387 7.2045C2.04289 6.99353 1.75674 6.875 1.45837 6.875ZM1.45837 12.875C1.23587 12.875 1.01836 12.941 0.833358 13.0646C0.648353 13.1882 0.504159 13.3639 0.41901 13.5695C0.333861 13.775 0.311583 14.0012 0.354991 14.2195C0.398399 14.4377 0.505545 14.6382 0.662879 14.7955C0.820213 14.9528 1.02067 15.06 1.2389 15.1034C1.45713 15.1468 1.68333 15.1245 1.88889 15.0394C2.09446 14.9542 2.27016 14.81 2.39378 14.625C2.51739 14.44 2.58337 14.2225 2.58337 14C2.58337 13.7016 2.46485 13.4155 2.25387 13.2045C2.04289 12.9935 1.75674 12.875 1.45837 12.875Z" fill="#D1D4E3"/>
</svg>
