<svg width="20" height="18" viewBox="0 0 20 18" fill="none" xmlns="http://www.w3.org/2000/svg">
<path d="M18.25 0.75H1.75C1.35218 0.75 0.970644 0.908035 0.68934 1.18934C0.408035 1.47064 0.25 1.85218 0.25 2.25V15.75C0.25 16.1478 0.408035 16.5294 0.68934 16.8107C0.970644 17.092 1.35218 17.25 1.75 17.25H18.25C18.6478 17.25 19.0294 17.092 19.3107 16.8107C19.592 16.5294 19.75 16.1478 19.75 15.75V2.25C19.75 1.85218 19.592 1.47064 19.3107 1.18934C19.0294 0.908035 18.6478 0.75 18.25 0.75ZM18.25 2.25V11.8828L15.8059 9.43969C15.6666 9.30036 15.5013 9.18984 15.3193 9.11444C15.1372 9.03904 14.9422 9.00023 14.7452 9.00023C14.5481 9.00023 14.3531 9.03904 14.1711 9.11444C13.989 9.18984 13.8237 9.30036 13.6844 9.43969L11.8094 11.3147L7.68438 7.18969C7.4031 6.9086 7.02172 6.7507 6.62406 6.7507C6.22641 6.7507 5.84503 6.9086 5.56375 7.18969L1.75 11.0034V2.25H18.25ZM1.75 13.125L6.625 8.25L14.125 15.75H1.75V13.125ZM18.25 15.75H16.2466L12.8716 12.375L14.7466 10.5L18.25 14.0044V15.75ZM11.5 6.375C11.5 6.1525 11.566 5.93499 11.6896 5.74998C11.8132 5.56498 11.9889 5.42078 12.1945 5.33564C12.4 5.25049 12.6262 5.22821 12.8445 5.27162C13.0627 5.31502 13.2632 5.42217 13.4205 5.5795C13.5778 5.73684 13.685 5.93729 13.7284 6.15552C13.7718 6.37375 13.7495 6.59995 13.6644 6.80552C13.5792 7.01109 13.435 7.18679 13.25 7.3104C13.065 7.43402 12.8475 7.5 12.625 7.5C12.3266 7.5 12.0405 7.38147 11.8295 7.1705C11.6185 6.95952 11.5 6.67337 11.5 6.375Z" fill="#D1D4E3"/>
</svg>
