<svg width="20" height="15" viewBox="0 0 20 15" fill="none" xmlns="http://www.w3.org/2000/svg">
<path d="M19.3334 7.99999C19.3334 8.1989 19.2544 8.38967 19.1137 8.53032C18.9731 8.67097 18.7823 8.74999 18.5834 8.74999H8.83338C8.63447 8.74999 8.44371 8.67097 8.30305 8.53032C8.1624 8.38967 8.08338 8.1989 8.08338 7.99999C8.08338 7.80108 8.1624 7.61031 8.30305 7.46966C8.44371 7.32901 8.63447 7.24999 8.83338 7.24999H18.5834C18.7823 7.24999 18.9731 7.32901 19.1137 7.46966C19.2544 7.61031 19.3334 7.80108 19.3334 7.99999ZM8.83338 2.74999H18.5834C18.7823 2.74999 18.9731 2.67097 19.1137 2.53032C19.2544 2.38967 19.3334 2.1989 19.3334 1.99999C19.3334 1.80108 19.2544 1.61031 19.1137 1.46966C18.9731 1.32901 18.7823 1.24999 18.5834 1.24999H8.83338C8.63447 1.24999 8.44371 1.32901 8.30305 1.46966C8.1624 1.61031 8.08338 1.80108 8.08338 1.99999C8.08338 2.1989 8.1624 2.38967 8.30305 2.53032C8.44371 2.67097 8.63447 2.74999 8.83338 2.74999ZM18.5834 13.25H2.08338C1.88447 13.25 1.69371 13.329 1.55305 13.4697C1.4124 13.6103 1.33338 13.8011 1.33338 14C1.33338 14.1989 1.4124 14.3897 1.55305 14.5303C1.69371 14.671 1.88447 14.75 2.08338 14.75H18.5834C18.7823 14.75 18.9731 14.671 19.1137 14.5303C19.2544 14.3897 19.3334 14.1989 19.3334 14C19.3334 13.8011 19.2544 13.6103 19.1137 13.4697C18.9731 13.329 18.7823 13.25 18.5834 13.25ZM5.08338 9.49999C5.23181 9.50011 5.37692 9.45618 5.50037 9.37378C5.62382 9.29138 5.72004 9.1742 5.77685 9.03708C5.83367 8.89996 5.84852 8.74907 5.81953 8.60351C5.79054 8.45795 5.71902 8.32426 5.61401 8.21936L2.3937 4.99999L5.61401 1.78061C5.75474 1.63988 5.8338 1.44901 5.8338 1.24999C5.8338 1.05097 5.75474 0.860095 5.61401 0.719365C5.47328 0.578634 5.28241 0.499573 5.08338 0.499573C4.88436 0.499573 4.69349 0.578634 4.55276 0.719365L0.802759 4.46936C0.733027 4.53902 0.677707 4.62174 0.639964 4.71278C0.602221 4.80383 0.582794 4.90143 0.582794 4.99999C0.582794 5.09855 0.602221 5.19615 0.639964 5.28719C0.677707 5.37824 0.733027 5.46096 0.802759 5.53061L4.55276 9.28061C4.62246 9.35024 4.7052 9.40545 4.79625 9.44309C4.88729 9.48073 4.98486 9.50007 5.08338 9.49999Z" fill="#D1D4E3"/>
</svg>
