<svg width="19" height="13" viewBox="0 0 19 13" fill="none" xmlns="http://www.w3.org/2000/svg">
<path d="M0.666626 1C0.666626 0.801088 0.745644 0.610322 0.886296 0.46967C1.02695 0.329018 1.21771 0.25 1.41663 0.25H17.9166C18.1155 0.25 18.3063 0.329018 18.447 0.46967C18.5876 0.610322 18.6666 0.801088 18.6666 1C18.6666 1.19891 18.5876 1.38968 18.447 1.53033C18.3063 1.67098 18.1155 1.75 17.9166 1.75H1.41663C1.21771 1.75 1.02695 1.67098 0.886296 1.53033C0.745644 1.38968 0.666626 1.19891 0.666626 1ZM17.9166 4H5.91663C5.71771 4 5.52695 4.07902 5.3863 4.21967C5.24564 4.36032 5.16663 4.55109 5.16663 4.75C5.16663 4.94891 5.24564 5.13968 5.3863 5.28033C5.52695 5.42098 5.71771 5.5 5.91663 5.5H17.9166C18.1155 5.5 18.3063 5.42098 18.447 5.28033C18.5876 5.13968 18.6666 4.94891 18.6666 4.75C18.6666 4.55109 18.5876 4.36032 18.447 4.21967C18.3063 4.07902 18.1155 4 17.9166 4ZM17.9166 7.75H1.41663C1.21771 7.75 1.02695 7.82902 0.886296 7.96967C0.745644 8.11032 0.666626 8.30109 0.666626 8.5C0.666626 8.69891 0.745644 8.88968 0.886296 9.03033C1.02695 9.17098 1.21771 9.25 1.41663 9.25H17.9166C18.1155 9.25 18.3063 9.17098 18.447 9.03033C18.5876 8.88968 18.6666 8.69891 18.6666 8.5C18.6666 8.30109 18.5876 8.11032 18.447 7.96967C18.3063 7.82902 18.1155 7.75 17.9166 7.75ZM17.9166 11.5H5.91663C5.71771 11.5 5.52695 11.579 5.3863 11.7197C5.24564 11.8603 5.16663 12.0511 5.16663 12.25C5.16663 12.4489 5.24564 12.6397 5.3863 12.7803C5.52695 12.921 5.71771 13 5.91663 13H17.9166C18.1155 13 18.3063 12.921 18.447 12.7803C18.5876 12.6397 18.6666 12.4489 18.6666 12.25C18.6666 12.0511 18.5876 11.8603 18.447 11.7197C18.3063 11.579 18.1155 11.5 17.9166 11.5Z" fill="#D1D4E3"/>
</svg>
