<svg width="19" height="15" viewBox="0 0 19 15" fill="none" xmlns="http://www.w3.org/2000/svg">
<path d="M18.3334 7.99999C18.3334 8.1989 18.2544 8.38967 18.1137 8.53032C17.9731 8.67097 17.7823 8.74999 17.5834 8.74999H7.83338C7.63447 8.74999 7.44371 8.67097 7.30305 8.53032C7.1624 8.38967 7.08338 8.1989 7.08338 7.99999C7.08338 7.80108 7.1624 7.61031 7.30305 7.46966C7.44371 7.32901 7.63447 7.24999 7.83338 7.24999H17.5834C17.7823 7.24999 17.9731 7.32901 18.1137 7.46966C18.2544 7.61031 18.3334 7.80108 18.3334 7.99999ZM7.83338 2.74999H17.5834C17.7823 2.74999 17.9731 2.67097 18.1137 2.53032C18.2544 2.38967 18.3334 2.1989 18.3334 1.99999C18.3334 1.80108 18.2544 1.61031 18.1137 1.46966C17.9731 1.32901 17.7823 1.24999 17.5834 1.24999H7.83338C7.63447 1.24999 7.44371 1.32901 7.30305 1.46966C7.1624 1.61031 7.08338 1.80108 7.08338 1.99999C7.08338 2.1989 7.1624 2.38967 7.30305 2.53032C7.44371 2.67097 7.63447 2.74999 7.83338 2.74999ZM17.5834 13.25H1.08338C0.884472 13.25 0.693706 13.329 0.553054 13.4697C0.412402 13.6103 0.333384 13.8011 0.333384 14C0.333384 14.1989 0.412402 14.3897 0.553054 14.5303C0.693706 14.671 0.884472 14.75 1.08338 14.75H17.5834C17.7823 14.75 17.9731 14.671 18.1137 14.5303C18.2544 14.3897 18.3334 14.1989 18.3334 14C18.3334 13.8011 18.2544 13.6103 18.1137 13.4697C17.9731 13.329 17.7823 13.25 17.5834 13.25ZM0.552759 9.28061C0.622414 9.35035 0.70513 9.40567 0.796179 9.44341C0.887227 9.48115 0.984823 9.50058 1.08338 9.50058C1.18195 9.50058 1.27954 9.48115 1.37059 9.44341C1.46164 9.40567 1.54435 9.35035 1.61401 9.28061L5.36401 5.53061C5.43374 5.46096 5.48906 5.37824 5.5268 5.28719C5.56455 5.19615 5.58397 5.09855 5.58397 4.99999C5.58397 4.90143 5.56455 4.80383 5.5268 4.71278C5.48906 4.62174 5.43374 4.53902 5.36401 4.46936L1.61401 0.719365C1.47328 0.578634 1.28241 0.499573 1.08338 0.499573C0.884361 0.499573 0.69349 0.578634 0.552759 0.719365C0.412029 0.860095 0.332967 1.05097 0.332967 1.24999C0.332967 1.44901 0.412029 1.63988 0.552759 1.78061L3.77307 4.99999L0.552759 8.21936C0.483027 8.28902 0.427708 8.37174 0.389964 8.46278C0.352221 8.55383 0.332794 8.65143 0.332794 8.74999C0.332794 8.84855 0.352221 8.94615 0.389964 9.03719C0.427708 9.12824 0.483027 9.21096 0.552759 9.28061Z" fill="#D1D4E3"/>
</svg>
