<svg width="19" height="18" viewBox="0 0 19 18" fill="none" xmlns="http://www.w3.org/2000/svg">
<path d="M18.3334 8.99999C18.3334 9.1989 18.2544 9.38967 18.1137 9.53032C17.9731 9.67097 17.7823 9.74999 17.5834 9.74999H7.08338C6.88447 9.74999 6.69371 9.67097 6.55305 9.53032C6.4124 9.38967 6.33338 9.1989 6.33338 8.99999C6.33338 8.80108 6.4124 8.61031 6.55305 8.46966C6.69371 8.32901 6.88447 8.24999 7.08338 8.24999H17.5834C17.7823 8.24999 17.9731 8.32901 18.1137 8.46966C18.2544 8.61031 18.3334 8.80108 18.3334 8.99999ZM7.08338 3.74999H17.5834C17.7823 3.74999 17.9731 3.67097 18.1137 3.53032C18.2544 3.38967 18.3334 3.1989 18.3334 2.99999C18.3334 2.80108 18.2544 2.61031 18.1137 2.46966C17.9731 2.32901 17.7823 2.24999 17.5834 2.24999H7.08338C6.88447 2.24999 6.69371 2.32901 6.55305 2.46966C6.4124 2.61031 6.33338 2.80108 6.33338 2.99999C6.33338 3.1989 6.4124 3.38967 6.55305 3.53032C6.69371 3.67097 6.88447 3.74999 7.08338 3.74999ZM17.5834 14.25H7.08338C6.88447 14.25 6.69371 14.329 6.55305 14.4697C6.4124 14.6103 6.33338 14.8011 6.33338 15C6.33338 15.1989 6.4124 15.3897 6.55305 15.5303C6.69371 15.671 6.88447 15.75 7.08338 15.75H17.5834C17.7823 15.75 17.9731 15.671 18.1137 15.5303C18.2544 15.3897 18.3334 15.1989 18.3334 15C18.3334 14.8011 18.2544 14.6103 18.1137 14.4697C17.9731 14.329 17.7823 14.25 17.5834 14.25ZM1.41901 2.17124L1.83339 1.96311V6.74999C1.83339 6.9489 1.9124 7.13967 2.05306 7.28032C2.19371 7.42097 2.38447 7.49999 2.58339 7.49999C2.7823 7.49999 2.97306 7.42097 3.11372 7.28032C3.25437 7.13967 3.33339 6.9489 3.33339 6.74999V0.749988C3.33348 0.62208 3.30085 0.496273 3.23862 0.384527C3.17638 0.272781 3.0866 0.178807 2.97781 0.111541C2.86902 0.0442737 2.74483 0.00594816 2.61705 0.000206741C2.48927 -0.00553467 2.36215 0.0214989 2.24776 0.0787379L0.74776 0.828738C0.569733 0.917751 0.434359 1.07384 0.371417 1.26267C0.340252 1.35616 0.327806 1.45488 0.334793 1.55319C0.341779 1.6515 0.36806 1.74746 0.412135 1.83561C0.45621 1.92376 0.517216 2.00237 0.591669 2.06694C0.666122 2.13151 0.752566 2.18079 0.846063 2.21196C1.03489 2.2749 1.24098 2.26025 1.41901 2.17124ZM4.81182 11.6925C4.77035 11.3954 4.66924 11.1099 4.51458 10.8529C4.35991 10.5959 4.15489 10.3729 3.91182 10.1972C3.42499 9.84366 2.8203 9.69212 2.22428 9.77424C1.62827 9.85637 1.0871 10.1658 0.71401 10.6378C0.571414 10.8209 0.458474 11.0253 0.379323 11.2434C0.337991 11.3373 0.316363 11.4387 0.315778 11.5413C0.315192 11.6439 0.33566 11.7455 0.375917 11.8399C0.416174 11.9342 0.475363 12.0193 0.549824 12.0899C0.624284 12.1605 0.712433 12.215 0.808817 12.2502C0.905202 12.2853 1.00777 12.3003 1.11019 12.2943C1.2126 12.2882 1.31268 12.2612 1.40423 12.2149C1.49578 12.1686 1.57686 12.104 1.64245 12.0251C1.70805 11.9462 1.75676 11.8547 1.78557 11.7562C1.81182 11.6843 1.84915 11.6169 1.8962 11.5566C2.0285 11.3917 2.21927 11.2842 2.42881 11.2564C2.63835 11.2287 2.85053 11.2828 3.0212 11.4075C3.10329 11.4656 3.17272 11.5397 3.22526 11.6255C3.2778 11.7112 3.31236 11.8067 3.32682 11.9062C3.34005 12.0018 3.33384 12.0991 3.30854 12.1922C3.28325 12.2853 3.2394 12.3724 3.17964 12.4481C3.1769 12.4514 3.1744 12.4548 3.17214 12.4584L0.482448 16.0509C0.399099 16.1624 0.348425 16.2949 0.336097 16.4336C0.323769 16.5722 0.350273 16.7116 0.412644 16.836C0.475015 16.9605 0.570791 17.0651 0.689251 17.1382C0.807711 17.2113 0.944181 17.25 1.08339 17.25H4.08339C4.2823 17.25 4.47306 17.171 4.61372 17.0303C4.75437 16.8897 4.83339 16.6989 4.83339 16.5C4.83339 16.3011 4.75437 16.1103 4.61372 15.9697C4.47306 15.829 4.2823 15.75 4.08339 15.75H2.58339L4.37214 13.3566C4.55349 13.123 4.68589 12.8552 4.76144 12.5693C4.83699 12.2834 4.85412 11.9852 4.81182 11.6925Z" fill="#D1D4E3"/>
</svg>
