<svg width="20" height="20" viewBox="0 0 20 20" fill="none" xmlns="http://www.w3.org/2000/svg">
<path d="M13.5306 6.46939C13.6004 6.53904 13.6557 6.62176 13.6934 6.71281C13.7312 6.80386 13.7506 6.90145 13.7506 7.00001C13.7506 7.09857 13.7312 7.19617 13.6934 7.28722C13.6557 7.37827 13.6004 7.46098 13.5306 7.53064L7.53062 13.5306C7.46094 13.6003 7.37821 13.6556 7.28717 13.6933C7.19612 13.731 7.09854 13.7504 6.99999 13.7504C6.90145 13.7504 6.80387 13.731 6.71282 13.6933C6.62178 13.6556 6.53905 13.6003 6.46937 13.5306C6.39969 13.461 6.34441 13.3782 6.3067 13.2872C6.26899 13.1961 6.24958 13.0986 6.24958 13C6.24958 12.9015 6.26899 12.8039 6.3067 12.7128C6.34441 12.6218 6.39969 12.5391 6.46937 12.4694L12.4694 6.46939C12.539 6.39965 12.6217 6.34434 12.7128 6.30659C12.8038 6.26885 12.9014 6.24942 13 6.24942C13.0986 6.24942 13.1962 6.26885 13.2872 6.30659C13.3782 6.34434 13.461 6.39965 13.5306 6.46939ZM18.2125 1.78751C17.725 1.29995 17.1462 0.913188 16.5092 0.649317C15.8722 0.385447 15.1895 0.249634 14.5 0.249634C13.8105 0.249634 13.1278 0.385447 12.4908 0.649317C11.8538 0.913188 11.275 1.29995 10.7875 1.78751L7.96937 4.6047C7.82864 4.74543 7.74958 4.9363 7.74958 5.13532C7.74958 5.33435 7.82864 5.52522 7.96937 5.66595C8.1101 5.80668 8.30097 5.88574 8.49999 5.88574C8.69902 5.88574 8.88989 5.80668 9.03062 5.66595L11.8487 2.85345C12.5546 2.16312 13.5042 1.779 14.4914 1.78443C15.4787 1.78987 16.424 2.18443 17.1222 2.88249C17.8204 3.58055 18.2151 4.52579 18.2207 5.51306C18.2263 6.50034 17.8424 7.45 17.1522 8.15595L14.3331 10.9741C14.1924 11.1147 14.1133 11.3054 14.1132 11.5044C14.1131 11.7033 14.192 11.8941 14.3327 12.0349C14.4733 12.1756 14.664 12.2547 14.8629 12.2548C15.0619 12.2549 15.2527 12.1759 15.3934 12.0353L18.2125 9.21251C18.7001 8.725 19.0868 8.14622 19.3507 7.50922C19.6146 6.87223 19.7504 6.1895 19.7504 5.50001C19.7504 4.81053 19.6146 4.12779 19.3507 3.4908C19.0868 2.85381 18.7001 2.27503 18.2125 1.78751ZM10.9694 14.3331L8.15124 17.1513C7.80444 17.5058 7.39074 17.7881 6.9341 17.9817C6.47746 18.1753 5.98695 18.2764 5.49097 18.2792C4.99499 18.2819 4.50339 18.1862 4.04465 17.9976C3.5859 17.8091 3.16912 17.5314 2.81843 17.1806C2.46775 16.8299 2.19012 16.4131 2.00164 15.9543C1.81316 15.4955 1.71756 15.0039 1.72038 14.5079C1.7232 14.0119 1.82438 13.5214 2.01806 13.0648C2.21175 12.6082 2.49409 12.1946 2.84874 11.8478L5.66593 9.03064C5.80666 8.88991 5.88572 8.69904 5.88572 8.50001C5.88572 8.30099 5.80666 8.11012 5.66593 7.96939C5.5252 7.82866 5.33433 7.74959 5.13531 7.74959C4.93628 7.74959 4.74541 7.82866 4.60468 7.96939L1.78749 10.7875C0.802877 11.7721 0.249725 13.1076 0.249725 14.5C0.249725 15.8925 0.802877 17.2279 1.78749 18.2125C2.77211 19.1971 4.10754 19.7503 5.49999 19.7503C6.89245 19.7503 8.22788 19.1971 9.21249 18.2125L12.0306 15.3934C12.1712 15.2527 12.2502 15.0619 12.2501 14.863C12.25 14.664 12.1709 14.4733 12.0301 14.3327C11.8894 14.1921 11.6986 14.1131 11.4997 14.1132C11.3007 14.1133 11.11 14.1924 10.9694 14.3331Z" fill="#D1D4E3"/>
</svg>
