<svg width="19" height="19" viewBox="0 0 19 19" fill="none" xmlns="http://www.w3.org/2000/svg">
<path d="M18.25 7.75H7.57094L17.6875 5.07906C17.7833 5.05383 17.8731 5.00988 17.9518 4.94976C18.0304 4.88963 18.0964 4.81452 18.146 4.72876C18.1955 4.64299 18.2275 4.54827 18.2402 4.45006C18.2529 4.35186 18.246 4.2521 18.22 4.15656L17.455 1.34406C17.3497 0.965673 17.0996 0.643996 16.7588 0.448696C16.4181 0.253397 16.0141 0.200198 15.6344 0.300622L1.35719 4.06937C1.16709 4.11872 0.988745 4.20549 0.832597 4.32462C0.676449 4.44374 0.545635 4.59282 0.447812 4.76312C0.349444 4.93134 0.28589 5.11761 0.260927 5.31087C0.235965 5.50413 0.250102 5.70043 0.3025 5.88812L1 8.45875C1 8.47187 1 8.48594 1 8.5V16.75C1 17.1478 1.15804 17.5294 1.43934 17.8107C1.72064 18.092 2.10218 18.25 2.5 18.25H17.5C17.8978 18.25 18.2794 18.092 18.5607 17.8107C18.842 17.5294 19 17.1478 19 16.75V8.5C19 8.30109 18.921 8.11032 18.7803 7.96967C18.6397 7.82902 18.4489 7.75 18.25 7.75ZM16.015 1.75L16.5775 3.81906L14.4569 4.38156L11.8206 2.85906L16.015 1.75ZM9.76281 3.4L12.3991 4.9225L8.93594 5.83656L6.29969 4.31594L9.76281 3.4ZM2.31906 7.58312L1.75656 5.51312L4.24094 4.85687L6.87719 6.38125L2.31906 7.58312ZM17.5 16.75H2.5V9.25H17.5V16.75Z" fill="#D1D4E3"/>
</svg>
