<svg width="19" height="13" viewBox="0 0 19 13" fill="none" xmlns="http://www.w3.org/2000/svg">
<path d="M0.666626 1C0.666626 0.801088 0.745644 0.610322 0.886296 0.46967C1.02695 0.329018 1.21771 0.25 1.41663 0.25H17.9166C18.1155 0.25 18.3063 0.329018 18.447 0.46967C18.5876 0.610322 18.6666 0.801088 18.6666 1C18.6666 1.19891 18.5876 1.38968 18.447 1.53033C18.3063 1.67098 18.1155 1.75 17.9166 1.75H1.41663C1.21771 1.75 1.02695 1.67098 0.886296 1.53033C0.745644 1.38968 0.666626 1.19891 0.666626 1ZM3.66663 4C3.46771 4 3.27695 4.07902 3.1363 4.21967C2.99564 4.36032 2.91663 4.55109 2.91663 4.75C2.91663 4.94891 2.99564 5.13968 3.1363 5.28033C3.27695 5.42098 3.46771 5.5 3.66663 5.5H15.6666C15.8655 5.5 16.0563 5.42098 16.197 5.28033C16.3376 5.13968 16.4166 4.94891 16.4166 4.75C16.4166 4.55109 16.3376 4.36032 16.197 4.21967C16.0563 4.07902 15.8655 4 15.6666 4H3.66663ZM17.9166 7.75H1.41663C1.21771 7.75 1.02695 7.82902 0.886296 7.96967C0.745644 8.11032 0.666626 8.30109 0.666626 8.5C0.666626 8.69891 0.745644 8.88968 0.886296 9.03033C1.02695 9.17098 1.21771 9.25 1.41663 9.25H17.9166C18.1155 9.25 18.3063 9.17098 18.447 9.03033C18.5876 8.88968 18.6666 8.69891 18.6666 8.5C18.6666 8.30109 18.5876 8.11032 18.447 7.96967C18.3063 7.82902 18.1155 7.75 17.9166 7.75ZM15.6666 11.5H3.66663C3.46771 11.5 3.27695 11.579 3.1363 11.7197C2.99564 11.8603 2.91663 12.0511 2.91663 12.25C2.91663 12.4489 2.99564 12.6397 3.1363 12.7803C3.27695 12.921 3.46771 13 3.66663 13H15.6666C15.8655 13 16.0563 12.921 16.197 12.7803C16.3376 12.6397 16.4166 12.4489 16.4166 12.25C16.4166 12.0511 16.3376 11.8603 16.197 11.7197C16.0563 11.579 15.8655 11.5 15.6666 11.5Z" fill="#D1D4E3"/>
</svg>
