<svg width="18" height="20" viewBox="0 0 18 20" fill="none" xmlns="http://www.w3.org/2000/svg">
<path d="M16.6556 9.46936C16.7254 9.53902 16.7807 9.62173 16.8184 9.71278C16.8562 9.80383 16.8756 9.90143 16.8756 9.99999C16.8756 10.0985 16.8562 10.1961 16.8184 10.2872C16.7807 10.3782 16.7254 10.461 16.6556 10.5306L8.96344 18.2181C7.97869 19.2027 6.64315 19.7558 5.2506 19.7557C3.85806 19.7557 2.52258 19.2024 1.53797 18.2176C0.55335 17.2329 0.000247811 15.8974 0.000335704 14.5048C0.000423597 13.1123 0.553694 11.7768 1.53843 10.7922L10.8441 1.34967C11.5471 0.645897 12.5009 0.250223 13.4957 0.249695C14.4904 0.249168 15.4447 0.64383 16.1484 1.34686C16.8522 2.04989 17.2479 3.0037 17.2484 3.99847C17.2489 4.99323 16.8543 5.94746 16.1512 6.65124L6.84375 16.0937C6.42106 16.5164 5.84777 16.7539 5.25 16.7539C4.65223 16.7539 4.07894 16.5164 3.65625 16.0937C3.23356 15.671 2.99609 15.0978 2.99609 14.5C2.99609 13.9022 3.23356 13.3289 3.65625 12.9062L11.4656 4.97311C11.534 4.90013 11.6163 4.84158 11.7077 4.80089C11.7991 4.7602 11.8977 4.73821 11.9977 4.73619C12.0977 4.73418 12.1971 4.75219 12.2901 4.78917C12.383 4.82615 12.4676 4.88134 12.5389 4.95151C12.6102 5.02167 12.6667 5.10539 12.7052 5.19773C12.7436 5.29007 12.7632 5.38917 12.7628 5.4892C12.7624 5.58923 12.7419 5.68816 12.7027 5.78017C12.6635 5.87219 12.6063 5.95542 12.5344 6.02499L4.72406 13.9665C4.65413 14.0359 4.59855 14.1184 4.56049 14.2092C4.52244 14.3001 4.50265 14.3976 4.50226 14.4961C4.50186 14.5946 4.52088 14.6922 4.55821 14.7833C4.59554 14.8745 4.65047 14.9574 4.71984 15.0273C4.78922 15.0973 4.87169 15.1528 4.96254 15.1909C5.05339 15.229 5.15086 15.2487 5.24936 15.2491C5.34786 15.2495 5.44548 15.2305 5.53663 15.1932C5.62778 15.1558 5.71069 15.1009 5.78062 15.0316L15.0872 5.59374C15.5099 5.17192 15.7477 4.59946 15.7483 4.00231C15.7489 3.40515 15.5123 2.83221 15.0905 2.40952C14.6686 1.98683 14.0962 1.74902 13.499 1.7484C12.9019 1.74779 12.3289 1.98442 11.9062 2.40624L2.6025 11.845C2.25396 12.193 1.97738 12.6062 1.78854 13.0611C1.5997 13.5159 1.5023 14.0036 1.50191 14.4961C1.50152 14.9886 1.59814 15.4763 1.78626 15.9315C1.97437 16.3867 2.2503 16.8004 2.59828 17.1489C2.94626 17.4974 3.35949 17.774 3.81436 17.9629C4.26923 18.1517 4.75684 18.2491 5.24936 18.2495C5.74187 18.2499 6.22964 18.1533 6.68481 17.9651C7.13998 17.777 7.55365 17.5011 7.90218 17.1531L15.5953 9.46561C15.7364 9.32556 15.9274 9.24728 16.1262 9.24799C16.3251 9.24869 16.5155 9.32832 16.6556 9.46936Z" fill="#D1D4E3"/>
</svg>
