<svg width="394" height="362" viewBox="0 0 394 362" fill="none" xmlns="http://www.w3.org/2000/svg">
<g filter="url(#filter0_bd_48_9441)">
<path d="M90.1144 19.3185C92.9733 8.64922 103.94 2.31755 114.609 5.17638L297.48 54.1764C308.149 57.0352 314.481 68.002 311.622 78.6713L283.827 182.402C280.969 193.071 270.002 199.403 259.333 196.544L169.459 172.462C168.444 172.19 167.369 172.245 166.386 172.619L95.2075 199.704C90.6643 201.433 86.5755 196.318 89.2626 192.267L108.677 163C110.566 160.152 109.105 156.291 105.804 155.406L76.462 147.544C65.7927 144.685 59.4611 133.718 62.3199 123.049L90.1144 19.3185Z" fill="#919AFF" fill-opacity="0.4" shape-rendering="crispEdges"/>
<path d="M90.1144 19.3185C92.9733 8.64922 103.94 2.31755 114.609 5.17638L297.48 54.1764C308.149 57.0352 314.481 68.002 311.622 78.6713L283.827 182.402C280.969 193.071 270.002 199.403 259.333 196.544L169.459 172.462C168.444 172.19 167.369 172.245 166.386 172.619L95.2075 199.704C90.6643 201.433 86.5755 196.318 89.2626 192.267L108.677 163C110.566 160.152 109.105 156.291 105.804 155.406L76.462 147.544C65.7927 144.685 59.4611 133.718 62.3199 123.049L90.1144 19.3185Z" stroke="white" stroke-opacity="0.2" stroke-width="2" shape-rendering="crispEdges"/>
</g>
<rect x="113.867" y="33.588" width="176.049" height="18.4237" rx="9.21186" transform="rotate(15 113.867 33.588)" fill="url(#paint0_linear_48_9441)"/>
<rect x="104.331" y="69.1801" width="176.049" height="18.4237" rx="9.21186" transform="rotate(15 104.331 69.1801)" fill="url(#paint1_linear_48_9441)"/>
<rect x="94.7935" y="104.772" width="116.684" height="18.4237" rx="9.21186" transform="rotate(15 94.7935 104.772)" fill="url(#paint2_linear_48_9441)"/>
<defs>
<filter id="filter0_bd_48_9441" x="0.633209" y="-16.5103" width="392.675" height="377.564" filterUnits="userSpaceOnUse" color-interpolation-filters="sRGB">
<feFlood flood-opacity="0" result="BackgroundImageFix"/>
<feGaussianBlur in="BackgroundImageFix" stdDeviation="10"/>
<feComposite in2="SourceAlpha" operator="in" result="effect1_backgroundBlur_48_9441"/>
<feColorMatrix in="SourceAlpha" type="matrix" values="0 0 0 0 0 0 0 0 0 0 0 0 0 0 0 0 0 0 127 0" result="hardAlpha"/>
<feOffset dx="10" dy="90"/>
<feGaussianBlur stdDeviation="35"/>
<feComposite in2="hardAlpha" operator="out"/>
<feColorMatrix type="matrix" values="0 0 0 0 0.12549 0 0 0 0 0.12549 0 0 0 0 0.12549 0 0 0 0.2 0"/>
<feBlend mode="normal" in2="effect1_backgroundBlur_48_9441" result="effect2_dropShadow_48_9441"/>
<feBlend mode="normal" in="SourceGraphic" in2="effect2_dropShadow_48_9441" result="shape"/>
</filter>
<linearGradient id="paint0_linear_48_9441" x1="100.561" y1="42.7999" x2="357.982" y2="38.7057" gradientUnits="userSpaceOnUse">
<stop stop-color="white"/>
<stop offset="1" stop-color="white" stop-opacity="0"/>
</linearGradient>
<linearGradient id="paint1_linear_48_9441" x1="91.0245" y1="78.392" x2="348.445" y2="74.2978" gradientUnits="userSpaceOnUse">
<stop stop-color="white"/>
<stop offset="1" stop-color="white" stop-opacity="0"/>
</linearGradient>
<linearGradient id="paint2_linear_48_9441" x1="85.9744" y1="113.984" x2="256.614" y2="112.185" gradientUnits="userSpaceOnUse">
<stop stop-color="white"/>
<stop offset="1" stop-color="white" stop-opacity="0"/>
</linearGradient>
</defs>
</svg>
