<svg width="32" height="32" viewBox="0 0 32 32" fill="none" xmlns="http://www.w3.org/2000/svg">
<path fill-rule="evenodd" clip-rule="evenodd" d="M23.3819 2.26774C23.084 1.79171 22.6451 1.4204 22.1263 1.20552C21.6075 0.990628 21.0346 0.942844 20.4874 1.06882L16.6036 1.96099C16.2056 2.05247 15.792 2.05247 15.394 1.96099L11.5102 1.06882C10.9629 0.942844 10.3901 0.990628 9.87126 1.20552C9.35246 1.4204 8.91357 1.79171 8.61566 2.26774L6.4988 5.6463C6.28279 5.99194 5.99118 6.28357 5.64557 6.50175L2.26722 8.61875C1.79204 8.91641 1.42131 9.35462 1.20648 9.87257C0.991653 10.3905 0.943386 10.9625 1.06838 11.5091L1.96049 15.3975C2.05164 15.7948 2.05164 16.2077 1.96049 16.605L1.06838 20.4913C0.942901 21.0382 0.990925 21.6107 1.20578 22.129C1.42063 22.6474 1.79163 23.086 2.26722 23.3838L5.64557 25.5008C5.99118 25.7168 6.28279 26.0084 6.50096 26.3541L8.61783 29.7326C9.22697 30.7069 10.3891 31.1886 11.5102 30.9316L15.394 30.0394C15.792 29.9479 16.2056 29.9479 16.6036 30.0394L20.4896 30.9316C21.0365 31.057 21.6089 31.009 22.1272 30.7942C22.6456 30.5793 23.0841 30.2083 23.3819 29.7326L25.4988 26.3541C25.7148 26.0084 26.0064 25.7168 26.352 25.5008L29.7325 23.3838C30.2081 23.0856 30.579 22.6465 30.7934 22.1277C31.0079 21.6089 31.0554 21.0361 30.9292 20.4891L30.0392 16.605C29.9478 16.207 29.9478 15.7934 30.0392 15.3953L30.9314 11.5091C31.057 10.9624 31.0093 10.3901 30.7949 9.87174C30.5804 9.35338 30.2099 8.91468 29.7347 8.61659L26.3542 6.49959C26.009 6.28317 25.7173 5.99146 25.5009 5.6463L23.3819 2.26774ZM22.2954 11.1829C22.429 10.9372 22.4621 10.6493 22.3877 10.3797C22.3134 10.1101 22.1373 9.87985 21.8967 9.7374C21.656 9.59496 21.3695 9.55142 21.0974 9.61594C20.8253 9.68047 20.5888 9.84803 20.4377 10.0834L14.7891 19.6445L11.3784 16.3782C11.2772 16.2743 11.1561 16.1919 11.0224 16.1358C10.8887 16.0797 10.745 16.0511 10.6 16.0517C10.4549 16.0524 10.3115 16.0822 10.1783 16.1394C10.045 16.1967 9.92468 16.2802 9.8244 16.385C9.72413 16.4898 9.64598 16.6137 9.59462 16.7493C9.54326 16.885 9.51975 17.0296 9.52548 17.1745C9.53121 17.3194 9.56606 17.4617 9.62796 17.5928C9.68987 17.724 9.77755 17.8414 9.88579 17.9379L14.2794 22.1481C14.397 22.2606 14.5384 22.345 14.6932 22.3951C14.848 22.4452 15.0121 22.4597 15.1733 22.4375C15.3345 22.4152 15.4885 22.3569 15.624 22.2668C15.7595 22.1766 15.8728 22.0571 15.9556 21.917L22.2954 11.1829Z" fill="url(#paint0_linear_266_4023)"/>
<defs>
<linearGradient id="paint0_linear_266_4023" x1="1" y1="10.4068" x2="31.5966" y2="10.5685" gradientUnits="userSpaceOnUse">
<stop stop-color="#9C3FE4"/>
<stop offset="1" stop-color="#C65647"/>
</linearGradient>
</defs>
</svg>
