<svg width="32" height="32" viewBox="0 0 32 32" fill="none" xmlns="http://www.w3.org/2000/svg">
<path d="M23.0407 11.2353H20.4286V2.70588C20.4286 1.76765 19.6893 1 18.7857 1H12.2143C11.3107 1 10.5714 1.76765 10.5714 2.70588V11.2353H7.95929C6.49714 11.2353 5.75786 13.0776 6.79286 14.1524L14.3336 21.9824C14.9743 22.6476 16.0093 22.6476 16.65 21.9824L24.1907 14.1524C25.2257 13.0776 24.5029 11.2353 23.0407 11.2353ZM4 28.2941C4 29.2324 4.73929 30 5.64286 30H25.3571C26.2607 30 27 29.2324 27 28.2941C27 27.3559 26.2607 26.5882 25.3571 26.5882H5.64286C4.73929 26.5882 4 27.3559 4 28.2941Z" fill="url(#paint0_linear_266_4007)"/>
<defs>
<linearGradient id="paint0_linear_266_4007" x1="4" y1="10.0932" x2="27.4576" y2="10.1915" gradientUnits="userSpaceOnUse">
<stop stop-color="#9C3FE4"/>
<stop offset="1" stop-color="#C65647"/>
</linearGradient>
</defs>
</svg>
