<svg width="32" height="32" viewBox="0 0 32 32" fill="none" xmlns="http://www.w3.org/2000/svg">
<path d="M32 15.984C32 7.16 24.832 0 16 0C7.168 0 0 7.16 0 15.984C0 20.844 2.208 25.224 5.664 28.164C5.696 28.196 5.728 28.196 5.728 28.228C6.016 28.452 6.304 28.676 6.624 28.9C6.784 28.996 6.912 29.122 7.072 29.25C9.71721 31.0405 12.8378 31.9983 16.032 32C19.2262 31.9983 22.3468 31.0405 24.992 29.25C25.152 29.154 25.28 29.028 25.44 28.93C25.728 28.708 26.048 28.484 26.336 28.26C26.368 28.228 26.4 28.228 26.4 28.196C29.792 25.222 32 20.844 32 15.984ZM16 29.986C12.992 29.986 10.24 29.026 7.968 27.428C8 27.172 8.064 26.918 8.128 26.662C8.31931 25.9684 8.59893 25.3023 8.96 24.68C9.312 24.072 9.728 23.528 10.24 23.048C10.72 22.568 11.296 22.122 11.872 21.77C12.48 21.418 13.12 21.162 13.824 20.97C14.5337 20.7799 15.2653 20.6838 16 20.684C18.1815 20.6675 20.283 21.5044 21.856 23.016C22.592 23.752 23.168 24.6153 23.584 25.606C23.808 26.182 23.968 26.7893 24.064 27.428C21.7024 29.0883 18.8869 29.9814 16 29.986ZM11.104 15.186C10.8226 14.5403 10.6809 13.8423 10.688 13.138C10.688 12.436 10.816 11.732 11.104 11.092C11.392 10.452 11.776 9.878 12.256 9.398C12.736 8.918 13.312 8.536 13.952 8.248C14.592 7.96 15.296 7.832 16 7.832C16.736 7.832 17.408 7.96 18.048 8.248C18.688 8.536 19.264 8.92 19.744 9.398C20.224 9.878 20.608 10.454 20.896 11.092C21.184 11.732 21.312 12.436 21.312 13.138C21.312 13.874 21.184 14.546 20.896 15.184C20.6196 15.8154 20.2291 16.3904 19.744 16.88C19.2542 17.3644 18.6793 17.7542 18.048 18.03C16.7254 18.5723 15.2426 18.5723 13.92 18.03C13.2887 17.7542 12.7138 17.3644 12.224 16.88C11.7385 16.3973 11.3573 15.822 11.104 15.186ZM25.952 25.798C25.952 25.734 25.92 25.702 25.92 25.638C25.6058 24.6366 25.1419 23.6885 24.544 22.826C23.9456 21.9571 23.2108 21.1906 22.368 20.556C21.7241 20.0715 21.0261 19.6634 20.288 19.34C20.6222 19.1164 20.9331 18.8598 21.216 18.574C21.6931 18.103 22.1121 17.5766 22.464 17.006C23.1751 15.8427 23.5413 14.5013 23.52 13.138C23.5305 12.129 23.3344 11.1285 22.944 10.198C22.559 9.3013 22.0049 8.48714 21.312 7.8C20.6184 7.1221 19.8045 6.57949 18.912 6.2C17.9801 5.80971 16.9782 5.61436 15.968 5.626C14.9576 5.61499 13.9557 5.81102 13.024 6.202C12.1217 6.57686 11.3051 7.13145 10.624 7.832C9.94256 8.52194 9.39946 9.33591 9.024 10.23C8.63356 11.1605 8.43754 12.161 8.448 13.17C8.448 13.874 8.544 14.5453 8.736 15.184C8.928 15.856 9.184 16.464 9.536 17.038C9.856 17.614 10.304 18.126 10.784 18.606C11.072 18.894 11.392 19.1493 11.744 19.372C11.0026 19.7021 10.3041 20.1211 9.664 20.62C8.832 21.26 8.096 22.026 7.488 22.858C6.88455 23.7173 6.42019 24.6662 6.112 25.67C6.08 25.734 6.08 25.798 6.08 25.83C3.552 23.272 1.984 19.82 1.984 15.984C1.984 8.28 8.288 1.982 16 1.982C23.712 1.982 30.016 8.28 30.016 15.984C30.0118 19.6639 28.5506 23.1925 25.952 25.798Z" fill="url(#paint0_linear_266_4004)"/>
<defs>
<linearGradient id="paint0_linear_266_4004" x1="4.45818e-08" y1="10.0339" x2="32.6364" y2="10.2064" gradientUnits="userSpaceOnUse">
<stop stop-color="#9C3FE4"/>
<stop offset="1" stop-color="#C65647"/>
</linearGradient>
</defs>
</svg>
