<svg width="56" height="51" viewBox="0 0 56 51" fill="none" xmlns="http://www.w3.org/2000/svg">
<g clip-path="url(#clip0_264_2149)">
<path d="M40.7549 13.3927C40.7543 13.207 40.75 13.0222 40.7416 12.8383V2.35532L37.818 5.25344C35.4253 2.35008 31.7853 0.495667 27.7081 0.495667C23.4652 0.495667 19.6958 2.5033 17.313 5.61243L22.105 10.4128C22.5747 9.55179 23.2418 8.81229 24.0462 8.25377C24.8828 7.60658 26.0682 7.07742 27.708 7.07742C27.9061 7.07742 28.059 7.10036 28.1713 7.14359C30.203 7.30256 31.9641 8.41404 33.001 10.0273L29.609 13.3898C33.9054 13.3731 38.7591 13.3633 40.7545 13.392" fill="#1C3AA9"/>
<path d="M27.632 0.496155C27.4446 0.496772 27.2583 0.501058 27.0728 0.509385H16.4978L19.4213 3.40751C16.4925 5.77945 14.6218 9.3878 14.6218 13.4295C14.6218 17.6355 16.6471 21.3721 19.7835 23.7342L24.6259 18.9838C23.7574 18.5183 23.0114 17.857 22.448 17.0595C21.7951 16.2302 21.2613 15.0551 21.2613 13.4296C21.2613 13.2332 21.2845 13.0817 21.3281 12.9703C21.4884 10.9563 22.6097 9.21053 24.2371 8.18261L27.6291 11.5452C27.6122 7.28608 27.6023 2.47464 27.6313 0.496525" fill="#4285F4"/>
<path d="M14.6223 13.4291C14.6229 13.6149 14.6273 13.7997 14.6357 13.9835V24.4665L17.5592 21.5684C19.952 24.4718 23.592 26.3262 27.6691 26.3262C31.912 26.3262 35.6814 24.3186 38.0642 21.2094L33.2722 16.4091C32.8026 17.2701 32.1354 18.0096 31.331 18.5681C30.4944 19.2153 29.309 19.7445 27.6692 19.7445C27.4711 19.7445 27.3182 19.7215 27.2059 19.6783C25.1742 19.5193 23.4131 18.4078 22.3762 16.7946L25.7682 13.432C21.4718 13.4488 16.6182 13.4586 14.6227 13.4299" fill="#ABABAB"/>
<path d="M16.8237 31.3348C16.5059 31.3348 16.221 31.3946 15.9689 31.5141C15.7169 31.6309 15.5032 31.7979 15.3279 32.0152C15.1553 32.2324 15.0224 32.4959 14.9292 32.8054C14.8388 33.1123 14.7936 33.4559 14.7936 33.8361V34.9319C14.7936 35.3148 14.8388 35.6597 14.9292 35.9666C15.0224 36.2735 15.1539 36.5356 15.3238 36.7529C15.4936 36.9701 15.6991 37.1371 15.9402 37.2539C16.1812 37.3707 16.4525 37.4291 16.7538 37.4291C17.0634 37.4291 17.3347 37.3843 17.5675 37.2947C17.8031 37.205 18.0004 37.076 18.1593 36.9077C18.3182 36.7366 18.4401 36.5302 18.525 36.2885C18.6127 36.0468 18.6647 35.7725 18.6812 35.4656H17.9209C17.9017 35.7018 17.8689 35.9042 17.8223 36.0725C17.7757 36.2382 17.7072 36.3754 17.6168 36.484C17.5292 36.5899 17.4141 36.6687 17.2716 36.7203C17.1319 36.7691 16.9593 36.7936 16.7538 36.7936C16.5347 36.7936 16.3484 36.7461 16.1949 36.651C16.0415 36.5532 15.9169 36.4202 15.821 36.2518C15.7278 36.0834 15.6594 35.8865 15.6155 35.6611C15.5744 35.4357 15.5539 35.1926 15.5539 34.9319V33.8279C15.5539 33.5482 15.5785 33.2943 15.6278 33.0661C15.6799 32.838 15.758 32.6438 15.8621 32.4836C15.9662 32.3233 16.0977 32.1998 16.2566 32.1129C16.4155 32.0233 16.6046 31.9784 16.8237 31.9784C17.0073 31.9784 17.1648 32.0056 17.2963 32.0599C17.4278 32.1115 17.5374 32.193 17.625 32.3043C17.7127 32.413 17.7798 32.5515 17.8264 32.7199C17.873 32.8882 17.9045 33.0892 17.9209 33.3228H18.6812C18.6675 33.0023 18.6168 32.7185 18.5291 32.4713C18.4415 32.2242 18.3195 32.0164 18.1634 31.8481C18.0072 31.6797 17.8168 31.552 17.5922 31.4651C17.3703 31.3782 17.1141 31.3348 16.8237 31.3348L16.8237 31.3348ZM35.3821 31.3348C35.0643 31.3348 34.7794 31.3946 34.5273 31.5141C34.2753 31.6309 34.0616 31.7979 33.8863 32.0152C33.7137 32.2324 33.5808 32.4959 33.4876 32.8054C33.3972 33.1123 33.352 33.4559 33.352 33.8361V34.9319C33.352 35.3148 33.3972 35.6597 33.4876 35.9666C33.5808 36.2735 33.7123 36.5356 33.8822 36.7529C34.052 36.9701 34.2575 37.1371 34.4986 37.2539C34.7396 37.3707 35.0109 37.4291 35.3122 37.4291C35.6218 37.4291 35.893 37.3843 36.1259 37.2947C36.3615 37.205 36.5588 37.076 36.7177 36.9077C36.8766 36.7366 36.9985 36.5302 37.0834 36.2885C37.1711 36.0468 37.2231 35.7725 37.2396 35.4656H36.4794C36.4602 35.7018 36.4273 35.9042 36.3807 36.0725C36.3341 36.2382 36.2657 36.3754 36.1753 36.484C36.0876 36.5899 35.9725 36.6687 35.83 36.7203C35.6903 36.7691 35.5177 36.7936 35.3123 36.7936C35.0931 36.7936 34.9068 36.7461 34.7534 36.651C34.6 36.5532 34.4753 36.4202 34.3794 36.2518C34.2863 36.0834 34.2178 35.8865 34.174 35.6611C34.1329 35.4357 34.1123 35.1926 34.1123 34.9319V33.8279C34.1123 33.5482 34.137 33.2943 34.1863 33.0661C34.2383 32.838 34.3164 32.6438 34.4205 32.4836C34.5246 32.3233 34.6561 32.1998 34.815 32.1129C34.9739 32.0233 35.163 31.9784 35.3821 31.9784C35.5657 31.9784 35.7232 32.0056 35.8547 32.0599C35.9862 32.1115 36.0958 32.193 36.1834 32.3043C36.2711 32.413 36.3382 32.5515 36.3848 32.7199C36.4314 32.8882 36.4629 33.0892 36.4793 33.3228H37.2395C37.2258 33.0023 37.1752 32.7185 37.0875 32.4713C36.9998 32.2242 36.8779 32.0164 36.7218 31.8481C36.5656 31.6797 36.3752 31.552 36.1506 31.4651C35.9286 31.3782 35.6725 31.3348 35.3821 31.3348L35.3821 31.3348ZM21.1553 31.4163L19.228 37.3476H20.0006L20.4649 35.7996H22.4868L22.9594 37.3476H23.7319L21.8005 31.4163H21.1553ZM24.5455 31.4163V37.3476H25.2975V35.0256H26.4523C26.7399 35.0256 26.9947 34.9862 27.2166 34.9074C27.4385 34.826 27.6248 34.7092 27.7755 34.5571C27.9289 34.405 28.044 34.2176 28.1207 33.9949C28.2001 33.7695 28.2399 33.5142 28.2399 33.2291C28.2399 32.9656 28.2001 32.7239 28.1207 32.5039C28.044 32.2812 27.9303 32.0898 27.7796 31.9295C27.6289 31.7666 27.4413 31.6403 27.2166 31.5507C26.9947 31.4611 26.7399 31.4162 26.4523 31.4162L24.5455 31.4163ZM28.8152 31.4163V32.06H30.385V37.3476H31.137V32.06H32.7109V31.4163H28.8152ZM38.2546 31.4163V37.3476H39.0066V34.606H41.4147V37.3476H42.1709V31.4163H41.4147V33.9665H39.0066V31.4163H38.2546ZM45.0228 31.4163L43.0955 37.3476H43.8681L44.3324 35.7996H46.3543L46.8269 37.3476H47.5994L45.668 31.4163H45.0228ZM25.2974 32.06H26.4522C26.6358 32.06 26.7919 32.0925 26.9207 32.1577C27.0522 32.2229 27.159 32.3098 27.2412 32.4184C27.3261 32.5271 27.3878 32.6534 27.4261 32.7973C27.4672 32.9385 27.4878 33.0852 27.4878 33.2373C27.4878 33.4056 27.4672 33.5604 27.4261 33.7017C27.3878 33.8402 27.3261 33.961 27.2412 34.0642C27.159 34.1647 27.0522 34.2435 26.9207 34.3005C26.7919 34.3575 26.6357 34.386 26.4522 34.386H25.2974V32.06ZM21.4758 32.4592L22.2935 35.156H20.6621L21.4758 32.4592ZM45.3433 32.4592L46.1611 35.156H44.5296L45.3433 32.4592ZM9.94505 32.8584C9.75601 32.8584 9.59299 32.906 9.45601 33.001C9.32177 33.0961 9.20944 33.2251 9.11905 33.388L9.10672 32.9399H8.3999V37.3476H9.12728V34.1945C9.19577 34.0071 9.29303 33.8591 9.41905 33.7504C9.54781 33.6418 9.71082 33.5875 9.90808 33.5875C9.9711 33.5875 10.0273 33.5903 10.0766 33.5956C10.1259 33.5984 10.1793 33.6051 10.2368 33.616L10.2327 32.9153C10.2218 32.9099 10.204 32.9044 10.1793 32.899C10.1574 32.8908 10.1327 32.884 10.1053 32.8787C10.0779 32.8732 10.0492 32.8691 10.019 32.8664C9.99164 32.861 9.96698 32.8583 9.94507 32.8583L9.94505 32.8584ZM12.3902 32.8584C12.1792 32.8584 11.9751 32.8951 11.7779 32.9684C11.5806 33.0417 11.4053 33.1626 11.2519 33.331C11.1012 33.4966 10.9793 33.7139 10.8861 33.9828C10.793 34.2489 10.7464 34.5762 10.7464 34.9645V35.4615C10.7464 35.7983 10.7861 36.0903 10.8656 36.3374C10.945 36.5845 11.0587 36.7896 11.2067 36.9525C11.3573 37.1128 11.5395 37.2323 11.7532 37.311C11.9669 37.3898 12.2066 37.4292 12.4724 37.4292C12.6642 37.4292 12.8354 37.4101 12.9861 37.3721C13.1395 37.3341 13.2751 37.2852 13.3929 37.2255C13.5107 37.163 13.6121 37.0924 13.697 37.0136C13.7819 36.9349 13.8545 36.8534 13.9148 36.7692L13.5367 36.313C13.4765 36.3863 13.4121 36.4542 13.3436 36.5167C13.2751 36.5764 13.1998 36.6294 13.1176 36.6755C13.0354 36.719 12.945 36.7529 12.8463 36.7774C12.7477 36.8018 12.6368 36.814 12.5135 36.814C12.1765 36.814 11.9176 36.7068 11.7368 36.4922C11.5587 36.2777 11.4697 35.9341 11.4697 35.4615V35.3597H13.9518V34.9401C13.9518 34.6034 13.923 34.306 13.8655 34.048C13.808 33.79 13.7162 33.5727 13.5902 33.3962C13.4641 33.2196 13.3025 33.0866 13.1052 32.9969C12.908 32.9046 12.6696 32.8584 12.3902 32.8584L12.3902 32.8584ZM12.3902 33.4776C12.5491 33.4776 12.6806 33.5061 12.7847 33.5632C12.8888 33.6202 12.971 33.7003 13.0312 33.8035C13.0943 33.9067 13.1395 34.0303 13.1669 34.1742C13.197 34.3155 13.2162 34.4716 13.2244 34.6427V34.7405H11.4738C11.4847 34.4933 11.5149 34.2883 11.5642 34.1253C11.6135 33.9624 11.6779 33.8334 11.7573 33.7383C11.8395 33.6406 11.934 33.5727 12.0409 33.5347C12.1477 33.4966 12.2642 33.4776 12.3902 33.4776L12.3902 33.4776Z" fill="white"/>
</g>
<path d="M2.98047 46.8789H1.5V46.1016H2.98047C3.23828 46.1016 3.44661 46.0599 3.60547 45.9766C3.76432 45.8932 3.88021 45.7786 3.95312 45.6328C4.02865 45.4844 4.06641 45.3151 4.06641 45.125C4.06641 44.9453 4.02865 44.7773 3.95312 44.6211C3.88021 44.4622 3.76432 44.3346 3.60547 44.2383C3.44661 44.1419 3.23828 44.0938 2.98047 44.0938H1.80078V49H0.820312V43.3125H2.98047C3.42057 43.3125 3.79427 43.3906 4.10156 43.5469C4.41146 43.7005 4.64714 43.9141 4.80859 44.1875C4.97005 44.4583 5.05078 44.7682 5.05078 45.1172C5.05078 45.4844 4.97005 45.7995 4.80859 46.0625C4.64714 46.3255 4.41146 46.5273 4.10156 46.668C3.79427 46.8086 3.42057 46.8789 2.98047 46.8789ZM6.78125 45.5781V49H5.83984V44.7734H6.73828L6.78125 45.5781ZM8.07422 44.7461L8.06641 45.6211C8.00911 45.6107 7.94661 45.6029 7.87891 45.5977C7.8138 45.5924 7.7487 45.5898 7.68359 45.5898C7.52214 45.5898 7.38021 45.6133 7.25781 45.6602C7.13542 45.7044 7.03255 45.7695 6.94922 45.8555C6.86849 45.9388 6.80599 46.0404 6.76172 46.1602C6.71745 46.2799 6.69141 46.4141 6.68359 46.5625L6.46875 46.5781C6.46875 46.3125 6.49479 46.0664 6.54688 45.8398C6.59896 45.6133 6.67708 45.4141 6.78125 45.2422C6.88802 45.0703 7.02083 44.9362 7.17969 44.8398C7.34115 44.7435 7.52734 44.6953 7.73828 44.6953C7.79557 44.6953 7.85677 44.7005 7.92188 44.7109C7.98958 44.7214 8.04036 44.7331 8.07422 44.7461ZM9.67188 44.7734V49H8.72656V44.7734H9.67188ZM8.66406 43.6641C8.66406 43.5208 8.71094 43.4023 8.80469 43.3086C8.90104 43.2122 9.03385 43.1641 9.20312 43.1641C9.36979 43.1641 9.5013 43.2122 9.59766 43.3086C9.69401 43.4023 9.74219 43.5208 9.74219 43.6641C9.74219 43.8047 9.69401 43.9219 9.59766 44.0156C9.5013 44.1094 9.36979 44.1562 9.20312 44.1562C9.03385 44.1562 8.90104 44.1094 8.80469 44.0156C8.71094 43.9219 8.66406 43.8047 8.66406 43.6641ZM12.0781 48.2539L13.1133 44.7734H14.0898L12.6211 49H12.0117L12.0781 48.2539ZM11.2852 44.7734L12.3398 48.2695L12.3906 49H11.7812L10.3047 44.7734H11.2852ZM16.9922 48.1523V46.1367C16.9922 45.9857 16.9648 45.8555 16.9102 45.7461C16.8555 45.6367 16.7721 45.5521 16.6602 45.4922C16.5508 45.4323 16.4128 45.4023 16.2461 45.4023C16.0924 45.4023 15.9596 45.4284 15.8477 45.4805C15.7357 45.5326 15.6484 45.6029 15.5859 45.6914C15.5234 45.7799 15.4922 45.8802 15.4922 45.9922H14.5547C14.5547 45.8255 14.5951 45.6641 14.6758 45.5078C14.7565 45.3516 14.8737 45.2122 15.0273 45.0898C15.181 44.9674 15.3646 44.8711 15.5781 44.8008C15.7917 44.7305 16.0312 44.6953 16.2969 44.6953C16.6146 44.6953 16.8958 44.7487 17.1406 44.8555C17.388 44.9622 17.582 45.1237 17.7227 45.3398C17.8659 45.5534 17.9375 45.8216 17.9375 46.1445V48.0234C17.9375 48.2161 17.9505 48.3893 17.9766 48.543C18.0052 48.694 18.0456 48.8255 18.0977 48.9375V49H17.1328C17.0885 48.8984 17.0534 48.7695 17.0273 48.6133C17.0039 48.4544 16.9922 48.3008 16.9922 48.1523ZM17.1289 46.4297L17.1367 47.0117H16.4609C16.2865 47.0117 16.1328 47.0286 16 47.0625C15.8672 47.0938 15.7565 47.1406 15.668 47.2031C15.5794 47.2656 15.513 47.3411 15.4688 47.4297C15.4245 47.5182 15.4023 47.6185 15.4023 47.7305C15.4023 47.8424 15.4284 47.9453 15.4805 48.0391C15.5326 48.1302 15.6081 48.2018 15.707 48.2539C15.8086 48.306 15.931 48.332 16.0742 48.332C16.2669 48.332 16.4349 48.293 16.5781 48.2148C16.724 48.1341 16.8385 48.0365 16.9219 47.9219C17.0052 47.8047 17.0495 47.694 17.0547 47.5898L17.3594 48.0078C17.3281 48.1146 17.2747 48.2292 17.1992 48.3516C17.1237 48.474 17.0247 48.5911 16.9023 48.7031C16.7826 48.8125 16.638 48.9023 16.4688 48.9727C16.3021 49.043 16.1094 49.0781 15.8906 49.0781C15.6146 49.0781 15.3685 49.0234 15.1523 48.9141C14.9362 48.8021 14.7669 48.6523 14.6445 48.4648C14.5221 48.2747 14.4609 48.0599 14.4609 47.8203C14.4609 47.5964 14.5026 47.3984 14.5859 47.2266C14.6719 47.0521 14.7969 46.9062 14.9609 46.7891C15.1276 46.6719 15.3307 46.5833 15.5703 46.5234C15.8099 46.4609 16.0833 46.4297 16.3906 46.4297H17.1289ZM20.6484 48.3281C20.8021 48.3281 20.9401 48.2982 21.0625 48.2383C21.1875 48.1758 21.2878 48.0898 21.3633 47.9805C21.4414 47.8711 21.4844 47.7448 21.4922 47.6016H22.3789C22.3737 47.875 22.293 48.1237 22.1367 48.3477C21.9805 48.5716 21.7734 48.75 21.5156 48.8828C21.2578 49.013 20.9727 49.0781 20.6602 49.0781C20.3372 49.0781 20.056 49.0234 19.8164 48.9141C19.5768 48.8021 19.3776 48.6484 19.2188 48.4531C19.0599 48.2578 18.9401 48.0326 18.8594 47.7773C18.7812 47.5221 18.7422 47.2487 18.7422 46.957V46.8203C18.7422 46.5286 18.7812 46.2552 18.8594 46C18.9401 45.7422 19.0599 45.5156 19.2188 45.3203C19.3776 45.125 19.5768 44.9727 19.8164 44.8633C20.056 44.7513 20.3359 44.6953 20.6562 44.6953C20.9948 44.6953 21.2917 44.763 21.5469 44.8984C21.8021 45.0312 22.0026 45.2174 22.1484 45.457C22.2969 45.694 22.3737 45.9701 22.3789 46.2852H21.4922C21.4844 46.1289 21.4453 45.9883 21.375 45.8633C21.3073 45.7357 21.2109 45.6341 21.0859 45.5586C20.9635 45.4831 20.8164 45.4453 20.6445 45.4453C20.4544 45.4453 20.2969 45.4844 20.1719 45.5625C20.0469 45.638 19.9492 45.7422 19.8789 45.875C19.8086 46.0052 19.7578 46.1523 19.7266 46.3164C19.6979 46.4779 19.6836 46.6458 19.6836 46.8203V46.957C19.6836 47.1315 19.6979 47.3008 19.7266 47.4648C19.7552 47.6289 19.8047 47.776 19.875 47.9062C19.9479 48.0339 20.0469 48.1367 20.1719 48.2148C20.2969 48.2904 20.4557 48.3281 20.6484 48.3281ZM24.3281 48.5391L25.4766 44.7734H26.4844L24.7891 49.6445C24.75 49.7487 24.6992 49.862 24.6367 49.9844C24.5742 50.1068 24.4922 50.2227 24.3906 50.332C24.2917 50.444 24.168 50.5339 24.0195 50.6016C23.8711 50.6719 23.6914 50.707 23.4805 50.707C23.3971 50.707 23.3164 50.6992 23.2383 50.6836C23.1628 50.6706 23.0911 50.6562 23.0234 50.6406L23.0195 49.9219C23.0456 49.9245 23.0768 49.9271 23.1133 49.9297C23.1523 49.9323 23.1836 49.9336 23.207 49.9336C23.3633 49.9336 23.4935 49.9141 23.5977 49.875C23.7018 49.8385 23.7865 49.7786 23.8516 49.6953C23.9193 49.612 23.9766 49.5 24.0234 49.3594L24.3281 48.5391ZM23.6797 44.7734L24.6836 47.9375L24.8516 48.9297L24.1992 49.0977L22.6641 44.7734H23.6797ZM30.9102 46.1953V46.9453H28.8438V46.1953H30.9102ZM35.9727 43.3125V49H35V43.3125H35.9727ZM37.7578 43.3125V44.0938H33.2305V43.3125H37.7578ZM39.9023 49.0781C39.5898 49.0781 39.3073 49.0273 39.0547 48.9258C38.8047 48.8216 38.5911 48.6771 38.4141 48.4922C38.2396 48.3073 38.1055 48.0898 38.0117 47.8398C37.918 47.5898 37.8711 47.3203 37.8711 47.0312V46.875C37.8711 46.5443 37.9193 46.2448 38.0156 45.9766C38.112 45.7083 38.2461 45.4792 38.418 45.2891C38.5898 45.0964 38.793 44.9492 39.0273 44.8477C39.2617 44.7461 39.5156 44.6953 39.7891 44.6953C40.0911 44.6953 40.3555 44.7461 40.582 44.8477C40.8086 44.9492 40.9961 45.0924 41.1445 45.2773C41.2956 45.4596 41.4076 45.6771 41.4805 45.9297C41.556 46.1823 41.5938 46.4609 41.5938 46.7656V47.168H38.3281V46.4922H40.6641V46.418C40.6589 46.2487 40.625 46.0898 40.5625 45.9414C40.5026 45.793 40.4102 45.6732 40.2852 45.582C40.1602 45.4909 39.9935 45.4453 39.7852 45.4453C39.6289 45.4453 39.4896 45.4792 39.3672 45.5469C39.2474 45.612 39.1471 45.707 39.0664 45.832C38.9857 45.957 38.9232 46.1081 38.8789 46.2852C38.8372 46.4596 38.8164 46.6562 38.8164 46.875V47.0312C38.8164 47.2161 38.8411 47.388 38.8906 47.5469C38.9427 47.7031 39.0182 47.8398 39.1172 47.957C39.2161 48.0742 39.3359 48.1667 39.4766 48.2344C39.6172 48.2995 39.7773 48.332 39.957 48.332C40.1836 48.332 40.3854 48.2865 40.5625 48.1953C40.7396 48.1042 40.8932 47.9753 41.0234 47.8086L41.5195 48.2891C41.4284 48.4219 41.3099 48.5495 41.1641 48.6719C41.0182 48.7917 40.8398 48.8893 40.6289 48.9648C40.4206 49.0404 40.1784 49.0781 39.9023 49.0781ZM43.2734 45.5781V49H42.332V44.7734H43.2305L43.2734 45.5781ZM44.5664 44.7461L44.5586 45.6211C44.5013 45.6107 44.4388 45.6029 44.3711 45.5977C44.306 45.5924 44.2409 45.5898 44.1758 45.5898C44.0143 45.5898 43.8724 45.6133 43.75 45.6602C43.6276 45.7044 43.5247 45.7695 43.4414 45.8555C43.3607 45.9388 43.2982 46.0404 43.2539 46.1602C43.2096 46.2799 43.1836 46.4141 43.1758 46.5625L42.9609 46.5781C42.9609 46.3125 42.987 46.0664 43.0391 45.8398C43.0911 45.6133 43.1693 45.4141 43.2734 45.2422C43.3802 45.0703 43.513 44.9362 43.6719 44.8398C43.8333 44.7435 44.0195 44.6953 44.2305 44.6953C44.2878 44.6953 44.349 44.7005 44.4141 44.7109C44.4818 44.7214 44.5326 44.7331 44.5664 44.7461ZM46.0977 45.6328V49H45.1562V44.7734H46.043L46.0977 45.6328ZM45.9453 46.7305L45.625 46.7266C45.625 46.4349 45.6615 46.1654 45.7344 45.918C45.8073 45.6706 45.9141 45.4557 46.0547 45.2734C46.1953 45.0885 46.3698 44.9466 46.5781 44.8477C46.7891 44.7461 47.0326 44.6953 47.3086 44.6953C47.5013 44.6953 47.6771 44.724 47.8359 44.7812C47.9974 44.8359 48.1367 44.9232 48.2539 45.043C48.3737 45.1628 48.4648 45.3164 48.5273 45.5039C48.5924 45.6914 48.625 45.918 48.625 46.1836V49H47.6836V46.2656C47.6836 46.0599 47.6523 45.8984 47.5898 45.7812C47.5299 45.6641 47.4427 45.5807 47.3281 45.5312C47.2161 45.4792 47.082 45.4531 46.9258 45.4531C46.7487 45.4531 46.5977 45.487 46.4727 45.5547C46.3503 45.6224 46.25 45.7148 46.1719 45.832C46.0938 45.9492 46.0365 46.0846 46 46.2383C45.9635 46.3919 45.9453 46.556 45.9453 46.7305ZM48.5664 46.4805L48.125 46.5781C48.125 46.3229 48.1602 46.082 48.2305 45.8555C48.3034 45.6263 48.4089 45.4258 48.5469 45.2539C48.6875 45.0794 48.8607 44.9427 49.0664 44.8438C49.2721 44.7448 49.5078 44.6953 49.7734 44.6953C49.9896 44.6953 50.1823 44.7253 50.3516 44.7852C50.5234 44.8424 50.6693 44.9336 50.7891 45.0586C50.9089 45.1836 51 45.3464 51.0625 45.5469C51.125 45.7448 51.1562 45.9844 51.1562 46.2656V49H50.2109V46.2617C50.2109 46.0482 50.1797 45.8828 50.1172 45.7656C50.0573 45.6484 49.9714 45.5677 49.8594 45.5234C49.7474 45.4766 49.6133 45.4531 49.457 45.4531C49.3112 45.4531 49.1823 45.4805 49.0703 45.5352C48.9609 45.5872 48.8685 45.6615 48.793 45.7578C48.7174 45.8516 48.6602 45.9596 48.6211 46.082C48.5846 46.2044 48.5664 46.3372 48.5664 46.4805ZM54.4961 47.8555C54.4961 47.7617 54.4727 47.6771 54.4258 47.6016C54.3789 47.5234 54.2891 47.4531 54.1562 47.3906C54.026 47.3281 53.8333 47.2708 53.5781 47.2188C53.3542 47.1693 53.1484 47.1107 52.9609 47.043C52.776 46.9727 52.6172 46.888 52.4844 46.7891C52.3516 46.6901 52.2487 46.5729 52.1758 46.4375C52.1029 46.3021 52.0664 46.1458 52.0664 45.9688C52.0664 45.7969 52.1042 45.6341 52.1797 45.4805C52.2552 45.3268 52.3633 45.1914 52.5039 45.0742C52.6445 44.957 52.8151 44.8646 53.0156 44.7969C53.2188 44.7292 53.4453 44.6953 53.6953 44.6953C54.0495 44.6953 54.3529 44.7552 54.6055 44.875C54.8607 44.9922 55.056 45.1523 55.1914 45.3555C55.3268 45.556 55.3945 45.7826 55.3945 46.0352H54.4531C54.4531 45.9232 54.4245 45.819 54.3672 45.7227C54.3125 45.6237 54.2292 45.5443 54.1172 45.4844C54.0052 45.4219 53.8646 45.3906 53.6953 45.3906C53.5339 45.3906 53.3997 45.4167 53.293 45.4688C53.1888 45.5182 53.1107 45.5833 53.0586 45.6641C53.0091 45.7448 52.9844 45.8333 52.9844 45.9297C52.9844 46 52.9974 46.0638 53.0234 46.1211C53.0521 46.1758 53.099 46.2266 53.1641 46.2734C53.2292 46.3177 53.3177 46.3594 53.4297 46.3984C53.5443 46.4375 53.6875 46.4753 53.8594 46.5117C54.1823 46.5794 54.4596 46.6667 54.6914 46.7734C54.9258 46.8776 55.1055 47.013 55.2305 47.1797C55.3555 47.3438 55.418 47.5521 55.418 47.8047C55.418 47.9922 55.3776 48.1641 55.2969 48.3203C55.2188 48.474 55.1042 48.6081 54.9531 48.7227C54.8021 48.8346 54.6211 48.9219 54.4102 48.9844C54.2018 49.0469 53.9674 49.0781 53.707 49.0781C53.3242 49.0781 53 49.0104 52.7344 48.875C52.4688 48.737 52.2669 48.5612 52.1289 48.3477C51.9935 48.1315 51.9258 47.9076 51.9258 47.6758H52.8359C52.8464 47.8503 52.8945 47.9896 52.9805 48.0938C53.069 48.1953 53.1784 48.2695 53.3086 48.3164C53.4414 48.3607 53.5781 48.3828 53.7188 48.3828C53.888 48.3828 54.0299 48.3607 54.1445 48.3164C54.2591 48.2695 54.3464 48.207 54.4062 48.1289C54.4661 48.0482 54.4961 47.957 54.4961 47.8555Z" fill="white"/>
<defs>
<clipPath id="clip0_264_2149">
<rect width="40" height="38" fill="white" transform="translate(8)"/>
</clipPath>
</defs>
</svg>
