<svg width="309" height="297" viewBox="0 0 309 297" fill="none" xmlns="http://www.w3.org/2000/svg">
<g filter="url(#filter0_bd_48_1767)">
<path d="M83.1219 14.2032C86.9945 3.85861 98.5197 -1.38803 108.864 2.48452L214.314 41.9601C224.659 45.8327 229.905 57.358 226.033 67.7026L205.671 122.093C201.799 132.438 190.274 137.685 179.929 133.812L128.718 114.641C127.734 114.273 126.659 114.224 125.645 114.501L82.3114 126.364C77.6229 127.647 74.0455 122.162 77.11 118.389L87.0931 106.097C89.2475 103.444 88.1652 99.4599 84.9648 98.2619L74.4792 94.3365C64.1346 90.464 58.8879 78.9387 62.7605 68.5941L83.1219 14.2032Z" fill="#919AFF" fill-opacity="0.4" shape-rendering="crispEdges"/>
<path d="M83.1219 14.2032C86.9945 3.85861 98.5197 -1.38803 108.864 2.48452L214.314 41.9601C224.659 45.8327 229.905 57.358 226.033 67.7026L205.671 122.093C201.799 132.438 190.274 137.685 179.929 133.812L128.718 114.641C127.734 114.273 126.659 114.224 125.645 114.501L82.3114 126.364C77.6229 127.647 74.0455 122.162 77.11 118.389L87.0931 106.097C89.2475 103.444 88.1652 99.4599 84.9648 98.2619L74.4792 94.3365C64.1346 90.464 58.8879 78.9387 62.7605 68.5941L83.1219 14.2032Z" stroke="white" stroke-opacity="0.2" stroke-width="2" shape-rendering="crispEdges"/>
</g>
<defs>
<filter id="filter0_bd_48_1767" x="0.485352" y="-19.7905" width="307.823" height="315.878" filterUnits="userSpaceOnUse" color-interpolation-filters="sRGB">
<feFlood flood-opacity="0" result="BackgroundImageFix"/>
<feGaussianBlur in="BackgroundImageFix" stdDeviation="10"/>
<feComposite in2="SourceAlpha" operator="in" result="effect1_backgroundBlur_48_1767"/>
<feColorMatrix in="SourceAlpha" type="matrix" values="0 0 0 0 0 0 0 0 0 0 0 0 0 0 0 0 0 0 127 0" result="hardAlpha"/>
<feOffset dx="10" dy="90"/>
<feGaussianBlur stdDeviation="35"/>
<feComposite in2="hardAlpha" operator="out"/>
<feColorMatrix type="matrix" values="0 0 0 0 0.12549 0 0 0 0 0.12549 0 0 0 0 0.12549 0 0 0 0.2 0"/>
<feBlend mode="normal" in2="effect1_backgroundBlur_48_1767" result="effect2_dropShadow_48_1767"/>
<feBlend mode="normal" in="SourceGraphic" in2="effect2_dropShadow_48_1767" result="shape"/>
</filter>
</defs>
</svg>
