<svg width="16" height="17" viewBox="0 0 16 17" fill="none" xmlns="http://www.w3.org/2000/svg">
<path d="M7.99992 9.16668C8.18881 9.16668 8.34725 9.10268 8.47525 8.97468C8.60281 8.84712 8.66659 8.6889 8.66659 8.50001V5.81668C8.66659 5.62779 8.60281 5.47223 8.47525 5.35001C8.34725 5.22779 8.18881 5.16668 7.99992 5.16668C7.81103 5.16668 7.65281 5.23045 7.52525 5.35801C7.39725 5.48601 7.33325 5.64445 7.33325 5.83334V8.51668C7.33325 8.70557 7.39725 8.86112 7.52525 8.98334C7.65281 9.10557 7.81103 9.16668 7.99992 9.16668ZM7.99992 11.8333C8.18881 11.8333 8.34725 11.7693 8.47525 11.6413C8.60281 11.5138 8.66659 11.3556 8.66659 11.1667C8.66659 10.9778 8.60281 10.8193 8.47525 10.6913C8.34725 10.5638 8.18881 10.5 7.99992 10.5C7.81103 10.5 7.65281 10.5638 7.52525 10.6913C7.39725 10.8193 7.33325 10.9778 7.33325 11.1667C7.33325 11.3556 7.39725 11.5138 7.52525 11.6413C7.65281 11.7693 7.81103 11.8333 7.99992 11.8333ZM7.99992 15.1667C7.0777 15.1667 6.21103 14.9916 5.39992 14.6413C4.58881 14.2916 3.88325 13.8167 3.28325 13.2167C2.68325 12.6167 2.20836 11.9111 1.85859 11.1C1.50836 10.2889 1.33325 9.42223 1.33325 8.50001C1.33325 7.57779 1.50836 6.71112 1.85859 5.90001C2.20836 5.0889 2.68325 4.38334 3.28325 3.78334C3.88325 3.18334 4.58881 2.70823 5.39992 2.35801C6.21103 2.00823 7.0777 1.83334 7.99992 1.83334C8.92214 1.83334 9.78881 2.00823 10.5999 2.35801C11.411 2.70823 12.1166 3.18334 12.7166 3.78334C13.3166 4.38334 13.7915 5.0889 14.1413 5.90001C14.4915 6.71112 14.6666 7.57779 14.6666 8.50001C14.6666 9.42223 14.4915 10.2889 14.1413 11.1C13.7915 11.9111 13.3166 12.6167 12.7166 13.2167C12.1166 13.8167 11.411 14.2916 10.5999 14.6413C9.78881 14.9916 8.92214 15.1667 7.99992 15.1667ZM7.99992 13.8333C9.4777 13.8333 10.7361 13.314 11.7753 12.2753C12.8139 11.2362 13.3333 9.97779 13.3333 8.50001C13.3333 7.02223 12.8139 5.76379 11.7753 4.72468C10.7361 3.68601 9.4777 3.16668 7.99992 3.16668C6.52214 3.16668 5.26392 3.68601 4.22525 4.72468C3.18614 5.76379 2.66659 7.02223 2.66659 8.50001C2.66659 9.97779 3.18614 11.2362 4.22525 12.2753C5.26392 13.314 6.52214 13.8333 7.99992 13.8333Z" fill="#DD5757"/>
</svg>
