<svg width="24" height="15" viewBox="0 0 24 15" fill="none" xmlns="http://www.w3.org/2000/svg">
<path d="M23.0137 7.27219C22.9819 7.19906 22.2019 5.46938 20.46 3.7275C18.8437 2.11313 16.0669 0.1875 12 0.1875C7.93311 0.1875 5.15623 2.11313 3.53998 3.7275C1.79811 5.46938 1.01811 7.19625 0.986235 7.27219C0.954184 7.34419 0.937622 7.42212 0.937622 7.50094C0.937622 7.57975 0.954184 7.65768 0.986235 7.72969C1.01811 7.80187 1.79811 9.53156 3.53998 11.2734C5.15623 12.8878 7.93311 14.8125 12 14.8125C16.0669 14.8125 18.8437 12.8878 20.46 11.2734C22.2019 9.53156 22.9819 7.80469 23.0137 7.72969C23.0458 7.65768 23.0623 7.57975 23.0623 7.50094C23.0623 7.42212 23.0458 7.34419 23.0137 7.27219ZM12 13.6875C9.05811 13.6875 6.48936 12.6169 4.36405 10.5066C3.47312 9.62114 2.7192 8.60781 2.12717 7.5C2.71903 6.39237 3.47297 5.37932 4.36405 4.49438C6.48936 2.38313 9.05811 1.3125 12 1.3125C14.9419 1.3125 17.5106 2.38313 19.6359 4.49438C20.527 5.37932 21.2809 6.39237 21.8728 7.5C21.2756 8.64469 18.2812 13.6875 12 13.6875ZM12 3.1875C11.1471 3.1875 10.3133 3.44042 9.60409 3.91429C8.8949 4.38815 8.34216 5.06167 8.01575 5.84968C7.68935 6.63768 7.60395 7.50478 7.77035 8.34133C7.93675 9.17787 8.34747 9.94628 8.95059 10.5494C9.5537 11.1525 10.3221 11.5632 11.1587 11.7296C11.9952 11.896 12.8623 11.8106 13.6503 11.4842C14.4383 11.1578 15.1118 10.6051 15.5857 9.8959C16.0596 9.18671 16.3125 8.35293 16.3125 7.5C16.311 6.35671 15.8562 5.26067 15.0477 4.45225C14.2393 3.64382 13.1433 3.18899 12 3.1875ZM12 10.6875C11.3696 10.6875 10.7533 10.5006 10.2291 10.1503C9.70492 9.80006 9.29637 9.30224 9.05512 8.7198C8.81387 8.13736 8.75074 7.49646 8.87373 6.87815C8.99672 6.25984 9.3003 5.69188 9.74608 5.2461C10.1919 4.80032 10.7598 4.49674 11.3781 4.37375C11.9964 4.25076 12.6373 4.31388 13.2198 4.55513C13.8022 4.79639 14.3 5.20494 14.6503 5.72912C15.0005 6.2533 15.1875 6.86957 15.1875 7.5C15.1875 8.34538 14.8517 9.15613 14.2539 9.7539C13.6561 10.3517 12.8454 10.6875 12 10.6875Z" fill="url(#paint0_linear_2_5083)"/>
<defs>
<linearGradient id="paint0_linear_2_5083" x1="-14.7302" y1="7.5" x2="25.2257" y2="7.0969" gradientUnits="userSpaceOnUse">
<stop stop-color="#B759FF"/>
<stop offset="0.815566" stop-color="#F78171"/>
</linearGradient>
</defs>
</svg>
