<svg width="28" height="27" viewBox="0 0 28 27" fill="none" xmlns="http://www.w3.org/2000/svg">
<path d="M23.7013 11.7962H22.9203V11.7559H14.1949V15.6339H19.674C18.8746 17.8914 16.7267 19.5119 14.1949 19.5119C10.9825 19.5119 8.37796 16.9073 8.37796 13.6949C8.37796 10.4825 10.9825 7.87796 14.1949 7.87796C15.6777 7.87796 17.0268 8.43736 18.054 9.35111L20.7962 6.6089C19.0647 4.99518 16.7486 4 14.1949 4C8.8409 4 4.5 8.3409 4.5 13.6949C4.5 19.0489 8.8409 23.3898 14.1949 23.3898C19.5489 23.3898 23.8898 19.0489 23.8898 13.6949C23.8898 13.0449 23.8229 12.4103 23.7013 11.7962Z" fill="#FFC107"/>
<path d="M14.1951 23.3897C16.6993 23.3897 18.9747 22.4313 20.6951 20.8729L17.6945 18.3338C16.6884 19.0989 15.4591 19.5127 14.1951 19.5117C11.6735 19.5117 9.53234 17.9038 8.72572 15.6599L5.56421 18.0958C7.16872 21.2355 10.4272 23.3897 14.1951 23.3897Z" fill="#4CAF50"/>
<path d="M23.7014 11.7963H22.9205V11.7561H14.1951V15.6341H19.6741C19.2918 16.7085 18.603 17.6473 17.693 18.3346L17.6944 18.3336L20.695 20.8727C20.4827 21.0656 23.89 18.5425 23.89 13.6951C23.89 13.045 23.8231 12.4105 23.7014 11.7963Z" fill="#1976D2"/>
<path d="M5.61792 9.18242L8.80318 11.5184C9.66506 9.38455 11.7524 7.87796 14.195 7.87796C15.6778 7.87796 17.0269 8.43736 18.0541 9.35111L20.7963 6.6089C19.0648 4.99518 16.7486 4 14.195 4C10.4712 4 7.24182 6.10234 5.61792 9.18242Z" fill="#FF3D00"/>
</svg>
