<svg width="23" height="22" viewBox="0 0 23 22" fill="none" xmlns="http://www.w3.org/2000/svg">
<path d="M21.0364 2.85897L21.8065 2.09978C22.0107 1.89555 22.1254 1.61856 22.1254 1.32974C22.1254 1.04092 22.0107 0.763926 21.8065 0.559699C21.6023 0.355472 21.3253 0.240738 21.0364 0.240738C20.7476 0.240738 20.4706 0.355472 20.2664 0.559699L18.748 2.08893L15.6787 5.15825L8.8351 11.991C7.71371 11.2511 6.3576 10.9539 5.02955 11.1568C3.7015 11.3598 2.49607 12.0485 1.64682 13.0895C0.797572 14.1305 0.364977 15.4497 0.432858 16.7914C0.500739 18.1332 1.06426 19.402 2.01424 20.3519C2.96421 21.3019 4.233 21.8654 5.57475 21.9333C6.9165 22.0012 8.23568 21.5686 9.27668 20.7194C10.3177 19.8701 11.0064 18.6647 11.2093 17.3366C11.4123 16.0086 11.115 14.6525 10.3752 13.5311L16.4379 7.45752L18.7372 9.76764C18.8383 9.86805 18.9582 9.94756 19.0901 10.0016C19.2219 10.0557 19.3631 10.0833 19.5056 10.0828C19.6481 10.0823 19.7891 10.0537 19.9206 9.9987C20.0521 9.9437 20.1714 9.86334 20.2718 9.76222C20.3722 9.6611 20.4517 9.54119 20.5058 9.40934C20.5599 9.27748 20.5875 9.13627 20.587 8.99377C20.5864 8.85126 20.5579 8.71025 20.5029 8.57878C20.4479 8.44732 20.3675 8.32797 20.2664 8.22756L17.9671 5.92829L19.5072 4.39905L20.2664 5.15825C20.3668 5.25937 20.4862 5.33973 20.6176 5.39473C20.7491 5.44973 20.8901 5.47829 21.0326 5.4788C21.1751 5.4793 21.3163 5.45173 21.4482 5.39766C21.58 5.34359 21.6999 5.26408 21.8011 5.16367C21.9022 5.06326 21.9825 4.94391 22.0375 4.81245C22.0925 4.68098 22.1211 4.53997 22.1216 4.39747C22.1221 4.25496 22.0945 4.11375 22.0405 3.9819C21.9864 3.85005 21.9069 3.73014 21.8065 3.62901L21.0364 2.85897ZM5.85255 19.7673C5.20904 19.7673 4.57997 19.5765 4.0449 19.219C3.50983 18.8615 3.0928 18.3533 2.84654 17.7588C2.60027 17.1642 2.53584 16.51 2.66138 15.8789C2.78693 15.2477 3.09681 14.668 3.55185 14.2129C4.00689 13.7579 4.58664 13.448 5.21779 13.3225C5.84895 13.1969 6.50315 13.2613 7.09769 13.5076C7.69222 13.7539 8.20038 14.1709 8.5579 14.706C8.91542 15.241 9.10625 15.8701 9.10625 16.5136C9.10625 17.3766 8.76345 18.2041 8.15326 18.8143C7.54308 19.4245 6.71549 19.7673 5.85255 19.7673Z" fill="url(#paint0_linear_264_1474)"/>
<defs>
<linearGradient id="paint0_linear_264_1474" x1="0.425926" y1="7.04483" x2="22.557" y2="7.16178" gradientUnits="userSpaceOnUse">
<stop stop-color="#9C3FE4"/>
<stop offset="1" stop-color="#C65647"/>
</linearGradient>
</defs>
</svg>
