<svg width="36" height="36" viewBox="0 0 36 36" fill="none" xmlns="http://www.w3.org/2000/svg">
<rect x="0.594238" y="0.472656" width="35" height="35" rx="5" fill="url(#paint0_linear_220_2840)"/>
<g clip-path="url(#clip0_220_2840)">
<path d="M18.2399 9.32156C18.464 9.17216 18.7186 9.104 18.986 9.104H19.3579C19.7425 9.104 20.0992 9.23426 20.3608 9.49589C20.6225 9.75755 20.7528 10.1142 20.7528 10.4988V14.6832H25.3091C26.8408 14.6832 27.8696 16.1009 27.5289 17.5774C27.5276 17.583 27.5263 17.5884 27.5248 17.594L25.944 23.4521L25.9419 23.4596L25.9395 23.4677C25.5129 24.8544 24.322 25.8417 22.7985 25.8417H14.7085V15.9683L17.7332 9.91894C17.8537 9.67777 18.0187 9.469 18.2399 9.32156ZM12.8488 16.543H10.5241C10.279 16.543 10.0385 16.6268 9.85827 16.807C9.67798 16.9873 9.59424 17.2277 9.59424 17.4728V24.9118C9.59424 25.1569 9.67798 25.3974 9.85827 25.5777C10.0385 25.7579 10.279 25.8417 10.5241 25.8417H12.8488V16.543Z" fill="white"/>
</g>
<defs>
<linearGradient id="paint0_linear_220_2840" x1="0.594238" y1="11.4472" x2="36.2902" y2="11.6359" gradientUnits="userSpaceOnUse">
<stop stop-color="#9C3FE4"/>
<stop offset="1" stop-color="#C65647"/>
</linearGradient>
<clipPath id="clip0_220_2840">
<rect width="18" height="18" fill="white" transform="translate(9.59424 8.47266)"/>
</clipPath>
</defs>
</svg>
