<svg width="36" height="36" viewBox="0 0 36 36" fill="none" xmlns="http://www.w3.org/2000/svg">
<rect x="0.594238" y="0.472656" width="35" height="35" rx="5" fill="url(#paint0_linear_220_2817)"/>
<g clip-path="url(#clip0_220_2817)">
<path d="M26.2041 17.3567C26.1518 14.6292 25.7718 12.6175 25.777 12.6156C25.6189 12.3073 25.3417 12.0493 25.0025 11.9176C22.776 11.0541 20.5865 10.2299 18.452 9.52665C18.2338 9.45466 18.0037 9.45466 17.7859 9.52665C15.6517 10.228 13.4626 11.0507 11.2364 11.9132C10.937 12.0293 10.6857 12.2442 10.5221 12.5054C10.5347 12.5069 10.0645 13.9746 9.98436 17.2161C9.93686 20.458 10.3406 21.4291 10.3272 21.4302C10.5458 22.1427 10.9548 22.8675 11.5407 23.6045C12.1957 24.4275 13.0808 25.2777 14.1499 26.1134C15.9196 27.5024 17.5758 28.3326 17.6452 28.3619C17.7955 28.4354 17.9547 28.4728 18.1187 28.4725C18.2831 28.4725 18.4423 28.435 18.5922 28.3611C18.662 28.3318 20.3201 27.4991 22.0891 26.1105C23.1586 25.274 24.0436 24.4238 24.699 23.6011C25.3269 22.8118 25.7514 22.0373 25.9566 21.2766C25.9484 21.2755 26.2453 20.085 26.2041 17.3571V17.3567ZM18.9997 19.4842V21.2124C18.9997 21.6993 18.6052 22.0937 18.1184 22.0941C17.6315 22.0941 17.2366 21.6996 17.2366 21.2128V19.5087C16.6013 19.1929 16.1642 18.5375 16.1642 17.7801C16.1642 16.7144 17.0281 15.8501 18.0939 15.8501C19.1596 15.8501 20.0236 16.714 20.0239 17.7798C20.0239 18.5183 19.609 19.1599 18.9997 19.4842Z" fill="white"/>
</g>
<defs>
<linearGradient id="paint0_linear_220_2817" x1="0.594238" y1="11.4472" x2="36.2902" y2="11.6359" gradientUnits="userSpaceOnUse">
<stop stop-color="#9C3FE4"/>
<stop offset="1" stop-color="#C65647"/>
</linearGradient>
<clipPath id="clip0_220_2817">
<rect width="19" height="19" fill="white" transform="translate(8.59424 9.47266)"/>
</clipPath>
</defs>
</svg>
