<svg width="18" height="14" viewBox="0 0 18 14" fill="none" xmlns="http://www.w3.org/2000/svg">
<path d="M7.01931 6.11969C6.67056 6.00344 6.67056 5.51096 7.01931 5.39471L9.06636 4.71307C9.51636 4.56303 9.92522 4.31024 10.2605 3.97473C10.5959 3.63922 10.8484 3.23022 10.9982 2.78014L11.6799 0.734145C11.7961 0.385395 12.2886 0.385395 12.4049 0.734145L13.0865 2.7812C13.2365 3.2312 13.4893 3.64006 13.8248 3.97538C14.1603 4.31071 14.5693 4.56327 15.0194 4.71307L17.0654 5.39471C17.1418 5.41978 17.2083 5.46832 17.2554 5.53341C17.3026 5.59851 17.328 5.67683 17.328 5.7572C17.328 5.83758 17.3026 5.9159 17.2554 5.98099C17.2083 6.04609 17.1418 6.09463 17.0654 6.11969L15.0184 6.80134C14.5685 6.95127 14.1597 7.2039 13.8244 7.53922C13.4891 7.87453 13.2364 8.28332 13.0865 8.7332L12.4049 10.7803C12.3798 10.8566 12.3312 10.9231 12.2662 10.9703C12.2011 11.0174 12.1227 11.0428 12.0424 11.0428C11.962 11.0428 11.8837 11.0174 11.8186 10.9703C11.7535 10.9231 11.7049 10.8566 11.6799 10.7803L10.9982 8.7332C10.8483 8.28332 10.5957 7.87453 10.2603 7.53922C9.92503 7.2039 9.51624 6.95127 9.06636 6.80134L7.01931 6.11969ZM1.63059 10.2022C1.58482 10.187 1.545 10.1578 1.51677 10.1188C1.48854 10.0797 1.47335 10.0327 1.47335 9.98448C1.47335 9.93627 1.48854 9.88928 1.51677 9.8502C1.545 9.81112 1.58482 9.78193 1.63059 9.76677L2.85861 9.35778C3.40604 9.17495 3.83511 8.74588 4.01794 8.19845L4.42693 6.97043C4.44208 6.92466 4.47128 6.88484 4.51036 6.85661C4.54944 6.82838 4.59643 6.81319 4.64464 6.81319C4.69285 6.81319 4.73983 6.82838 4.77891 6.85661C4.81799 6.88484 4.84718 6.92466 4.86234 6.97043L5.27133 8.19845C5.36128 8.46844 5.51288 8.71377 5.71411 8.915C5.91534 9.11623 6.16067 9.26783 6.43066 9.35778L7.65868 9.76677C7.70445 9.78193 7.74427 9.81112 7.7725 9.8502C7.80073 9.88928 7.81592 9.93626 7.81592 9.98447C7.81592 10.0327 7.80073 10.0797 7.7725 10.1188C7.74427 10.1578 7.70445 10.187 7.65868 10.2022L6.43066 10.6112C6.16067 10.7011 5.91534 10.8527 5.71411 11.0539C5.51288 11.2552 5.36128 11.5005 5.27133 11.7705L4.86234 12.9985C4.84719 13.0443 4.81799 13.0841 4.77891 13.1123C4.73983 13.1406 4.69285 13.1558 4.64464 13.1558C4.59643 13.1558 4.54944 13.1406 4.51036 13.1123C4.47128 13.0841 4.44209 13.0443 4.42693 12.9985L4.01794 11.7705C3.92799 11.5005 3.77639 11.2552 3.57516 11.0539C3.37393 10.8527 3.1286 10.7011 2.85861 10.6112L1.63059 10.2022ZM0.521987 2.73153C0.491896 2.7211 0.465803 2.70155 0.447335 2.6756C0.428868 2.64965 0.418945 2.6186 0.418945 2.58675C0.418945 2.5549 0.428868 2.52384 0.447335 2.49789C0.465803 2.47195 0.491896 2.4524 0.521987 2.44196L1.33996 2.1693C1.70562 2.04777 1.99202 1.76137 2.11356 1.39571L2.38621 0.577736C2.39665 0.547645 2.4162 0.521551 2.44214 0.503084C2.46809 0.484617 2.49915 0.474693 2.531 0.474693C2.56285 0.474693 2.5939 0.484617 2.61985 0.503084C2.6458 0.521551 2.66535 0.547645 2.67578 0.577736L2.94844 1.39571C3.00839 1.57591 3.10952 1.73966 3.2438 1.87394C3.37809 2.00823 3.54183 2.10936 3.72203 2.1693L4.54001 2.44196C4.5701 2.4524 4.59619 2.47195 4.61466 2.49789C4.63313 2.52384 4.64305 2.5549 4.64305 2.58675C4.64305 2.6186 4.63313 2.64965 4.61466 2.6756C4.59619 2.70155 4.5701 2.7211 4.54001 2.73153L3.72203 3.00419C3.54183 3.06414 3.37809 3.16527 3.2438 3.29955C3.10952 3.43384 3.00839 3.59758 2.94844 3.77778L2.67578 4.5947C2.66535 4.62479 2.6458 4.65089 2.61985 4.66935C2.5939 4.68782 2.56285 4.69774 2.531 4.69774C2.49915 4.69774 2.46809 4.68782 2.44214 4.66935C2.4162 4.65089 2.39665 4.62479 2.38621 4.5947L2.11356 3.77673C1.99202 3.41107 1.70562 3.12467 1.33996 3.00313L0.523044 2.73153L0.521987 2.73153Z" fill="white"/>
</svg>
