<svg width="36" height="36" viewBox="0 0 36 36" fill="none" xmlns="http://www.w3.org/2000/svg">
<rect x="0.594238" y="0.472656" width="35" height="35" rx="5" fill="url(#paint0_linear_220_2105)"/>
<g clip-path="url(#clip0_220_2105)">
<path d="M12.8442 13.7226C12.8442 16.634 15.1829 18.9726 18.0942 18.9726V8.47266C15.1829 8.47266 12.8442 10.8113 12.8442 13.7226ZM12.8442 24.2227C15.7556 24.2227 18.0942 21.884 18.0942 18.9727H7.59424C7.59424 21.884 9.93289 24.2227 12.8442 24.2227ZM18.0943 18.9727V29.4727C21.0056 29.4727 23.3442 27.134 23.3442 24.2227C23.3442 21.3113 21.0056 18.9727 18.0943 18.9727ZM23.3442 13.7226C20.4329 13.7226 18.0943 16.0613 18.0943 18.9726H28.5943C28.5942 16.0613 26.2556 13.7226 23.3442 13.7226Z" fill="white"/>
</g>
<defs>
<linearGradient id="paint0_linear_220_2105" x1="0.594238" y1="11.4472" x2="36.2902" y2="11.6359" gradientUnits="userSpaceOnUse">
<stop stop-color="#9C3FE4"/>
<stop offset="1" stop-color="#C65647"/>
</linearGradient>
<clipPath id="clip0_220_2105">
<rect width="21" height="21" fill="white" transform="translate(7.59424 8.47266)"/>
</clipPath>
</defs>
</svg>
