<svg width="36" height="36" viewBox="0 0 36 36" fill="none" xmlns="http://www.w3.org/2000/svg">
<rect x="0.594238" y="0.472656" width="35" height="35" rx="5" fill="url(#paint0_linear_48_1743)"/>
<g clip-path="url(#clip0_48_1743)">
<path d="M14.77 15.862H20.4185C20.7421 15.862 21.0044 15.5996 21.0044 15.276V14.0208C21.0044 13.1544 20.6794 12.3625 20.1451 11.7603C19.5344 12.4896 18.6177 12.9544 17.5942 12.9544C16.5708 12.9544 15.6542 12.4896 15.0434 11.7603C14.5091 12.3625 14.1841 13.1544 14.1841 14.0208V15.276C14.1841 15.5996 14.4464 15.862 14.77 15.862Z" fill="white"/>
<path d="M17.5942 11.7825C18.7825 11.7825 19.7492 10.8159 19.7492 9.62762C19.7492 8.43937 18.7825 7.47266 17.5942 7.47266C16.406 7.47266 15.4393 8.43937 15.4393 9.62762C15.4393 10.8159 16.406 11.7825 17.5942 11.7825ZM14.3994 17.8421C13.7928 17.2355 12.8093 17.2355 12.2027 17.8421C11.5961 18.4487 11.5961 19.4322 12.2027 20.0388L13.6153 21.4516C13.8441 21.6804 13.8441 22.0514 13.6153 22.2802C13.3865 22.509 13.0154 22.5091 12.7867 22.2802L12.7866 22.2802L10.2763 19.7698C10.1664 19.6599 10.1046 19.5109 10.1046 19.3555V14.3763C10.1046 13.6828 9.54385 13.1211 8.84943 13.1211H8.18018C7.85658 13.1211 7.59424 13.3834 7.59424 13.707V21.2383C7.59424 21.3937 7.65596 21.5427 7.76588 21.6526L11.3599 25.2466V26.8867C11.3599 27.2103 11.6222 27.4727 11.9458 27.4727H16.339C16.6626 27.4727 16.9249 27.2103 16.9249 26.8867V21.9104C16.9249 20.9157 16.5376 19.9806 15.8344 19.2774L14.3994 17.8421ZM27.0083 13.1211H26.339C25.6446 13.1211 25.0838 13.6829 25.0838 14.3763V19.3555C25.0838 19.4324 25.0686 19.5086 25.0392 19.5797C25.0097 19.6508 24.9666 19.7154 24.9122 19.7698L22.4018 22.2802L22.4017 22.2802C22.173 22.5091 21.802 22.509 21.5731 22.2802C21.3443 22.0514 21.3443 21.6804 21.5731 21.4516L22.9857 20.0388C23.5923 19.4322 23.5923 18.4487 22.9857 17.8421C22.3791 17.2355 21.3956 17.2355 20.789 17.8421L19.354 19.2774C18.6508 19.9806 18.2635 20.9157 18.2635 21.9104V26.8867C18.2635 27.2103 18.5258 27.4727 18.8494 27.4727H23.2426C23.5662 27.4727 23.8285 27.2103 23.8285 26.8867V25.2466L27.4226 21.6526C27.5324 21.5427 27.5942 21.3937 27.5942 21.2383V13.707C27.5942 13.3834 27.3319 13.1211 27.0083 13.1211Z" fill="white"/>
</g>
<defs>
<linearGradient id="paint0_linear_48_1743" x1="0.594238" y1="11.4472" x2="36.2902" y2="11.6359" gradientUnits="userSpaceOnUse">
<stop stop-color="#9C3FE4"/>
<stop offset="1" stop-color="#C65647"/>
</linearGradient>
<clipPath id="clip0_48_1743">
<rect width="20" height="20" fill="white" transform="translate(7.59424 7.47266)"/>
</clipPath>
</defs>
</svg>
