<svg width="20" height="20" viewBox="0 0 20 20" fill="none" xmlns="http://www.w3.org/2000/svg">
<g clip-path="url(#clip0_125_251)">
<path fill-rule="evenodd" clip-rule="evenodd" d="M18.4889 6.8411C18.8211 6.92425 19.0702 7.09057 19.1533 7.4232C19.2363 7.67268 19.1533 8.00531 18.9041 8.17163L15.0838 11.9137L15.9974 17.2359C16.0804 17.5685 15.9143 17.9011 15.6652 18.0675C15.4991 18.1506 15.333 18.2338 15.1669 18.2338H14.7516L10.0177 15.739L5.28388 18.2338C4.95168 18.4001 4.61948 18.3169 4.37033 18.1506C4.12118 17.9843 3.95508 17.6517 4.03813 17.319L4.95168 11.9969L1.13137 8.25479C0.882218 8.08847 0.799168 7.75584 0.882218 7.4232C1.04832 7.09057 1.29747 6.8411 1.62967 6.8411L6.86183 6.00951L9.27029 1.2695C9.51944 0.687389 10.516 0.687389 10.7652 1.2695L13.1736 6.09267L18.4889 6.8411ZM13.3397 11.8306C13.3397 11.5811 13.4228 11.3316 13.5889 11.0822L16.5787 8.17163L12.5092 7.58952C12.177 7.58952 11.9279 7.42321 11.8448 7.17373L10.0177 3.51477L8.19064 7.25689C8.02454 7.42321 7.77539 7.67268 7.52623 7.67268L3.45677 8.25479L6.44658 11.0822C6.61268 11.3316 6.69573 11.5811 6.69573 11.8306L5.94828 15.9053L9.60249 13.9927C9.85164 13.8264 10.1008 13.8264 10.3499 13.9927L14.0042 15.9053L13.3397 11.8306Z" fill="black"/>
<mask id="mask0_125_251" style="mask-type:luminance" maskUnits="userSpaceOnUse" x="0" y="0" width="20" height="19">
<path fill-rule="evenodd" clip-rule="evenodd" d="M18.4889 6.8411C18.8211 6.92425 19.0702 7.09057 19.1533 7.4232C19.2363 7.67268 19.1533 8.00531 18.9041 8.17163L15.0838 11.9137L15.9974 17.2359C16.0804 17.5685 15.9143 17.9011 15.6652 18.0675C15.4991 18.1506 15.333 18.2338 15.1669 18.2338H14.7516L10.0177 15.739L5.28388 18.2338C4.95168 18.4001 4.61948 18.3169 4.37033 18.1506C4.12118 17.9843 3.95508 17.6517 4.03813 17.319L4.95168 11.9969L1.13137 8.25479C0.882218 8.08847 0.799168 7.75584 0.882218 7.4232C1.04832 7.09057 1.29747 6.8411 1.62967 6.8411L6.86183 6.00951L9.27029 1.2695C9.51944 0.687389 10.516 0.687389 10.7652 1.2695L13.1736 6.09267L18.4889 6.8411ZM13.3397 11.8306C13.3397 11.5811 13.4228 11.3316 13.5889 11.0822L16.5787 8.17163L12.5092 7.58952C12.177 7.58952 11.9279 7.42321 11.8448 7.17373L10.0177 3.51477L8.19064 7.25689C8.02454 7.42321 7.77539 7.67268 7.52623 7.67268L3.45677 8.25479L6.44658 11.0822C6.61268 11.3316 6.69573 11.5811 6.69573 11.8306L5.94828 15.9053L9.60249 13.9927C9.85164 13.8264 10.1008 13.8264 10.3499 13.9927L14.0042 15.9053L13.3397 11.8306Z" fill="white"/>
</mask>
<g mask="url(#mask0_125_251)">
<rect x="0.0178223" width="20" height="19.9903" fill="#F9EB67"/>
</g>
</g>
<defs>
<clipPath id="clip0_125_251">
<rect width="20" height="20" fill="white"/>
</clipPath>
</defs>
</svg>
