<svg xmlns="http://www.w3.org/2000/svg" style="geometricPrecision;text-rendering:geometricPrecision;image-rendering:optimizeQuality;fill-rule:evenodd;clip-rule:evenodd" viewBox="0 0 1838 504">
  <path fill="#fefffe" d="M637.5 120.5h39c-.167 47.668 0 95.334.5 143l65.5-79.5a486.64 486.64 0 0 1 54 .5 17527.585 17527.585 0 0 0-85 92.5 8724.75 8724.75 0 0 0 85 92 702.15 702.15 0 0 1-53 0 3651.699 3651.699 0 0 1-66.5-77.5c-.5 25.998-.667 51.998-.5 78h-39v-249Z" style="opacity:.976"/>
  <path fill="#fefffe" d="M1495.5 120.5h39c-.17 47.668 0 95.334.5 143 21.83-26.5 43.67-53 65.5-79.5 18.01-.833 36.01-.666 54 .5a5842.29 5842.29 0 0 1-85 92.5 8671.621 8671.621 0 0 1 85 92 702.15 702.15 0 0 1-53 0 3648.79 3648.79 0 0 1-66.5-77.5c-.5 25.998-.67 51.998-.5 78h-39v-249Z" style="opacity:.977"/>
  <path fill="#fefffe" d="M24.5 135.5h39v203h79v31h-118v-234Z" style="opacity:.983"/>
  <path fill="#fefffe" d="M910.5 135.5h39v203h79v31h-118v-234Z" style="opacity:.985"/>
  <path fill="#fefffe" d="M507.5 180.5c28.994-1.951 53.828 7.049 74.5 27 8.773 10.547 14.607 22.547 17.5 36a441.814 441.814 0 0 1-42-1c-10.729-23.199-28.729-32.365-54-27.5-19.366 5.032-31.866 17.198-37.5 36.5-2.909 15.268-3.242 30.601-1 46 9.61 34.909 32.11 48.075 67.5 39.5 11.864-5.031 20.197-13.531 25-25.5a441.814 441.814 0 0 1 42-1c-9.09 33.057-30.423 53.223-64 60.5-27.811 5.423-53.477.423-77-15-22.669-18.275-34.502-42.108-35.5-71.5-2.713-33.548 8.12-61.715 32.5-84.5 15.509-11.556 32.842-18.056 52-19.5Z" style="opacity:.969"/>
  <path fill="#fefffe" d="M1133.5 180.5c35.34-1.742 63.18 11.592 83.5 40 12.11 22.227 16.27 45.893 12.5 71h-142c3.02 26.179 17.35 42.013 43 47.5 23.71 3.901 41.37-4.433 53-25 14-.5 28-.667 42-.5-11.56 33.382-34.9 52.882-70 58.5-28.61 4.086-54.28-2.581-77-20-17.72-16.267-27.88-36.433-30.5-60.5-4.19-30.591 3.15-57.924 22-82 17.42-17.961 38.59-27.628 63.5-29Zm3 33c21.06-.057 37.23 8.609 48.5 26 2.97 6.336 4.47 13.003 4.5 20h-101c4.64-27.309 20.64-42.642 48-46Z" style="opacity:.971"/>
  <path fill="#fefffe" d="M1336.5 180.5c27.93-1.314 51.09 8.353 69.5 29 .5-8.66.67-17.327.5-26h39v186h-39c.17-8.673 0-17.34-.5-26-20.55 23.3-46.38 32.8-77.5 28.5-41.21-9.209-65.37-34.709-72.5-76.5-5.1-30.417 1.23-58.084 19-83 16.37-18.769 36.87-29.436 61.5-32Zm13 34c26.6 1.555 44.43 14.888 53.5 40 6.69 23.504 3.02 45.171-11 65-21.14 21.264-44.97 24.764-71.5 10.5-17.45-13.625-26.11-31.625-26-54 1.5-35.971 19.83-56.471 55-61.5Z" style="opacity:.977"/>
  <path fill="#fefffe" d="M1739.5 180.5c25.71-2.13 47.54 5.87 65.5 24 8.45 10.846 12.62 23.179 12.5 37h-39c-1.36-14.203-9.03-23.037-23-26.5-11.4-2.103-22.4-.77-33 4-9.17 6.858-11 15.358-5.5 25.5a53.982 53.982 0 0 0 9.5 7.5 706.051 706.051 0 0 0 50 16c14.53 4.181 26.7 12.014 36.5 23.5 15 34.34 5.5 59.506-28.5 75.5-16.61 5.227-33.61 6.893-51 5-21.44-2.969-38.94-12.802-52.5-29.5-6.25-9.012-9.42-19.012-9.5-30a400.8 400.8 0 0 1 40 1c3.62 14.115 12.62 22.615 27 25.5 11.91 1.843 23.24.177 34-5 7.67-5.184 10.5-12.351 8.5-21.5-1.06-3.062-2.89-5.562-5.5-7.5a108.072 108.072 0 0 0-18-8 439.125 439.125 0 0 1-59-20c-20.78-12.972-28.28-31.472-22.5-55.5 5.68-15.683 16.18-26.849 31.5-33.5 10.43-4.109 21.09-6.609 32-7.5Z" style="opacity:.97"/>
  <path fill="#fefefe" d="M273.5 183.5c44.736 1.27 75.236 22.603 91.5 64 10.654 37.348 2.487 69.848-24.5 97.5-34.278 28.091-71.278 32.091-111 12-34.197-22.21-49.031-53.71-44.5-94.5 8.313-39.981 32.147-65.481 71.5-76.5a1068.12 1068.12 0 0 0 17-2.5Zm-2 51c13.543-.647 22.71 5.353 27.5 18 1.762 10.38-1.072 19.213-8.5 26.5 3.24 13.46 6.24 26.96 9 40.5-15.67.167-31.337 0-47-.5a3.647 3.647 0 0 1-1-1.5 969.435 969.435 0 0 0 9-38 70.145 70.145 0 0 1-8.5-15c-1.77-15.475 4.73-25.475 19.5-30Z" style="opacity:.988"/>
</svg>
