<svg width="30" height="30" viewBox="0 0 30 30" fill="none" xmlns="http://www.w3.org/2000/svg">
<g clip-path="url(#clip0_2_7580)">
<path d="M23.339 5.66101C18.457 0.779012 10.543 0.779012 5.66101 5.66101C0.779012 10.543 0.779012 18.457 5.66101 23.339C10.543 28.221 18.457 28.221 23.339 23.339C28.221 18.457 28.22 10.543 23.339 5.66101ZM19.803 18.389C19.9905 18.5765 20.0959 18.8308 20.0959 19.096C20.0959 19.3612 19.9905 19.6155 19.803 19.803C19.6155 19.9905 19.3612 20.0959 19.096 20.0959C18.8308 20.0959 18.5765 19.9905 18.389 19.803L14.5 15.914L10.611 19.803C10.5184 19.8962 10.4082 19.9701 10.2869 20.0206C10.1655 20.0711 10.0354 20.097 9.90401 20.097C9.7726 20.097 9.64249 20.0711 9.52116 20.0206C9.39983 19.9701 9.28966 19.8962 9.19701 19.803C9.10407 19.7102 9.03033 19.6 8.98002 19.4787C8.92971 19.3574 8.90381 19.2273 8.90381 19.096C8.90381 18.9647 8.92971 18.8346 8.98002 18.7133C9.03033 18.592 9.10407 18.4818 9.19701 18.389L13.086 14.5L9.19701 10.611C9.0095 10.4235 8.90416 10.1692 8.90416 9.90401C8.90416 9.63884 9.0095 9.38452 9.19701 9.19701C9.38452 9.0095 9.63884 8.90416 9.90401 8.90416C10.1692 8.90416 10.4235 9.0095 10.611 9.19701L14.5 13.086L18.389 9.19701C18.4819 9.10417 18.5921 9.03052 18.7134 8.98027C18.8347 8.93002 18.9647 8.90416 19.096 8.90416C19.2273 8.90416 19.3573 8.93002 19.4786 8.98027C19.5999 9.03052 19.7102 9.10417 19.803 9.19701C19.8959 9.28986 19.9695 9.40008 20.0198 9.52139C20.07 9.64269 20.0959 9.77271 20.0959 9.90401C20.0959 10.0353 20.07 10.1653 20.0198 10.2866C19.9695 10.4079 19.8959 10.5182 19.803 10.611L15.914 14.5L19.803 18.389Z" fill="url(#paint0_linear_2_7580)"/>
<g filter="url(#filter0_d_2_7580)">
<path fill-rule="evenodd" clip-rule="evenodd" d="M8.86296 8.83633C8.38636 9.29822 8.37443 10.059 8.83633 10.5356L12.6926 14.5147L8.94439 18.359C8.48106 18.8342 8.4907 19.5951 8.96591 20.0584C9.44112 20.5217 10.202 20.5121 10.6653 20.0369L14.3659 16.2413L17.9689 19.9591C18.4308 20.4357 19.1916 20.4476 19.6682 19.9857C20.1448 19.5238 20.1568 18.763 19.6949 18.2864L16.0445 14.5198L19.8262 10.641C20.2896 10.1658 20.2799 9.40498 19.8047 8.94165C19.3295 8.47832 18.5687 8.48795 18.1053 8.96317L14.3711 12.7931L10.5623 8.86296C10.1004 8.38636 9.33957 8.37443 8.86296 8.83633Z" fill="white"/>
</g>
</g>
<defs>
<filter id="filter0_d_2_7580" x="2.49756" y="6.49756" width="23.67" height="23.9021" filterUnits="userSpaceOnUse" color-interpolation-filters="sRGB">
<feFlood flood-opacity="0" result="BackgroundImageFix"/>
<feColorMatrix in="SourceAlpha" type="matrix" values="0 0 0 0 0 0 0 0 0 0 0 0 0 0 0 0 0 0 127 0" result="hardAlpha"/>
<feOffset dy="4"/>
<feGaussianBlur stdDeviation="3"/>
<feComposite in2="hardAlpha" operator="out"/>
<feColorMatrix type="matrix" values="0 0 0 0 0 0 0 0 0 0 0 0 0 0 0 0 0 0 0.35 0"/>
<feBlend mode="normal" in2="BackgroundImageFix" result="effect1_dropShadow_2_7580"/>
<feBlend mode="normal" in="SourceGraphic" in2="effect1_dropShadow_2_7580" result="shape"/>
</filter>
<linearGradient id="paint0_linear_2_7580" x1="14.4998" y1="1.99951" x2="14.4998" y2="27.0005" gradientUnits="userSpaceOnUse">
<stop stop-color="#DD5757"/>
<stop offset="1" stop-color="#F77676"/>
</linearGradient>
<clipPath id="clip0_2_7580">
<rect width="29" height="29" fill="white"/>
</clipPath>
</defs>
</svg>
