<svg width="275" height="244" viewBox="0 0 275 244" fill="none" xmlns="http://www.w3.org/2000/svg">
<g filter="url(#filter0_bd_2_5669)">
<path d="M192.185 78.1952C196.088 67.8526 191.282 55.3602 181.45 50.2928L101.675 9.17552C91.8435 4.10806 80.7091 8.38443 76.8059 18.7271L60.8592 60.9822C56.956 71.3248 61.7621 83.8172 71.5939 88.8847L110.017 108.689C110.968 109.179 111.773 109.977 112.314 110.965L130.467 144.123C132.934 148.629 139.029 147.466 139.311 142.435L139.927 131.442C140.123 127.927 143.443 125.917 146.473 127.478L151.369 130.002C161.201 135.069 172.335 130.793 176.238 120.45L192.185 78.1952Z" fill="#919AFF" fill-opacity="0.4" shape-rendering="crispEdges"/>
<path d="M192.185 78.1952C196.088 67.8526 191.282 55.3602 181.45 50.2928L101.675 9.17552C91.8435 4.10806 80.7091 8.38443 76.8059 18.7271L60.8592 60.9822C56.956 71.3248 61.7621 83.8172 71.5939 88.8847L110.017 108.689C110.968 109.179 111.773 109.977 112.314 110.965L130.467 144.123C132.934 148.629 139.029 147.466 139.311 142.435L139.927 131.442C140.123 127.927 143.443 125.917 146.473 127.478L151.369 130.002C161.201 135.069 172.335 130.793 176.238 120.45L192.185 78.1952Z" stroke="white" stroke-opacity="0.2" stroke-width="2" shape-rendering="crispEdges"/>
</g>
<rect width="97.4799" height="10.1038" rx="5.05188" transform="matrix(-0.89335 -0.450254 -0.35783 0.934085 180.16 65.8133)" fill="url(#paint0_linear_2_5669)"/>
<rect width="97.4799" height="10.1038" rx="5.05188" transform="matrix(-0.89335 -0.450254 -0.35783 0.934085 172.199 86.3576)" fill="url(#paint1_linear_2_5669)"/>
<rect width="64.7919" height="10.1634" rx="5.08168" transform="matrix(-0.892559 -0.45238 -0.356798 0.934618 164.237 106.841)" fill="url(#paint2_linear_2_5669)"/>
<defs>
<filter id="filter0_bd_2_5669" x="-1.45532" y="-13.9991" width="275.955" height="321.977" filterUnits="userSpaceOnUse" color-interpolation-filters="sRGB">
<feFlood flood-opacity="0" result="BackgroundImageFix"/>
<feGaussianBlur in="BackgroundImageFix" stdDeviation="10"/>
<feComposite in2="SourceAlpha" operator="in" result="effect1_backgroundBlur_2_5669"/>
<feColorMatrix in="SourceAlpha" type="matrix" values="0 0 0 0 0 0 0 0 0 0 0 0 0 0 0 0 0 0 127 0" result="hardAlpha"/>
<feOffset dx="10" dy="90"/>
<feGaussianBlur stdDeviation="35"/>
<feComposite in2="hardAlpha" operator="out"/>
<feColorMatrix type="matrix" values="0 0 0 0 0.12549 0 0 0 0 0.12549 0 0 0 0 0.12549 0 0 0 0.2 0"/>
<feBlend mode="normal" in2="effect1_backgroundBlur_2_5669" result="effect2_dropShadow_2_5669"/>
<feBlend mode="normal" in="SourceGraphic" in2="effect2_dropShadow_2_5669" result="shape"/>
</filter>
<linearGradient id="paint0_linear_2_5669" x1="-7.36766" y1="5.0519" x2="135.168" y2="2.76302" gradientUnits="userSpaceOnUse">
<stop stop-color="white"/>
<stop offset="1" stop-color="white" stop-opacity="0"/>
</linearGradient>
<linearGradient id="paint1_linear_2_5669" x1="-7.36766" y1="5.0519" x2="135.168" y2="2.76302" gradientUnits="userSpaceOnUse">
<stop stop-color="white"/>
<stop offset="1" stop-color="white" stop-opacity="0"/>
</linearGradient>
<linearGradient id="paint2_linear_2_5669" x1="-4.89706" y1="5.0817" x2="89.8556" y2="4.0763" gradientUnits="userSpaceOnUse">
<stop stop-color="white"/>
<stop offset="1" stop-color="white" stop-opacity="0"/>
</linearGradient>
</defs>
</svg>
