<svg width="320" height="556" viewBox="0 0 320 556" fill="none" xmlns="http://www.w3.org/2000/svg">
<g opacity="0.9">
<path d="M269.713 259.681C273.671 272.827 294.911 298.35 308.057 294.392C321.202 290.433 321.261 258.5 317.303 245.354C313.345 232.208 299.49 224.764 286.344 228.722C273.198 232.681 265.754 246.535 269.713 259.681Z" fill="url(#paint0_radial_48_1674)"/>
<g style="mix-blend-mode:lighten">
<path d="M269.713 259.681C273.671 272.827 294.911 298.35 308.057 294.392C321.202 290.433 321.261 258.5 317.303 245.354C313.345 232.208 299.49 224.764 286.344 228.722C273.198 232.681 265.754 246.535 269.713 259.681Z" fill="url(#paint1_linear_48_1674)"/>
</g>
<path d="M295 228.899C288.087 228.279 279.284 232.385 275.296 238.057C271.308 243.729 273.671 248.81 280.584 249.43C287.496 250.051 296.3 245.945 300.288 240.273C304.276 234.601 301.912 229.52 295 228.899Z" fill="#251C72"/>
<path style="mix-blend-mode:lighten" opacity="0.5" d="M295 228.899C288.087 228.279 279.284 232.385 275.296 238.057C271.308 243.729 273.671 248.81 280.584 249.43C287.496 250.051 296.3 245.945 300.288 240.273C304.276 234.601 301.912 229.52 295 228.899Z" fill="url(#paint2_radial_48_1674)"/>
<path d="M302.208 235.339C300.996 234.305 299.224 233.626 296.949 233.419C290.037 232.799 281.233 236.905 277.245 242.577C276.034 244.32 275.414 246.003 275.325 247.539C272.814 245.442 272.608 241.897 275.325 238.086C279.313 232.414 288.146 228.308 295.029 228.929C299.815 229.342 302.414 231.942 302.237 235.369L302.208 235.339Z" fill="#42E8E0"/>
<path d="M234.529 214.453C213.858 214.453 197.1 197.696 197.1 177.025C197.1 156.354 213.858 139.597 234.529 139.597C255.2 139.597 271.957 156.354 271.957 177.025C271.957 197.696 255.2 214.453 234.529 214.453Z" fill="url(#paint3_radial_48_1674)"/>
<g style="mix-blend-mode:lighten">
<path d="M214.441 145.446C197.012 156.553 191.872 179.684 202.979 197.113C214.087 214.542 237.217 219.682 254.646 208.575C272.075 197.468 277.216 174.337 266.108 156.908C255.001 139.479 231.87 134.339 214.441 145.446Z" fill="url(#paint4_linear_48_1674)"/>
</g>
<path d="M47.9481 244.97C47.9481 317.611 91.196 376.486 144.547 376.486C197.898 376.486 241.146 317.611 241.146 244.97C241.146 172.329 197.898 150.586 144.547 150.586C91.196 150.586 47.9481 172.358 47.9481 244.97Z" fill="url(#paint5_radial_48_1674)"/>
<g style="mix-blend-mode:lighten">
<path d="M47.9481 244.97C47.9481 317.611 91.196 376.486 144.547 376.486C197.898 376.486 241.146 317.611 241.146 244.97C241.146 172.329 197.898 150.586 144.547 150.586C91.196 150.586 47.9481 172.358 47.9481 244.97Z" fill="url(#paint6_linear_48_1674)"/>
</g>
<path d="M144.547 227.688C108.132 227.688 78.6121 210.64 78.6121 189.61C78.6121 168.579 108.132 151.531 144.547 151.531C180.963 151.531 210.483 168.579 210.483 189.61C210.483 210.64 180.963 227.688 144.547 227.688Z" fill="#251C72"/>
<path style="mix-blend-mode:lighten" opacity="0.5" d="M144.547 227.688C108.132 227.688 78.6121 210.64 78.6121 189.61C78.6121 168.579 108.132 151.531 144.547 151.531C180.963 151.531 210.483 168.579 210.483 189.61C210.483 210.64 180.963 227.688 144.547 227.688Z" fill="url(#paint7_radial_48_1674)"/>
<path d="M191.163 172.831C165.403 157.972 123.661 157.972 97.9313 172.831C87.2966 178.975 81.0634 186.685 79.2023 194.691C76.5732 183.347 82.8063 171.442 97.9313 162.698C123.691 147.839 165.432 147.839 191.163 162.698C206.288 171.413 212.491 183.318 209.862 194.691C208.001 186.715 201.797 178.975 191.163 172.831Z" fill="#42E8E0"/>
<path d="M173.32 48.9653C173.32 66.6899 185.757 88.2548 201.119 97.1171C216.48 105.979 228.917 98.8009 228.917 81.0764C228.917 63.3518 216.48 41.7869 201.119 32.9246C185.757 24.0623 173.32 31.2408 173.32 48.9653Z" fill="#BCBEFF"/>
<path d="M140.707 197.261C86.2963 197.261 42.1878 153.152 42.1878 98.7418C42.1878 44.3312 86.2963 0.222656 140.707 0.222656C195.118 0.222656 239.226 44.3312 239.226 98.7418C239.226 153.152 195.118 197.261 140.707 197.261Z" fill="url(#paint8_radial_48_1674)"/>
<g style="mix-blend-mode:lighten">
<path d="M140.707 197.261C86.2963 197.261 42.1878 153.152 42.1878 98.7418C42.1878 44.3312 86.2963 0.222656 140.707 0.222656C195.118 0.222656 239.226 44.3312 239.226 98.7418C239.226 153.152 195.118 197.261 140.707 197.261Z" fill="url(#paint9_linear_48_1674)"/>
</g>
<path d="M171.459 145.417C173.97 164.796 188.593 170.881 204.131 159.006C219.64 147.13 230.186 121.814 227.675 102.435C225.164 83.0558 210.541 76.9703 195.003 88.8458C179.494 100.721 168.948 126.038 171.459 145.417Z" fill="#251C72"/>
<path style="mix-blend-mode:lighten" opacity="0.5" d="M171.459 145.417C173.97 164.796 188.593 170.881 204.131 159.006C219.64 147.13 230.186 121.814 227.675 102.435C225.164 83.0558 210.541 76.9703 195.003 88.8458C179.494 100.721 168.948 126.038 171.459 145.417Z" fill="url(#paint10_radial_48_1674)"/>
<path d="M184.28 128.638C185.195 135.668 190.513 137.884 196.155 133.571C201.797 129.258 205.638 120.041 204.722 113.01C203.806 105.98 198.489 103.764 192.846 108.077C187.204 112.39 183.364 121.607 184.28 128.638Z" fill="#42E8E0"/>
<path d="M196.657 156.199C212.166 144.324 222.712 119.007 220.201 99.6281C219.167 91.7407 216.124 86.0393 211.841 82.8784C219.965 83.6465 226.109 90.5295 227.645 102.464C230.156 121.843 219.61 147.16 204.101 159.035C194.914 166.066 186.022 166.804 179.789 162.196C184.841 162.669 190.69 160.778 196.657 156.199Z" fill="#42E8E0"/>
<path d="M202.772 158.385C218.281 146.51 228.827 121.193 226.316 101.814C225.164 92.834 221.383 86.719 216.154 83.9126C222.092 86.3645 226.405 92.7158 227.675 102.435C230.186 121.814 219.64 147.13 204.131 159.006C195.801 165.387 187.736 166.568 181.65 163.289C187.559 165.712 195.062 164.294 202.802 158.356L202.772 158.385Z" fill="#42E8E0"/>
<path d="M38.347 307.39C17.6759 307.39 0.918594 290.632 0.918594 269.961C0.918594 249.29 17.6759 232.533 38.347 232.533C59.0182 232.533 75.7754 249.29 75.7754 269.961C75.7754 290.632 59.0182 307.39 38.347 307.39Z" fill="url(#paint11_radial_48_1674)"/>
<g style="mix-blend-mode:lighten">
<path d="M38.347 307.39C17.6759 307.39 0.918594 290.632 0.918594 269.961C0.918594 249.29 17.6759 232.533 38.347 232.533C59.0182 232.533 75.7754 249.29 75.7754 269.961C75.7754 290.632 59.0182 307.39 38.347 307.39Z" fill="url(#paint12_linear_48_1674)"/>
</g>
<path d="M2.3965 270.67C2.3965 281.216 9.8113 294.037 18.9395 299.325C28.0676 304.613 35.4824 300.329 35.4824 289.783C35.4824 279.237 28.0676 266.416 18.9395 261.129C9.8113 255.841 2.3965 260.124 2.3965 270.67Z" fill="#251C72"/>
<path style="mix-blend-mode:lighten" opacity="0.5" d="M2.3965 270.67C2.3965 281.216 9.8113 294.037 18.9395 299.325C28.0676 304.613 35.4824 300.329 35.4824 289.783C35.4824 279.237 28.0676 266.416 18.9395 261.129C9.8113 255.841 2.3965 260.124 2.3965 270.67Z" fill="url(#paint13_radial_48_1674)"/>
<path d="M11.1699 258.884C9.7815 260.893 8.95435 263.64 8.95435 267.126C8.95435 277.672 16.3692 290.493 25.4973 295.78C28.3037 297.405 30.9329 298.114 33.2666 298.026C30.4011 302.102 25.0542 302.9 18.9392 299.355C9.81105 294.067 2.39625 281.246 2.39625 270.7C2.39625 263.404 5.94117 259.091 11.1699 258.913V258.884Z" fill="#42E8E0"/>
<path d="M57.5489 134.811L93.2344 155.402V114.192L57.5489 93.5723V134.811Z" fill="#251C72"/>
<path opacity="0.8" d="M62.8663 96.6446V131.916L93.2344 149.464V155.402L57.5489 134.811V93.5723L62.8663 96.6446Z" fill="url(#paint14_radial_48_1674)"/>
<path d="M86.4395 125.447L89.6299 127.308V123.615L86.4395 121.754V125.447Z" fill="#42E8E0"/>
<path d="M79.645 116.791L82.8354 118.652V114.96L79.645 113.099V116.791Z" fill="#42E8E0"/>
<path d="M72.8506 117.618L76.041 119.45V115.757L72.8506 113.926V117.618Z" fill="#42E8E0"/>
<path d="M72.8506 127.308L76.041 129.139V125.447L72.8506 123.615V127.308Z" fill="#42E8E0"/>
<path d="M76.9275 134.752L80.1475 136.584V132.891L76.9275 131.06V134.752Z" fill="#42E8E0"/>
<path d="M65.8497 123.26L69.04 125.092V121.399L65.8497 119.568V123.26Z" fill="#42E8E0"/>
<path d="M28.7756 123.94L24.8763 117.176L28.7756 114.901L64.4907 135.52V176.73L60.5617 178.975L56.6623 172.21L28.7756 156.14V123.94Z" fill="url(#paint15_linear_48_1674)"/>
<path d="M24.8761 158.385L60.5615 178.975V137.766L24.8761 117.176V158.385Z" fill="url(#paint16_linear_48_1674)"/>
<path style="mix-blend-mode:lighten" d="M24.8761 158.385L60.5615 178.975V137.766L24.8761 117.176V158.385Z" fill="url(#paint17_linear_48_1674)"/>
<path d="M12.6764 375.009C16.6349 388.155 37.8748 413.678 51.0205 409.719C64.1663 405.761 64.2254 373.827 60.2669 360.681C56.3084 347.536 42.4537 340.091 29.308 344.05C16.1623 348.008 8.71791 361.863 12.6764 375.009Z" fill="url(#paint18_radial_48_1674)"/>
<g style="mix-blend-mode:lighten">
<path d="M12.6764 375.009C16.6349 388.155 37.8748 413.678 51.0205 409.719C64.1663 405.761 64.2254 373.827 60.2669 360.681C56.3084 347.536 42.4537 340.091 29.308 344.05C16.1623 348.008 8.71791 361.863 12.6764 375.009Z" fill="url(#paint19_linear_48_1674)"/>
</g>
<path d="M37.9632 344.227C31.0506 343.607 22.2473 347.713 18.2593 353.385C14.2713 359.057 16.6346 364.138 23.5472 364.758C30.4597 365.378 39.263 361.272 43.251 355.6C47.2391 349.928 44.8758 344.847 37.9632 344.227Z" fill="#251C72"/>
<path style="mix-blend-mode:lighten" opacity="0.5" d="M37.9632 344.227C31.0506 343.607 22.2473 347.713 18.2593 353.385C14.2713 359.057 16.6346 364.138 23.5472 364.758C30.4597 365.378 39.263 361.272 43.251 355.6C47.2391 349.928 44.8758 344.847 37.9632 344.227Z" fill="url(#paint20_radial_48_1674)"/>
<path d="M45.1714 350.637C43.9602 349.603 42.1878 348.924 39.9131 348.717C33.0005 348.097 24.1973 352.203 20.2092 357.875C18.9981 359.618 18.3777 361.302 18.2891 362.838C15.7781 360.74 15.5713 357.195 18.2891 353.385C22.2771 347.713 31.1099 343.607 37.993 344.227C42.7786 344.641 45.3782 347.24 45.201 350.667L45.1714 350.637Z" fill="#42E8E0"/>
<g opacity="0.2">
<path d="M221.313 480.144C220.77 423.088 186.36 377.168 144.456 377.568C102.551 377.967 69.0232 424.534 69.5668 481.59C70.1105 538.645 104.242 555.399 146.146 555C188.051 554.6 221.857 537.176 221.313 480.144Z" fill="url(#paint21_radial_48_1674)"/>
<path d="M221.313 480.144C220.77 423.088 186.36 377.168 144.456 377.568C102.551 377.967 69.0232 424.534 69.5668 481.59C70.1105 538.645 104.242 555.399 146.146 555C188.051 554.6 221.857 537.176 221.313 480.144Z" fill="url(#paint22_linear_48_1674)"/>
</g>
</g>
<defs>
<radialGradient id="paint0_radial_48_1674" cx="0" cy="0" r="1" gradientUnits="userSpaceOnUse" gradientTransform="translate(277.983 240.037) rotate(163.24) scale(70.5733 70.5734)">
<stop stop-color="#C0BFF6"/>
<stop offset="1" stop-color="#393091"/>
</radialGradient>
<linearGradient id="paint1_linear_48_1674" x1="323.026" y1="274.354" x2="270.095" y2="243.246" gradientUnits="userSpaceOnUse">
<stop stop-color="#2FD3C7"/>
<stop offset="0.09" stop-color="#30B5BD"/>
<stop offset="0.23" stop-color="#338CAF"/>
<stop offset="0.37" stop-color="#356BA4"/>
<stop offset="0.52" stop-color="#36519C"/>
<stop offset="0.67" stop-color="#383E95"/>
<stop offset="0.83" stop-color="#383392"/>
<stop offset="1" stop-color="#393091"/>
</linearGradient>
<radialGradient id="paint2_radial_48_1674" cx="0" cy="0" r="1" gradientUnits="userSpaceOnUse" gradientTransform="translate(291.473 243.146) rotate(-84.89) scale(45.7885 45.7885)">
<stop stop-color="#42E8E0"/>
<stop offset="0.11" stop-color="#36B5BF"/>
<stop offset="0.22" stop-color="#2C87A0"/>
<stop offset="0.34" stop-color="#235F86"/>
<stop offset="0.46" stop-color="#1B3E71"/>
<stop offset="0.58" stop-color="#162560"/>
<stop offset="0.71" stop-color="#121355"/>
<stop offset="0.85" stop-color="#0F084E"/>
<stop offset="1" stop-color="#0F054C"/>
</radialGradient>
<radialGradient id="paint3_radial_48_1674" cx="0" cy="0" r="1" gradientUnits="userSpaceOnUse" gradientTransform="translate(55.5161 57.5118) rotate(168.8) scale(215.974)">
<stop stop-color="#C0BFF6"/>
<stop offset="1" stop-color="#393091"/>
</radialGradient>
<linearGradient id="paint4_linear_48_1674" x1="254.461" y1="208.585" x2="214.268" y2="145.47" gradientUnits="userSpaceOnUse">
<stop stop-color="#706EC4"/>
<stop offset="0.02" stop-color="#6D6BC1"/>
<stop offset="0.25" stop-color="#5651AC"/>
<stop offset="0.49" stop-color="#463E9D"/>
<stop offset="0.73" stop-color="#3C3393"/>
<stop offset="1" stop-color="#393091"/>
</linearGradient>
<radialGradient id="paint5_radial_48_1674" cx="0" cy="0" r="1" gradientUnits="userSpaceOnUse" gradientTransform="translate(2371.49 225.947) rotate(180) scale(166.432 226.177)">
<stop stop-color="#C0BFF6"/>
<stop offset="1" stop-color="#393091"/>
</radialGradient>
<linearGradient id="paint6_linear_48_1674" x1="139.096" y1="377.284" x2="139.096" y2="151.201" gradientUnits="userSpaceOnUse">
<stop stop-color="#2FD3C7"/>
<stop offset="0.09" stop-color="#30B5BD"/>
<stop offset="0.23" stop-color="#338CAF"/>
<stop offset="0.37" stop-color="#356BA4"/>
<stop offset="0.52" stop-color="#36519C"/>
<stop offset="0.67" stop-color="#383E95"/>
<stop offset="0.83" stop-color="#383392"/>
<stop offset="1" stop-color="#393091"/>
</linearGradient>
<radialGradient id="paint7_radial_48_1674" cx="0" cy="0" r="1" gradientUnits="userSpaceOnUse" gradientTransform="translate(147.118 226.181) rotate(180) scale(128.503)">
<stop stop-color="#42E8E0"/>
<stop offset="0.11" stop-color="#36B5BF"/>
<stop offset="0.22" stop-color="#2C87A0"/>
<stop offset="0.34" stop-color="#235F86"/>
<stop offset="0.46" stop-color="#1B3E71"/>
<stop offset="0.58" stop-color="#162560"/>
<stop offset="0.71" stop-color="#121355"/>
<stop offset="0.85" stop-color="#0F084E"/>
<stop offset="1" stop-color="#0F054C"/>
</radialGradient>
<radialGradient id="paint8_radial_48_1674" cx="0" cy="0" r="1" gradientUnits="userSpaceOnUse" gradientTransform="translate(79.2322 84.1485) rotate(180) scale(166.522 166.522)">
<stop stop-color="#C0BFF6"/>
<stop offset="1" stop-color="#393091"/>
</radialGradient>
<linearGradient id="paint9_linear_48_1674" x1="154.414" y1="196.345" x2="127" y2="1.16796" gradientUnits="userSpaceOnUse">
<stop stop-color="#2FD3C7"/>
<stop offset="0.09" stop-color="#30B5BD"/>
<stop offset="0.23" stop-color="#338CAF"/>
<stop offset="0.37" stop-color="#356BA4"/>
<stop offset="0.52" stop-color="#36519C"/>
<stop offset="0.67" stop-color="#383E95"/>
<stop offset="0.83" stop-color="#383392"/>
<stop offset="1" stop-color="#393091"/>
</linearGradient>
<radialGradient id="paint10_radial_48_1674" cx="0" cy="0" r="1" gradientUnits="userSpaceOnUse" gradientTransform="translate(171.4 107.841) rotate(180) scale(81.7989 81.7989)">
<stop stop-color="#42E8E0"/>
<stop offset="0.06" stop-color="#3BCBCD"/>
<stop offset="0.18" stop-color="#2F97AB"/>
<stop offset="0.3" stop-color="#256A8E"/>
<stop offset="0.42" stop-color="#1D4676"/>
<stop offset="0.54" stop-color="#172A64"/>
<stop offset="0.66" stop-color="#121657"/>
<stop offset="0.78" stop-color="#0F0A4F"/>
<stop offset="0.9" stop-color="#0F064D"/>
<stop offset="1" stop-color="#0F054C"/>
</radialGradient>
<radialGradient id="paint11_radial_48_1674" cx="0" cy="0" r="1" gradientUnits="userSpaceOnUse" gradientTransform="translate(16.1709 245.568) rotate(168.8) scale(78.0472)">
<stop stop-color="#C0BFF6"/>
<stop offset="1" stop-color="#393091"/>
</radialGradient>
<linearGradient id="paint12_linear_48_1674" x1="68.6055" y1="291.981" x2="8.06702" y2="247.986" gradientUnits="userSpaceOnUse">
<stop stop-color="#2FD3C7"/>
<stop offset="0.09" stop-color="#30B5BD"/>
<stop offset="0.23" stop-color="#338CAF"/>
<stop offset="0.37" stop-color="#356BA4"/>
<stop offset="0.52" stop-color="#36519C"/>
<stop offset="0.67" stop-color="#383E95"/>
<stop offset="0.83" stop-color="#383392"/>
<stop offset="1" stop-color="#393091"/>
</linearGradient>
<radialGradient id="paint13_radial_48_1674" cx="0" cy="0" r="1" gradientUnits="userSpaceOnUse" gradientTransform="translate(25.9407 274.333) rotate(180) scale(69.7168 69.7167)">
<stop stop-color="#42E8E0"/>
<stop offset="0.11" stop-color="#36B5BF"/>
<stop offset="0.22" stop-color="#2C87A0"/>
<stop offset="0.34" stop-color="#235F86"/>
<stop offset="0.46" stop-color="#1B3E71"/>
<stop offset="0.58" stop-color="#162560"/>
<stop offset="0.71" stop-color="#121355"/>
<stop offset="0.85" stop-color="#0F084E"/>
<stop offset="1" stop-color="#0F054C"/>
</radialGradient>
<radialGradient id="paint14_radial_48_1674" cx="0" cy="0" r="1" gradientUnits="userSpaceOnUse" gradientTransform="translate(82.0679 77.2538) rotate(180) scale(65.699 84.0949)">
<stop stop-color="#2B237C"/>
<stop offset="0.31" stop-color="#251C72"/>
<stop offset="1" stop-color="#0F054C"/>
</radialGradient>
<linearGradient id="paint15_linear_48_1674" x1="30.3709" y1="142.61" x2="123.809" y2="170.999" gradientUnits="userSpaceOnUse">
<stop stop-color="#BCBEFF"/>
<stop offset="0.15" stop-color="#A2A6F5"/>
<stop offset="0.39" stop-color="#8188E8"/>
<stop offset="0.61" stop-color="#6A72DE"/>
<stop offset="0.82" stop-color="#5B65D8"/>
<stop offset="1" stop-color="#5761D7"/>
</linearGradient>
<linearGradient id="paint16_linear_48_1674" x1="46.5591" y1="148.519" x2="174.59" y2="163.791" gradientUnits="userSpaceOnUse">
<stop stop-color="#BCBEFF"/>
<stop offset="0.15" stop-color="#A2A6F5"/>
<stop offset="0.39" stop-color="#8188E8"/>
<stop offset="0.61" stop-color="#6A72DE"/>
<stop offset="0.82" stop-color="#5B65D8"/>
<stop offset="1" stop-color="#5761D7"/>
</linearGradient>
<linearGradient id="paint17_linear_48_1674" x1="65.7607" y1="186.154" x2="-0.942799" y2="75.8185" gradientUnits="userSpaceOnUse">
<stop stop-color="#42E8E0"/>
<stop offset="0.12" stop-color="#41E2DD"/>
<stop offset="0.27" stop-color="#40D2D6"/>
<stop offset="0.44" stop-color="#3FB8CB"/>
<stop offset="0.62" stop-color="#3D94BC"/>
<stop offset="0.81" stop-color="#3B65A8"/>
<stop offset="1" stop-color="#393091"/>
</linearGradient>
<radialGradient id="paint18_radial_48_1674" cx="0" cy="0" r="1" gradientUnits="userSpaceOnUse" gradientTransform="translate(20.9225 355.369) rotate(163.24) scale(70.5733 70.5734)">
<stop stop-color="#C0BFF6"/>
<stop offset="1" stop-color="#393091"/>
</radialGradient>
<linearGradient id="paint19_linear_48_1674" x1="66.0019" y1="389.706" x2="13.0429" y2="358.606" gradientUnits="userSpaceOnUse">
<stop stop-color="#2FD3C7"/>
<stop offset="0.09" stop-color="#30B5BD"/>
<stop offset="0.23" stop-color="#338CAF"/>
<stop offset="0.37" stop-color="#356BA4"/>
<stop offset="0.52" stop-color="#36519C"/>
<stop offset="0.67" stop-color="#383E95"/>
<stop offset="0.83" stop-color="#383392"/>
<stop offset="1" stop-color="#393091"/>
</linearGradient>
<radialGradient id="paint20_radial_48_1674" cx="0" cy="0" r="1" gradientUnits="userSpaceOnUse" gradientTransform="translate(34.3996 358.456) rotate(-84.89) scale(45.7885 45.7886)">
<stop stop-color="#42E8E0"/>
<stop offset="0.11" stop-color="#36B5BF"/>
<stop offset="0.22" stop-color="#2C87A0"/>
<stop offset="0.34" stop-color="#235F86"/>
<stop offset="0.46" stop-color="#1B3E71"/>
<stop offset="0.58" stop-color="#162560"/>
<stop offset="0.71" stop-color="#121355"/>
<stop offset="0.85" stop-color="#0F084E"/>
<stop offset="1" stop-color="#0F054C"/>
</radialGradient>
<radialGradient id="paint21_radial_48_1674" cx="0" cy="0" r="1" gradientUnits="userSpaceOnUse" gradientTransform="translate(194.735 494.084) rotate(-0.545929) scale(130.729 177.658)">
<stop stop-color="#C0BFF6"/>
<stop offset="1" stop-color="#393091"/>
</radialGradient>
<linearGradient id="paint22_linear_48_1674" x1="172.744" y1="479.76" x2="166.844" y2="377.354" gradientUnits="userSpaceOnUse">
<stop stop-color="#0C0C24"/>
<stop offset="1" stop-color="#020615" stop-opacity="0"/>
</linearGradient>
</defs>
</svg>
