<svg width="319" height="556" viewBox="0 0 319 556" fill="none" xmlns="http://www.w3.org/2000/svg">
<g opacity="0.9">
<path d="M268.794 259.459C272.752 272.604 293.992 298.128 307.138 294.169C320.284 290.211 320.343 258.277 316.384 245.131C312.426 231.985 298.571 224.541 285.425 228.5C272.279 232.458 264.835 246.313 268.794 259.459Z" fill="url(#paint0_radial_2_5586)"/>
<g style="mix-blend-mode:lighten">
<path d="M268.794 259.459C272.752 272.604 293.992 298.128 307.138 294.169C320.284 290.211 320.343 258.277 316.384 245.131C312.426 231.985 298.571 224.541 285.425 228.5C272.279 232.458 264.835 246.313 268.794 259.459Z" fill="url(#paint1_linear_2_5586)"/>
</g>
<path d="M294.081 228.677C287.168 228.056 278.365 232.162 274.377 237.834C270.389 243.506 272.752 248.587 279.665 249.208C286.577 249.828 295.38 245.722 299.368 240.05C303.356 234.378 300.993 229.297 294.081 228.677Z" fill="#251C72"/>
<path style="mix-blend-mode:lighten" opacity="0.5" d="M294.081 228.677C287.168 228.056 278.365 232.162 274.377 237.834C270.389 243.506 272.752 248.587 279.665 249.208C286.577 249.828 295.38 245.722 299.368 240.05C303.356 234.378 300.993 229.297 294.081 228.677Z" fill="url(#paint2_radial_2_5586)"/>
<path d="M301.289 235.117C300.078 234.083 298.305 233.403 296.03 233.196C289.118 232.576 280.315 236.682 276.327 242.354C275.115 244.097 274.495 245.781 274.406 247.317C271.895 245.22 271.689 241.675 274.406 237.864C278.394 232.192 287.227 228.086 294.11 228.706C298.896 229.12 301.495 231.719 301.318 235.146L301.289 235.117Z" fill="#42E8E0"/>
<path d="M233.61 214.231C212.939 214.231 196.181 197.474 196.181 176.803C196.181 156.132 212.939 139.374 233.61 139.374C254.281 139.374 271.038 156.132 271.038 176.803C271.038 197.474 254.281 214.231 233.61 214.231Z" fill="url(#paint3_radial_2_5586)"/>
<g style="mix-blend-mode:lighten">
<path d="M213.523 145.223C196.093 156.331 190.953 179.461 202.061 196.891C213.168 214.32 236.299 219.46 253.728 208.352C271.157 197.245 276.297 174.114 265.19 156.685C254.082 139.256 230.952 134.116 213.523 145.223Z" fill="url(#paint4_linear_2_5586)"/>
</g>
<path d="M47.0294 244.747C47.0294 317.388 90.2774 376.263 143.628 376.263C196.979 376.263 240.227 317.388 240.227 244.747C240.227 172.106 196.979 150.364 143.628 150.364C90.2774 150.364 47.0294 172.135 47.0294 244.747Z" fill="url(#paint5_radial_2_5586)"/>
<g style="mix-blend-mode:lighten">
<path d="M47.0294 244.747C47.0294 317.388 90.2774 376.263 143.628 376.263C196.979 376.263 240.227 317.388 240.227 244.747C240.227 172.106 196.979 150.364 143.628 150.364C90.2774 150.364 47.0294 172.135 47.0294 244.747Z" fill="url(#paint6_linear_2_5586)"/>
</g>
<path d="M143.629 227.465C107.214 227.465 77.6935 210.417 77.6935 189.387C77.6935 168.357 107.214 151.309 143.629 151.309C180.044 151.309 209.564 168.357 209.564 189.387C209.564 210.417 180.044 227.465 143.629 227.465Z" fill="#251C72"/>
<path style="mix-blend-mode:lighten" opacity="0.5" d="M143.629 227.465C107.214 227.465 77.6935 210.417 77.6935 189.387C77.6935 168.357 107.214 151.309 143.629 151.309C180.044 151.309 209.564 168.357 209.564 189.387C209.564 210.417 180.044 227.465 143.629 227.465Z" fill="url(#paint7_radial_2_5586)"/>
<path d="M190.244 172.608C164.484 157.749 122.743 157.749 97.0128 172.608C86.378 178.752 80.1449 186.463 78.2838 194.468C75.6547 183.124 81.8878 171.219 97.0128 162.475C122.773 147.616 164.514 147.616 190.244 162.475C205.369 171.19 211.573 183.095 208.944 194.468C207.082 186.492 200.879 178.752 190.244 172.608Z" fill="#42E8E0"/>
<path d="M172.402 48.7426C172.402 66.4671 184.838 88.032 200.2 96.8943C215.561 105.757 227.998 98.5782 227.998 80.8536C227.998 63.129 215.561 41.5641 200.2 32.7018C184.838 23.8395 172.402 31.018 172.402 48.7426Z" fill="#BCBEFF"/>
<path d="M139.788 197.038C85.3775 197.038 41.269 152.93 41.269 98.5191C41.269 44.1085 85.3775 0 139.788 0C194.199 0 238.307 44.1085 238.307 98.5191C238.307 152.93 194.199 197.038 139.788 197.038Z" fill="url(#paint8_radial_2_5586)"/>
<g style="mix-blend-mode:lighten">
<path d="M139.788 197.038C85.3775 197.038 41.269 152.93 41.269 98.5191C41.269 44.1085 85.3775 0 139.788 0C194.199 0 238.307 44.1085 238.307 98.5191C238.307 152.93 194.199 197.038 139.788 197.038Z" fill="url(#paint9_linear_2_5586)"/>
</g>
<path d="M170.54 145.194C173.051 164.573 187.674 170.658 203.213 158.783C218.722 146.907 229.268 121.591 226.757 102.212C224.246 82.833 209.623 76.7475 194.084 88.623C178.575 100.498 168.029 125.815 170.54 145.194Z" fill="#251C72"/>
<path style="mix-blend-mode:lighten" opacity="0.5" d="M170.54 145.194C173.051 164.573 187.674 170.658 203.213 158.783C218.722 146.907 229.268 121.591 226.757 102.212C224.246 82.833 209.623 76.7475 194.084 88.623C178.575 100.498 168.029 125.815 170.54 145.194Z" fill="url(#paint10_radial_2_5586)"/>
<path d="M183.361 128.415C184.277 135.445 189.594 137.661 195.237 133.348C200.879 129.035 204.719 119.818 203.804 112.787C202.888 105.757 197.57 103.541 191.928 107.854C186.286 112.167 182.445 121.384 183.361 128.415Z" fill="#42E8E0"/>
<path d="M195.739 155.976C211.248 144.101 221.794 118.784 219.283 99.4055C218.249 91.5181 215.206 85.8167 210.923 82.6558C219.046 83.4239 225.191 90.3069 226.727 102.241C229.238 121.62 218.692 146.937 203.183 158.812C193.996 165.843 185.104 166.582 178.871 161.973C183.922 162.446 189.771 160.555 195.739 155.976Z" fill="#42E8E0"/>
<path d="M201.854 158.162C217.363 146.287 227.909 120.97 225.398 101.592C224.246 92.611 220.464 86.496 215.236 83.6896C221.173 86.1415 225.486 92.4929 226.757 102.212C229.268 121.591 218.721 146.907 203.212 158.783C194.882 165.164 186.817 166.345 180.732 163.066C186.64 165.489 194.143 164.071 201.883 158.133L201.854 158.162Z" fill="#42E8E0"/>
<path d="M37.4285 307.167C16.7573 307.167 1.52588e-05 290.41 1.52588e-05 269.739C1.52588e-05 249.067 16.7573 232.31 37.4285 232.31C58.0996 232.31 74.8568 249.067 74.8568 269.739C74.8568 290.41 58.0996 307.167 37.4285 307.167Z" fill="url(#paint11_radial_2_5586)"/>
<g style="mix-blend-mode:lighten">
<path d="M37.4285 307.167C16.7573 307.167 1.52588e-05 290.41 1.52588e-05 269.739C1.52588e-05 249.067 16.7573 232.31 37.4285 232.31C58.0996 232.31 74.8568 249.067 74.8568 269.739C74.8568 290.41 58.0996 307.167 37.4285 307.167Z" fill="url(#paint12_linear_2_5586)"/>
</g>
<path d="M1.47762 270.448C1.47762 280.994 8.89242 293.815 18.0206 299.102C27.1487 304.39 34.5635 300.107 34.5635 289.561C34.5635 279.015 27.1487 266.194 18.0206 260.906C8.89242 255.618 1.47762 259.902 1.47762 270.448Z" fill="#251C72"/>
<path style="mix-blend-mode:lighten" opacity="0.5" d="M1.47762 270.448C1.47762 280.994 8.89242 293.815 18.0206 299.102C27.1487 304.39 34.5635 300.107 34.5635 289.561C34.5635 279.015 27.1487 266.194 18.0206 260.906C8.89242 255.618 1.47762 259.902 1.47762 270.448Z" fill="url(#paint13_radial_2_5586)"/>
<path d="M10.2513 258.661C8.86286 260.67 8.03571 263.417 8.03571 266.903C8.03571 277.449 15.4505 290.27 24.5787 295.558C27.3851 297.182 30.0142 297.891 32.348 297.803C29.4825 301.879 24.1356 302.677 18.0206 299.132C8.89241 293.844 1.47761 281.023 1.47761 270.477C1.47761 263.181 5.02253 258.868 10.2513 258.69V258.661Z" fill="#42E8E0"/>
<path d="M56.6302 134.589L92.3156 155.179V113.969L56.6302 93.3494V134.589Z" fill="#251C72"/>
<path opacity="0.8" d="M61.9475 96.4217V131.694L92.3156 149.241V155.179L56.6302 134.589V93.3494L61.9475 96.4217Z" fill="url(#paint14_radial_2_5586)"/>
<path d="M85.521 125.224L88.7114 127.085V123.393L85.521 121.532V125.224Z" fill="#42E8E0"/>
<path d="M78.7266 116.569L81.9171 118.43V114.737L78.7266 112.876V116.569Z" fill="#42E8E0"/>
<path d="M71.9323 117.396L75.1227 119.227V115.535L71.9323 113.703V117.396Z" fill="#42E8E0"/>
<path d="M71.9323 127.085L75.1227 128.917V125.224L71.9323 123.393V127.085Z" fill="#42E8E0"/>
<path d="M76.0091 134.53L79.2291 136.361V132.669L76.0091 130.837V134.53Z" fill="#42E8E0"/>
<path d="M64.9314 123.038L68.1218 124.87V121.177L64.9314 119.346V123.038Z" fill="#42E8E0"/>
<path d="M27.857 123.718L23.9577 116.953L27.857 114.678L63.5721 135.298V176.507L59.6431 178.752L55.7437 171.988L27.857 155.917V123.718Z" fill="url(#paint15_linear_2_5586)"/>
<path d="M23.9577 158.162L59.6431 178.752V137.543L23.9577 116.953V158.162Z" fill="url(#paint16_linear_2_5586)"/>
<path style="mix-blend-mode:lighten" d="M23.9577 158.162L59.6431 178.752V137.543L23.9577 116.953V158.162Z" fill="url(#paint17_linear_2_5586)"/>
<path d="M11.7576 374.786C15.7161 387.932 36.956 413.455 50.1017 409.497C63.2474 405.538 63.3065 373.604 59.348 360.459C55.3895 347.313 41.5349 339.869 28.3892 343.827C15.2434 347.786 7.79909 361.64 11.7576 374.786Z" fill="url(#paint18_radial_2_5586)"/>
<g style="mix-blend-mode:lighten">
<path d="M11.7576 374.786C15.7161 387.932 36.956 413.455 50.1017 409.497C63.2474 405.538 63.3065 373.604 59.348 360.459C55.3895 347.313 41.5349 339.869 28.3892 343.827C15.2434 347.786 7.79909 361.64 11.7576 374.786Z" fill="url(#paint19_linear_2_5586)"/>
</g>
<path d="M37.0446 344.004C30.132 343.384 21.3288 347.49 17.3408 353.162C13.3527 358.834 15.716 363.915 22.6286 364.535C29.5412 365.156 38.3444 361.049 42.3325 355.378C46.3205 349.706 43.9572 344.625 37.0446 344.004Z" fill="#251C72"/>
<path style="mix-blend-mode:lighten" opacity="0.5" d="M37.0446 344.004C30.132 343.384 21.3288 347.49 17.3408 353.162C13.3527 358.834 15.716 363.915 22.6286 364.535C29.5412 365.156 38.3444 361.049 42.3325 355.378C46.3205 349.706 43.9572 344.625 37.0446 344.004Z" fill="url(#paint20_radial_2_5586)"/>
<path d="M44.2527 350.415C43.0415 349.381 41.2691 348.701 38.9944 348.495C32.0819 347.874 23.2786 351.98 19.2906 357.652C18.0794 359.395 17.4591 361.079 17.3704 362.615C14.8594 360.518 14.6527 356.973 17.3704 353.162C21.3585 347.49 30.1912 343.384 37.0743 344.004C41.8599 344.418 44.4595 347.017 44.2823 350.444L44.2527 350.415Z" fill="#42E8E0"/>
<g opacity="0.2">
<path d="M220.394 479.921C219.851 422.865 185.441 376.946 143.537 377.345C101.633 377.744 68.1043 424.311 68.6479 481.367C69.1916 538.423 103.323 555.176 145.228 554.777C187.132 554.378 220.938 536.954 220.394 479.921Z" fill="url(#paint21_radial_2_5586)"/>
<path d="M220.394 479.921C219.851 422.865 185.441 376.946 143.537 377.345C101.633 377.744 68.1043 424.311 68.6479 481.367C69.1916 538.423 103.323 555.176 145.228 554.777C187.132 554.378 220.938 536.954 220.394 479.921Z" fill="url(#paint22_linear_2_5586)"/>
</g>
</g>
<defs>
<radialGradient id="paint0_radial_2_5586" cx="0" cy="0" r="1" gradientUnits="userSpaceOnUse" gradientTransform="translate(277.064 239.815) rotate(163.24) scale(70.5733 70.5734)">
<stop stop-color="#C0BFF6"/>
<stop offset="1" stop-color="#393091"/>
</radialGradient>
<linearGradient id="paint1_linear_2_5586" x1="322.107" y1="274.131" x2="269.176" y2="243.023" gradientUnits="userSpaceOnUse">
<stop stop-color="#2FD3C7"/>
<stop offset="0.09" stop-color="#30B5BD"/>
<stop offset="0.23" stop-color="#338CAF"/>
<stop offset="0.37" stop-color="#356BA4"/>
<stop offset="0.52" stop-color="#36519C"/>
<stop offset="0.67" stop-color="#383E95"/>
<stop offset="0.83" stop-color="#383392"/>
<stop offset="1" stop-color="#393091"/>
</linearGradient>
<radialGradient id="paint2_radial_2_5586" cx="0" cy="0" r="1" gradientUnits="userSpaceOnUse" gradientTransform="translate(290.554 242.923) rotate(-84.89) scale(45.7885 45.7885)">
<stop stop-color="#42E8E0"/>
<stop offset="0.11" stop-color="#36B5BF"/>
<stop offset="0.22" stop-color="#2C87A0"/>
<stop offset="0.34" stop-color="#235F86"/>
<stop offset="0.46" stop-color="#1B3E71"/>
<stop offset="0.58" stop-color="#162560"/>
<stop offset="0.71" stop-color="#121355"/>
<stop offset="0.85" stop-color="#0F084E"/>
<stop offset="1" stop-color="#0F054C"/>
</radialGradient>
<radialGradient id="paint3_radial_2_5586" cx="0" cy="0" r="1" gradientUnits="userSpaceOnUse" gradientTransform="translate(54.5974 57.2894) rotate(168.8) scale(215.974)">
<stop stop-color="#C0BFF6"/>
<stop offset="1" stop-color="#393091"/>
</radialGradient>
<linearGradient id="paint4_linear_2_5586" x1="253.543" y1="208.363" x2="213.349" y2="145.247" gradientUnits="userSpaceOnUse">
<stop stop-color="#706EC4"/>
<stop offset="0.02" stop-color="#6D6BC1"/>
<stop offset="0.25" stop-color="#5651AC"/>
<stop offset="0.49" stop-color="#463E9D"/>
<stop offset="0.73" stop-color="#3C3393"/>
<stop offset="1" stop-color="#393091"/>
</linearGradient>
<radialGradient id="paint5_radial_2_5586" cx="0" cy="0" r="1" gradientUnits="userSpaceOnUse" gradientTransform="translate(2370.57 225.724) rotate(180) scale(166.432 226.177)">
<stop stop-color="#C0BFF6"/>
<stop offset="1" stop-color="#393091"/>
</radialGradient>
<linearGradient id="paint6_linear_2_5586" x1="138.177" y1="377.062" x2="138.177" y2="150.979" gradientUnits="userSpaceOnUse">
<stop stop-color="#2FD3C7"/>
<stop offset="0.09" stop-color="#30B5BD"/>
<stop offset="0.23" stop-color="#338CAF"/>
<stop offset="0.37" stop-color="#356BA4"/>
<stop offset="0.52" stop-color="#36519C"/>
<stop offset="0.67" stop-color="#383E95"/>
<stop offset="0.83" stop-color="#383392"/>
<stop offset="1" stop-color="#393091"/>
</linearGradient>
<radialGradient id="paint7_radial_2_5586" cx="0" cy="0" r="1" gradientUnits="userSpaceOnUse" gradientTransform="translate(146.199 225.959) rotate(180) scale(128.503)">
<stop stop-color="#42E8E0"/>
<stop offset="0.11" stop-color="#36B5BF"/>
<stop offset="0.22" stop-color="#2C87A0"/>
<stop offset="0.34" stop-color="#235F86"/>
<stop offset="0.46" stop-color="#1B3E71"/>
<stop offset="0.58" stop-color="#162560"/>
<stop offset="0.71" stop-color="#121355"/>
<stop offset="0.85" stop-color="#0F084E"/>
<stop offset="1" stop-color="#0F054C"/>
</radialGradient>
<radialGradient id="paint8_radial_2_5586" cx="0" cy="0" r="1" gradientUnits="userSpaceOnUse" gradientTransform="translate(78.3134 83.9259) rotate(180) scale(166.522 166.522)">
<stop stop-color="#C0BFF6"/>
<stop offset="1" stop-color="#393091"/>
</radialGradient>
<linearGradient id="paint9_linear_2_5586" x1="153.495" y1="196.122" x2="126.081" y2="0.945308" gradientUnits="userSpaceOnUse">
<stop stop-color="#2FD3C7"/>
<stop offset="0.09" stop-color="#30B5BD"/>
<stop offset="0.23" stop-color="#338CAF"/>
<stop offset="0.37" stop-color="#356BA4"/>
<stop offset="0.52" stop-color="#36519C"/>
<stop offset="0.67" stop-color="#383E95"/>
<stop offset="0.83" stop-color="#383392"/>
<stop offset="1" stop-color="#393091"/>
</linearGradient>
<radialGradient id="paint10_radial_2_5586" cx="0" cy="0" r="1" gradientUnits="userSpaceOnUse" gradientTransform="translate(170.481 107.618) rotate(180) scale(81.7989 81.7989)">
<stop stop-color="#42E8E0"/>
<stop offset="0.06" stop-color="#3BCBCD"/>
<stop offset="0.18" stop-color="#2F97AB"/>
<stop offset="0.3" stop-color="#256A8E"/>
<stop offset="0.42" stop-color="#1D4676"/>
<stop offset="0.54" stop-color="#172A64"/>
<stop offset="0.66" stop-color="#121657"/>
<stop offset="0.78" stop-color="#0F0A4F"/>
<stop offset="0.9" stop-color="#0F064D"/>
<stop offset="1" stop-color="#0F054C"/>
</radialGradient>
<radialGradient id="paint11_radial_2_5586" cx="0" cy="0" r="1" gradientUnits="userSpaceOnUse" gradientTransform="translate(15.2524 245.345) rotate(168.8) scale(78.0472)">
<stop stop-color="#C0BFF6"/>
<stop offset="1" stop-color="#393091"/>
</radialGradient>
<linearGradient id="paint12_linear_2_5586" x1="67.6869" y1="291.759" x2="7.14845" y2="247.763" gradientUnits="userSpaceOnUse">
<stop stop-color="#2FD3C7"/>
<stop offset="0.09" stop-color="#30B5BD"/>
<stop offset="0.23" stop-color="#338CAF"/>
<stop offset="0.37" stop-color="#356BA4"/>
<stop offset="0.52" stop-color="#36519C"/>
<stop offset="0.67" stop-color="#383E95"/>
<stop offset="0.83" stop-color="#383392"/>
<stop offset="1" stop-color="#393091"/>
</linearGradient>
<radialGradient id="paint13_radial_2_5586" cx="0" cy="0" r="1" gradientUnits="userSpaceOnUse" gradientTransform="translate(25.0218 274.111) rotate(180) scale(69.7168 69.7167)">
<stop stop-color="#42E8E0"/>
<stop offset="0.11" stop-color="#36B5BF"/>
<stop offset="0.22" stop-color="#2C87A0"/>
<stop offset="0.34" stop-color="#235F86"/>
<stop offset="0.46" stop-color="#1B3E71"/>
<stop offset="0.58" stop-color="#162560"/>
<stop offset="0.71" stop-color="#121355"/>
<stop offset="0.85" stop-color="#0F084E"/>
<stop offset="1" stop-color="#0F054C"/>
</radialGradient>
<radialGradient id="paint14_radial_2_5586" cx="0" cy="0" r="1" gradientUnits="userSpaceOnUse" gradientTransform="translate(81.1491 77.031) rotate(180) scale(65.699 84.0949)">
<stop stop-color="#2B237C"/>
<stop offset="0.31" stop-color="#251C72"/>
<stop offset="1" stop-color="#0F054C"/>
</radialGradient>
<linearGradient id="paint15_linear_2_5586" x1="29.4523" y1="142.387" x2="122.89" y2="170.776" gradientUnits="userSpaceOnUse">
<stop stop-color="#BCBEFF"/>
<stop offset="0.15" stop-color="#A2A6F5"/>
<stop offset="0.39" stop-color="#8188E8"/>
<stop offset="0.61" stop-color="#6A72DE"/>
<stop offset="0.82" stop-color="#5B65D8"/>
<stop offset="1" stop-color="#5761D7"/>
</linearGradient>
<linearGradient id="paint16_linear_2_5586" x1="45.6407" y1="148.296" x2="173.671" y2="163.568" gradientUnits="userSpaceOnUse">
<stop stop-color="#BCBEFF"/>
<stop offset="0.15" stop-color="#A2A6F5"/>
<stop offset="0.39" stop-color="#8188E8"/>
<stop offset="0.61" stop-color="#6A72DE"/>
<stop offset="0.82" stop-color="#5B65D8"/>
<stop offset="1" stop-color="#5761D7"/>
</linearGradient>
<linearGradient id="paint17_linear_2_5586" x1="64.8423" y1="185.931" x2="-1.86119" y2="75.5955" gradientUnits="userSpaceOnUse">
<stop stop-color="#42E8E0"/>
<stop offset="0.12" stop-color="#41E2DD"/>
<stop offset="0.27" stop-color="#40D2D6"/>
<stop offset="0.44" stop-color="#3FB8CB"/>
<stop offset="0.62" stop-color="#3D94BC"/>
<stop offset="0.81" stop-color="#3B65A8"/>
<stop offset="1" stop-color="#393091"/>
</linearGradient>
<radialGradient id="paint18_radial_2_5586" cx="0" cy="0" r="1" gradientUnits="userSpaceOnUse" gradientTransform="translate(20.0037 355.146) rotate(163.24) scale(70.5733 70.5734)">
<stop stop-color="#C0BFF6"/>
<stop offset="1" stop-color="#393091"/>
</radialGradient>
<linearGradient id="paint19_linear_2_5586" x1="65.0831" y1="389.483" x2="12.1241" y2="358.383" gradientUnits="userSpaceOnUse">
<stop stop-color="#2FD3C7"/>
<stop offset="0.09" stop-color="#30B5BD"/>
<stop offset="0.23" stop-color="#338CAF"/>
<stop offset="0.37" stop-color="#356BA4"/>
<stop offset="0.52" stop-color="#36519C"/>
<stop offset="0.67" stop-color="#383E95"/>
<stop offset="0.83" stop-color="#383392"/>
<stop offset="1" stop-color="#393091"/>
</linearGradient>
<radialGradient id="paint20_radial_2_5586" cx="0" cy="0" r="1" gradientUnits="userSpaceOnUse" gradientTransform="translate(33.4811 358.234) rotate(-84.89) scale(45.7885 45.7886)">
<stop stop-color="#42E8E0"/>
<stop offset="0.11" stop-color="#36B5BF"/>
<stop offset="0.22" stop-color="#2C87A0"/>
<stop offset="0.34" stop-color="#235F86"/>
<stop offset="0.46" stop-color="#1B3E71"/>
<stop offset="0.58" stop-color="#162560"/>
<stop offset="0.71" stop-color="#121355"/>
<stop offset="0.85" stop-color="#0F084E"/>
<stop offset="1" stop-color="#0F054C"/>
</radialGradient>
<radialGradient id="paint21_radial_2_5586" cx="0" cy="0" r="1" gradientUnits="userSpaceOnUse" gradientTransform="translate(193.817 493.862) rotate(-0.545929) scale(130.729 177.658)">
<stop stop-color="#C0BFF6"/>
<stop offset="1" stop-color="#393091"/>
</radialGradient>
<linearGradient id="paint22_linear_2_5586" x1="171.825" y1="479.537" x2="165.925" y2="377.132" gradientUnits="userSpaceOnUse">
<stop stop-color="#0C0C24"/>
<stop offset="1" stop-color="#020615" stop-opacity="0"/>
</linearGradient>
</defs>
</svg>
