<svg width="16" height="17" viewBox="0 0 16 17" fill="none" xmlns="http://www.w3.org/2000/svg">
<path fill-rule="evenodd" clip-rule="evenodd" d="M7.99986 1.13928C8.2536 1.13928 8.48535 1.28333 8.59766 1.51087L10.5027 5.37026L14.7629 5.99296C15.014 6.02965 15.2224 6.20566 15.3007 6.44699C15.3789 6.68833 15.3134 6.95317 15.1317 7.13019L12.0495 10.1322L12.7769 14.3733C12.8198 14.6234 12.717 14.8762 12.5117 15.0253C12.3064 15.1745 12.0342 15.1941 11.8096 15.076L7.99986 13.0725L4.19016 15.076C3.96555 15.1941 3.69335 15.1745 3.48803 15.0253C3.28272 14.8762 3.17989 14.6234 3.22278 14.3733L3.95018 10.1322L0.868035 7.13019C0.686289 6.95317 0.620774 6.68833 0.699026 6.44699C0.777278 6.20566 0.985731 6.02965 1.23677 5.99296L5.49701 5.37026L7.40205 1.51087C7.51437 1.28333 7.74611 1.13928 7.99986 1.13928ZM7.99986 3.31212L6.53766 6.27437C6.44064 6.47093 6.25318 6.60724 6.03627 6.63894L2.76546 7.11702L5.13168 9.42171C5.28893 9.57487 5.3607 9.79562 5.3236 10.012L4.76531 13.2671L7.68956 11.7292C7.88381 11.6271 8.1159 11.6271 8.31016 11.7292L11.2344 13.2671L10.6761 10.012C10.639 9.79562 10.7108 9.57487 10.868 9.42171L13.2342 7.11702L9.96344 6.63894C9.74653 6.60724 9.55908 6.47093 9.46205 6.27437L7.99986 3.31212Z" fill="#FFE944"/>
<path d="M6.53766 6.27437L7.99986 3.31212L9.46205 6.27437C9.55908 6.47093 9.74653 6.60724 9.96344 6.63894L13.2342 7.11702L10.868 9.42171C10.7108 9.57487 10.639 9.79562 10.6761 10.012L11.2344 13.2671L8.31016 11.7292C8.1159 11.6271 7.88381 11.6271 7.68956 11.7292L4.76531 13.2671L5.3236 10.012C5.3607 9.79562 5.28893 9.57487 5.13168 9.42171L2.76546 7.11702L6.03627 6.63894C6.25318 6.60724 6.44064 6.47093 6.53766 6.27437Z" fill="#FFE944"/>
</svg>
