<svg width="10" height="14" viewBox="0 0 10 14" fill="none" xmlns="http://www.w3.org/2000/svg">
<path d="M5.01678 0.52002H4.99998C3.8555 0.52002 2.77758 0.96642 1.96286 1.7781C1.14414 2.5941 0.693423 3.67618 0.693423 4.82674C0.692758 5.45975 0.831982 6.08509 1.10114 6.65804C1.37029 7.23098 1.76273 7.73737 2.25038 8.14098C2.53504 8.37633 2.76418 8.67167 2.92143 9.00588C3.07867 9.34009 3.16013 9.70491 3.15998 10.0743C3.16019 10.1417 3.18715 10.2063 3.23494 10.2539C3.28272 10.3014 3.34743 10.3281 3.41486 10.328H6.5851C6.65253 10.3281 6.71724 10.3014 6.76503 10.2539C6.81281 10.2063 6.83977 10.1417 6.83998 10.0743V10.057C6.83998 9.31906 7.1707 8.62146 7.7475 8.14322C8.23598 7.73963 8.62913 7.23297 8.89878 6.65957C9.16843 6.08617 9.30789 5.46022 9.30718 4.82658C9.30654 2.46114 7.38222 0.52914 5.01678 0.52002ZM7.48942 3.72578L4.46078 6.76258C4.34993 6.87346 4.19961 6.93583 4.04282 6.93601C3.88603 6.93619 3.73558 6.87416 3.62446 6.76354L2.51134 5.6533C2.40933 5.5408 2.35445 5.39339 2.35805 5.24157C2.36166 5.08974 2.42348 4.94511 2.53072 4.83758C2.63796 4.73005 2.78243 4.66785 2.93424 4.66383C3.08606 4.65982 3.23361 4.7143 3.34638 4.81602L4.04094 5.50882L6.65214 2.89058C6.70594 2.83117 6.77124 2.78331 6.84409 2.74989C6.91694 2.71647 6.99581 2.69819 7.07593 2.69616C7.15605 2.69413 7.23575 2.70839 7.31019 2.73807C7.38464 2.76775 7.45229 2.81224 7.50903 2.86884C7.56577 2.92544 7.61043 2.99298 7.6403 3.06735C7.67016 3.14172 7.68462 3.22139 7.68279 3.30151C7.68095 3.38164 7.66287 3.46055 7.62963 3.53348C7.59639 3.60641 7.5487 3.67183 7.48942 3.72578ZM6.8155 10.9957C6.81538 11.0878 6.77874 11.1761 6.71362 11.2412C6.64851 11.3063 6.56023 11.3429 6.46814 11.3431H3.53182C3.48559 11.3441 3.43962 11.3358 3.39662 11.3188C3.35362 11.3018 3.31445 11.2764 3.2814 11.244C3.24835 11.2117 3.22209 11.1731 3.20417 11.1304C3.18624 11.0878 3.17701 11.042 3.17701 10.9958C3.17701 10.9495 3.18624 10.9038 3.20417 10.8611C3.22209 10.8185 3.24835 10.7799 3.2814 10.7475C3.31445 10.7152 3.35362 10.6898 3.39662 10.6728C3.43962 10.6558 3.48559 10.6475 3.53182 10.6485H6.46814C6.56022 10.6486 6.64849 10.6852 6.71361 10.7503C6.77873 10.8154 6.81538 10.9036 6.8155 10.9957ZM6.56702 12.0103C6.5669 12.1023 6.53026 12.1906 6.46514 12.2557C6.40003 12.3209 6.31175 12.3575 6.21966 12.3576H3.7803C3.73407 12.3586 3.6881 12.3504 3.6451 12.3334C3.6021 12.3163 3.56293 12.2909 3.52988 12.2586C3.49683 12.2262 3.47057 12.1876 3.45265 12.145C3.43472 12.1024 3.42549 12.0566 3.42549 12.0103C3.42549 11.9641 3.43472 11.9183 3.45265 11.8757C3.47057 11.8331 3.49683 11.7944 3.52988 11.7621C3.56293 11.7298 3.6021 11.7043 3.6451 11.6873C3.6881 11.6703 3.73407 11.6621 3.7803 11.6631H6.21966C6.31173 11.6631 6.40001 11.6997 6.46513 11.7648C6.53025 11.8299 6.5669 11.9182 6.56702 12.0103ZM4.16126 12.6776L4.16606 12.7051C4.24462 13.1541 4.59534 13.48 4.99998 13.48C5.40462 13.48 5.75534 13.1541 5.8339 12.7051L5.8387 12.6776H4.16126Z" fill="white"/>
</svg>
