<svg width="22" height="21" viewBox="0 0 22 21" fill="none" xmlns="http://www.w3.org/2000/svg">
<g clip-path="url(#clip0_264_2247)">
<path d="M21.5 4.64501C20.7101 4.98954 19.8746 5.21852 19.0194 5.32488C19.9206 4.79021 20.5945 3.94356 20.9133 2.94532C20.0694 3.44582 19.1461 3.79828 18.1833 3.98745C17.593 3.35716 16.8268 2.91896 15.9842 2.7298C15.1416 2.54064 14.2616 2.60925 13.4585 2.92671C12.6555 3.24418 11.9664 3.79583 11.4809 4.51C10.9954 5.22416 10.736 6.06783 10.7362 6.93138C10.7362 7.27263 10.7651 7.60076 10.8359 7.91313C9.12323 7.82916 7.44753 7.38465 5.9184 6.60866C4.38926 5.83267 3.04112 4.74268 1.96212 3.40995C1.40933 4.35738 1.23842 5.4799 1.48422 6.54892C1.73002 7.61795 2.37403 8.55309 3.28513 9.16395C2.60362 9.14567 1.9365 8.96381 1.34 8.6337V8.68094C1.34114 9.67507 1.68475 10.6385 2.31298 11.4089C2.94121 12.1794 3.8157 12.7099 4.78925 12.9111C4.42094 13.0082 4.04137 13.0559 3.6605 13.0529C3.38696 13.0577 3.11369 13.0331 2.84544 12.9794C3.12361 13.8339 3.65983 14.5811 4.38027 15.1182C5.1007 15.6553 5.96992 15.9558 6.86825 15.9784C5.34436 17.1702 3.4649 17.8168 1.53031 17.8146C1.17725 17.8146 0.838625 17.7989 0.5 17.7556C2.4686 19.0242 4.76257 19.6952 7.1045 19.6876C15.0267 19.6876 19.358 13.1251 19.358 7.43669C19.358 7.24638 19.3514 7.06263 19.3423 6.8802C20.1914 6.27249 20.9226 5.51504 21.5 4.64501Z" fill="#03A9F4"/>
</g>
<defs>
<clipPath id="clip0_264_2247">
<rect width="21" height="21" fill="white" transform="translate(0.5)"/>
</clipPath>
</defs>
</svg>
