<svg width="25" height="21" viewBox="0 0 25 21" fill="none" xmlns="http://www.w3.org/2000/svg">
<path d="M25 2.50238C24.0596 2.91254 23.065 3.18513 22.0469 3.31176C23.1198 2.67524 23.922 1.66732 24.3016 0.478943C23.2969 1.07478 22.1977 1.49437 21.0516 1.71957C20.3488 0.969223 19.4367 0.447566 18.4336 0.222372C17.4305 -0.00282259 16.3829 0.078855 15.4268 0.456793C14.4708 0.834731 13.6505 1.49146 13.0725 2.34166C12.4946 3.19185 12.1857 4.19621 12.1859 5.22426C12.1859 5.63051 12.2203 6.02113 12.3047 6.39301C10.2658 6.29304 8.27087 5.76386 6.45047 4.84006C4.63007 3.91627 3.02515 2.61866 1.74062 1.03207C1.08253 2.15997 0.879077 3.4963 1.17169 4.76895C1.46431 6.0416 2.23099 7.15487 3.31562 7.88207C2.50431 7.86031 1.71012 7.64381 1 7.25082V7.30707C1.00136 8.49055 1.41041 9.63744 2.15831 10.5547C2.9062 11.4719 3.94726 12.1034 5.10625 12.343C4.66779 12.4586 4.21592 12.5153 3.7625 12.5118C3.43686 12.5175 3.11154 12.4882 2.79219 12.4243C3.12335 13.4415 3.7617 14.331 4.61937 14.9704C5.47703 15.6098 6.51182 15.9676 7.58125 15.9946C5.76709 17.4134 3.52965 18.183 1.22656 18.1805C0.80625 18.1805 0.403125 18.1618 0 18.1102C2.34357 19.6204 5.07449 20.4193 7.8625 20.4102C17.2937 20.4102 22.45 12.5977 22.45 5.82582C22.45 5.59926 22.4422 5.38051 22.4312 5.16332C23.4421 4.43986 24.3126 3.53813 25 2.50238Z" fill="#03A9F4"/>
</svg>
