<svg width="27" height="27" viewBox="0 0 27 27" fill="none" xmlns="http://www.w3.org/2000/svg">
<path d="M26.7073 25.2925L20.4485 19.035C22.2626 16.8572 23.1672 14.0638 22.9741 11.236C22.781 8.40814 21.5052 5.76361 19.412 3.85251C17.3188 1.9414 14.5694 0.910859 11.7357 0.975258C8.90201 1.03966 6.20225 2.19404 4.19802 4.19827C2.1938 6.20249 1.03941 8.90225 0.975014 11.7359C0.910614 14.5696 1.94116 17.319 3.85226 19.4122C5.76337 21.5054 8.40789 22.7813 11.2357 22.9743C14.0635 23.1674 16.8569 22.2628 19.0348 20.4488L25.2923 26.7075C25.3852 26.8005 25.4955 26.8742 25.6169 26.9244C25.7383 26.9747 25.8684 27.0006 25.9998 27.0006C26.1312 27.0006 26.2613 26.9747 26.3827 26.9244C26.5041 26.8742 26.6144 26.8005 26.7073 26.7075C26.8002 26.6146 26.8739 26.5043 26.9242 26.3829C26.9745 26.2615 27.0004 26.1314 27.0004 26C27.0004 25.8686 26.9745 25.7385 26.9242 25.6171C26.8739 25.4958 26.8002 25.3855 26.7073 25.2925ZM2.9998 12C2.9998 10.22 3.52764 8.47995 4.51657 6.99991C5.5055 5.51987 6.91111 4.36631 8.55565 3.68513C10.2002 3.00394 12.0098 2.82571 13.7556 3.17297C15.5014 3.52024 17.1051 4.37741 18.3638 5.63608C19.6224 6.89475 20.4796 8.4984 20.8269 10.2442C21.1741 11.9901 20.9959 13.7997 20.3147 15.4442C19.6335 17.0887 18.48 18.4943 16.9999 19.4833C15.5199 20.4722 13.7798 21 11.9998 21C9.61366 20.9974 7.32601 20.0483 5.63876 18.3611C3.95151 16.6738 3.00244 14.3862 2.9998 12Z" fill="white"/>
</svg>
