<svg width="24" height="24" viewBox="0 0 24 24" fill="none" xmlns="http://www.w3.org/2000/svg">
<path d="M10.5443 12.4567L11.3755 13.6227L10.5282 14.5507L2.16019 23.7256H0.211426L9.69703 13.3806L10.5443 12.4567Z" fill="white"/>
<path d="M23.7983 0L14.3773 10.3329L13.53 11.2609L12.7109 10.0989L13.5623 9.17089L21.9666 0H23.7983Z" fill="white"/>
<path d="M14.3773 10.3323L13.5583 9.17432L7.08254 0.00341797H0.211426L9.693 13.3866L10.5241 14.5566L17.1855 23.9575H24.0001L14.3773 10.3323ZM11.3714 13.6286L10.5443 12.4626L2.58787 1.23401H6.44909L12.711 10.1023L13.53 11.2643L21.6277 22.731H17.8229L11.3755 13.6286H11.3714Z" fill="white"/>
</svg>
