<svg width="17" height="18" viewBox="0 0 17 18" fill="none" xmlns="http://www.w3.org/2000/svg">
<path d="M12.8116 2.82C12.128 2.03962 11.7513 1.03743 11.7516 0H8.66158V12.4C8.63775 13.071 8.35445 13.7066 7.87135 14.1729C7.38824 14.6393 6.74303 14.8999 6.07158 14.9C4.65158 14.9 3.47158 13.74 3.47158 12.3C3.47158 10.58 5.13158 9.29 6.84158 9.82V6.66C3.39158 6.2 0.371582 8.88 0.371582 12.3C0.371582 15.63 3.13158 18 6.06158 18C9.20158 18 11.7516 15.45 11.7516 12.3V6.01C13.0046 6.90985 14.5089 7.39265 16.0516 7.39V4.3C16.0516 4.3 14.1716 4.39 12.8116 2.82Z" fill="white"/>
</svg>
