<svg width="21" height="20" viewBox="0 0 21 20" fill="none" xmlns="http://www.w3.org/2000/svg">
<path d="M6.01143 0H14.4114C17.6114 0 20.2114 2.6 20.2114 5.8V14.2C20.2114 15.7383 19.6004 17.2135 18.5126 18.3012C17.4249 19.3889 15.9497 20 14.4114 20H6.01143C2.81143 20 0.211426 17.4 0.211426 14.2V5.8C0.211426 4.26174 0.822496 2.78649 1.91021 1.69878C2.99792 0.61107 4.47317 0 6.01143 0ZM5.81143 2C4.85665 2 3.94097 2.37928 3.26584 3.05442C2.59071 3.72955 2.21143 4.64522 2.21143 5.6V14.4C2.21143 16.39 3.82143 18 5.81143 18H14.6114C15.5662 18 16.4819 17.6207 17.157 16.9456C17.8321 16.2705 18.2114 15.3548 18.2114 14.4V5.6C18.2114 3.61 16.6014 2 14.6114 2H5.81143ZM15.4614 3.5C15.7929 3.5 16.1109 3.6317 16.3453 3.86612C16.5797 4.10054 16.7114 4.41848 16.7114 4.75C16.7114 5.08152 16.5797 5.39946 16.3453 5.63388C16.1109 5.8683 15.7929 6 15.4614 6C15.1299 6 14.812 5.8683 14.5775 5.63388C14.3431 5.39946 14.2114 5.08152 14.2114 4.75C14.2114 4.41848 14.3431 4.10054 14.5775 3.86612C14.812 3.6317 15.1299 3.5 15.4614 3.5ZM10.2114 5C11.5375 5 12.8093 5.52678 13.747 6.46447C14.6846 7.40215 15.2114 8.67392 15.2114 10C15.2114 11.3261 14.6846 12.5979 13.747 13.5355C12.8093 14.4732 11.5375 15 10.2114 15C8.88534 15 7.61357 14.4732 6.67589 13.5355C5.73821 12.5979 5.21143 11.3261 5.21143 10C5.21143 8.67392 5.73821 7.40215 6.67589 6.46447C7.61357 5.52678 8.88534 5 10.2114 5ZM10.2114 7C9.41578 7 8.65271 7.31607 8.09011 7.87868C7.5275 8.44129 7.21143 9.20435 7.21143 10C7.21143 10.7956 7.5275 11.5587 8.09011 12.1213C8.65271 12.6839 9.41578 13 10.2114 13C11.0071 13 11.7701 12.6839 12.3327 12.1213C12.8954 11.5587 13.2114 10.7956 13.2114 10C13.2114 9.20435 12.8954 8.44129 12.3327 7.87868C11.7701 7.31607 11.0071 7 10.2114 7Z" fill="white"/>
</svg>
