<svg width="20" height="18" viewBox="0 0 20 18" fill="none" xmlns="http://www.w3.org/2000/svg">
<path d="M3.99999 6.84375V0.75C3.99999 0.551088 3.92097 0.360322 3.78032 0.21967C3.63967 0.0790178 3.4489 0 3.24999 0C3.05108 0 2.86031 0.0790178 2.71966 0.21967C2.57901 0.360322 2.49999 0.551088 2.49999 0.75V6.84375C1.85468 7.00898 1.28271 7.38428 0.874263 7.91048C0.465812 8.43669 0.24411 9.08387 0.24411 9.75C0.24411 10.4161 0.465812 11.0633 0.874263 11.5895C1.28271 12.1157 1.85468 12.491 2.49999 12.6562V17.25C2.49999 17.4489 2.57901 17.6397 2.71966 17.7803C2.86031 17.921 3.05108 18 3.24999 18C3.4489 18 3.63967 17.921 3.78032 17.7803C3.92097 17.6397 3.99999 17.4489 3.99999 17.25V12.6562C4.6453 12.491 5.21727 12.1157 5.62572 11.5895C6.03417 11.0633 6.25587 10.4161 6.25587 9.75C6.25587 9.08387 6.03417 8.43669 5.62572 7.91048C5.21727 7.38428 4.6453 7.00898 3.99999 6.84375ZM3.24999 11.25C2.95332 11.25 2.66331 11.162 2.41664 10.9972C2.16996 10.8324 1.9777 10.5981 1.86417 10.324C1.75064 10.0499 1.72094 9.74834 1.77881 9.45737C1.83669 9.16639 1.97955 8.89912 2.18933 8.68934C2.39911 8.47956 2.66639 8.3367 2.95736 8.27882C3.24833 8.22094 3.54993 8.25065 3.82402 8.36418C4.09811 8.47771 4.33237 8.66997 4.4972 8.91665C4.66202 9.16332 4.74999 9.45333 4.74999 9.75C4.74999 10.1478 4.59196 10.5294 4.31065 10.8107C4.02935 11.092 3.64782 11.25 3.24999 11.25ZM10.75 2.34375V0.75C10.75 0.551088 10.671 0.360322 10.5303 0.21967C10.3897 0.0790178 10.1989 0 9.99999 0C9.80108 0 9.61031 0.0790178 9.46966 0.21967C9.32901 0.360322 9.24999 0.551088 9.24999 0.75V2.34375C8.60468 2.50898 8.03271 2.88428 7.62426 3.41048C7.21581 3.93669 6.99411 4.58387 6.99411 5.25C6.99411 5.91613 7.21581 6.56331 7.62426 7.08952C8.03271 7.61572 8.60468 7.99102 9.24999 8.15625V17.25C9.24999 17.4489 9.32901 17.6397 9.46966 17.7803C9.61031 17.921 9.80108 18 9.99999 18C10.1989 18 10.3897 17.921 10.5303 17.7803C10.671 17.6397 10.75 17.4489 10.75 17.25V8.15625C11.3953 7.99102 11.9673 7.61572 12.3757 7.08952C12.7842 6.56331 13.0059 5.91613 13.0059 5.25C13.0059 4.58387 12.7842 3.93669 12.3757 3.41048C11.9673 2.88428 11.3953 2.50898 10.75 2.34375ZM9.99999 6.75C9.70332 6.75 9.41331 6.66203 9.16664 6.4972C8.91996 6.33238 8.7277 6.09811 8.61417 5.82403C8.50064 5.54994 8.47094 5.24834 8.52881 4.95736C8.58669 4.66639 8.72955 4.39912 8.93933 4.18934C9.14911 3.97956 9.41639 3.8367 9.70736 3.77882C9.99833 3.72094 10.2999 3.75065 10.574 3.86418C10.8481 3.97771 11.0824 4.16997 11.2472 4.41665C11.412 4.66332 11.5 4.95333 11.5 5.25C11.5 5.64782 11.342 6.02936 11.0607 6.31066C10.7793 6.59196 10.3978 6.75 9.99999 6.75ZM19.75 12.75C19.7494 12.0849 19.5281 11.4388 19.121 10.9129C18.7138 10.387 18.1437 10.011 17.5 9.84375V0.75C17.5 0.551088 17.421 0.360322 17.2803 0.21967C17.1397 0.0790178 16.9489 0 16.75 0C16.5511 0 16.3603 0.0790178 16.2197 0.21967C16.079 0.360322 16 0.551088 16 0.75V9.84375C15.3547 10.009 14.7827 10.3843 14.3743 10.9105C13.9658 11.4367 13.7441 12.0839 13.7441 12.75C13.7441 13.4161 13.9658 14.0633 14.3743 14.5895C14.7827 15.1157 15.3547 15.491 16 15.6562V17.25C16 17.4489 16.079 17.6397 16.2197 17.7803C16.3603 17.921 16.5511 18 16.75 18C16.9489 18 17.1397 17.921 17.2803 17.7803C17.421 17.6397 17.5 17.4489 17.5 17.25V15.6562C18.1437 15.489 18.7138 15.113 19.121 14.5871C19.5281 14.0612 19.7494 13.4151 19.75 12.75ZM16.75 14.25C16.4533 14.25 16.1633 14.162 15.9166 13.9972C15.67 13.8324 15.4777 13.5981 15.3642 13.324C15.2506 13.0499 15.2209 12.7483 15.2788 12.4574C15.3367 12.1664 15.4796 11.8991 15.6893 11.6893C15.8991 11.4796 16.1664 11.3367 16.4574 11.2788C16.7483 11.2209 17.0499 11.2506 17.324 11.3642C17.5981 11.4777 17.8324 11.67 17.9972 11.9166C18.162 12.1633 18.25 12.4533 18.25 12.75C18.25 13.1478 18.092 13.5294 17.8107 13.8107C17.5293 14.092 17.1478 14.25 16.75 14.25Z" fill="#F2F3F6"/>
</svg>
