<svg width="18" height="18" viewBox="0 0 18 18" fill="none" xmlns="http://www.w3.org/2000/svg">
<path d="M17.0785 0.920875C16.7866 0.628927 16.4401 0.397336 16.0587 0.239331C15.6773 0.0813252 15.2685 0 14.8557 0C14.4429 0 14.0341 0.0813252 13.6527 0.239331C13.2713 0.397336 12.9248 0.628927 12.6329 0.920875L1.51552 12.0402C1.19132 12.3642 0.967623 12.775 0.871354 13.2231L0.014388 17.2219C-0.00821144 17.3269 -0.00413523 17.4359 0.0262442 17.5389C0.0566237 17.642 0.112338 17.7357 0.188297 17.8117C0.264255 17.8877 0.358037 17.9434 0.461074 17.9738C0.564111 18.0041 0.673118 18.0082 0.778135 17.9856L4.77688 17.1286C5.22501 17.0324 5.63578 16.8087 5.95979 16.4845L17.0785 5.36578C17.6677 4.77626 17.9988 3.97685 17.9988 3.14333C17.9988 2.3098 17.6677 1.51039 17.0785 0.920875ZM13.5426 1.82991C13.8941 1.49748 14.3615 1.31528 14.8452 1.32206C15.329 1.32884 15.7911 1.52406 16.1331 1.86622C16.4752 2.20837 16.6703 2.67046 16.677 3.15424C16.6836 3.63801 16.5013 4.1053 16.1688 4.45674L15.5902 5.03534L12.9634 2.40915L13.5426 1.82991ZM12.0537 3.31819L14.6805 5.94502L5.05139 15.5761C4.90239 15.725 4.71352 15.8277 4.50751 15.8718L1.47888 16.5211L2.12819 13.4931C2.17229 13.2871 2.27498 13.0983 2.42392 12.9493L12.0537 3.31819Z" fill="#F7F9FB"/>
</svg>
