<svg width="24" height="24" viewBox="0 0 24 24" fill="none" xmlns="http://www.w3.org/2000/svg">
<path d="M9 5.25C8.58579 5.25 8.25 5.58579 8.25 6C8.25 6.41421 8.58579 6.75 9 6.75H15C16.2426 6.75 17.25 7.75736 17.25 9V14.625C17.25 15.0392 17.5858 15.375 18 15.375C18.4142 15.375 18.75 15.0392 18.75 14.625V9C18.75 6.92893 17.0711 5.25 15 5.25H9Z" fill="#F7F9FB"/>
<path fill-rule="evenodd" clip-rule="evenodd" d="M5.25 9.75C5.25 8.92157 5.92157 8.25 6.75 8.25H14.25C15.0784 8.25 15.75 8.92157 15.75 9.75V17.25C15.75 18.0784 15.0784 18.75 14.25 18.75H6.75C5.92157 18.75 5.25 18.0784 5.25 17.25V9.75ZM6.75 9.75H14.25V17.25H6.75L6.75 9.75Z" fill="#F7F9FB"/>
</svg>
