<svg width="36" height="35" viewBox="0 0 36 35" fill="none" xmlns="http://www.w3.org/2000/svg">
<rect x="0.350098" width="35" height="35" rx="5" fill="url(#paint0_linear_275_5600)"/>
<path d="M16.6196 21.7656H19.0806V28H16.6196V21.7656ZM16.1549 16.3328C16.6414 16.6553 17.224 16.8438 17.8501 16.8438C19.5463 16.8438 20.9263 15.4638 20.9263 13.7676C20.9263 13.1415 20.7378 12.5588 20.4153 12.0724L16.1549 16.3328ZM19.5453 11.2024C19.0588 10.8798 18.4762 10.6914 17.8501 10.6914C16.1539 10.6914 14.7739 12.0714 14.7739 13.7676C14.7739 14.3936 14.9624 14.9763 15.2849 15.4628L19.5453 11.2024Z" fill="white"/>
<path d="M24.4634 20.5352C25.5679 20.5352 26.4634 19.6397 26.4634 18.5352V9C26.4634 7.89543 25.5679 7 24.4634 7H11.2368C10.1322 7 9.23682 7.89543 9.23682 9V18.5352C9.23682 19.6397 10.1322 20.5352 11.2368 20.5352H24.4634ZM22.1567 13.7676C22.1567 16.1423 20.2248 18.0742 17.8501 18.0742C15.4754 18.0742 13.5435 16.1423 13.5435 13.7676C13.5435 11.3929 15.4754 9.46094 17.8501 9.46094C20.2248 9.46094 22.1567 11.3929 22.1567 13.7676Z" fill="white"/>
<defs>
<linearGradient id="paint0_linear_275_5600" x1="0.350098" y1="10.9746" x2="36.0461" y2="11.1632" gradientUnits="userSpaceOnUse">
<stop stop-color="#9C3FE4"/>
<stop offset="1" stop-color="#C65647"/>
</linearGradient>
</defs>
</svg>
