<svg width="36" height="35" viewBox="0 0 36 35" fill="none" xmlns="http://www.w3.org/2000/svg">
<rect x="0.350098" width="35" height="35" rx="5" fill="url(#paint0_linear_2_10800)"/>
<path d="M13.5129 15.7566L14.3089 18.4867H12.7164L13.5129 15.7566Z" fill="white"/>
<path d="M17.8499 14.25C18.1735 14.25 18.4359 13.9877 18.4359 13.6641C18.4359 13.3405 18.1735 13.0781 17.8499 13.0781C17.5263 13.0781 17.264 13.3405 17.264 13.6641C17.264 13.9877 17.5263 14.25 17.8499 14.25Z" fill="white"/>
<path d="M22.187 15.7566L22.9834 18.4867H21.3909L22.187 15.7566Z" fill="white"/>
<path d="M27.4691 11.5528L18.0551 8.03721C17.9229 7.9876 17.7772 7.9876 17.645 8.03721L8.23097 11.5528C8.00597 11.6348 7.84855 11.8622 7.85011 12.1016C7.85011 15.3989 8.36026 18.2832 9.3669 20.6746C10.1825 22.6125 11.3231 24.2324 12.7567 25.4902C15.2165 27.6476 17.6727 27.982 17.7758 27.9953C17.7793 27.9957 17.7825 27.9957 17.786 27.9961C17.7918 27.9969 17.7977 27.9976 17.804 27.998C17.818 27.9992 17.8321 27.9996 17.8461 28H17.854C17.868 27.9996 17.8821 27.9992 17.8961 27.998C17.902 27.9976 17.9079 27.9969 17.9137 27.9961C17.9172 27.9957 17.9208 27.9957 17.9243 27.9953C18.0274 27.982 20.4836 27.6476 22.9434 25.4902C24.377 24.2324 25.5176 22.6125 26.3332 20.6746C27.3398 18.2832 27.85 15.3989 27.85 12.1016C27.8516 11.8622 27.6941 11.6348 27.4691 11.5528ZM24.2336 19.4242C24.1227 19.5719 23.9492 19.6586 23.7649 19.6586H20.6098C20.425 19.6586 20.2516 19.5719 20.1411 19.4242C20.0864 19.3515 20.0494 19.2671 20.0331 19.1775C20.0168 19.088 20.0217 18.9959 20.0473 18.9086L21.4059 14.2501H19.5071C19.3301 14.7485 18.9344 15.1442 18.436 15.3211V22.1406H20.2907C20.6141 22.1406 20.8766 22.4031 20.8766 22.7266C20.8766 23.05 20.6141 23.3125 20.2907 23.3125H15.4094C15.086 23.3125 14.8235 23.05 14.8235 22.7266C14.8235 22.4031 15.086 22.1406 15.4094 22.1406H17.2641V15.3211C16.7657 15.1442 16.37 14.7485 16.193 14.2501H14.2942L15.6528 18.9086C15.7048 19.0856 15.67 19.2766 15.559 19.4242C15.4485 19.5719 15.2751 19.6586 15.0903 19.6586H11.9352C11.7509 19.6586 11.5774 19.5719 11.4665 19.4242C11.4119 19.3515 11.3751 19.267 11.3589 19.1775C11.3427 19.088 11.3476 18.9959 11.3731 18.9086L12.9505 13.5001C13.0193 13.2549 13.2584 13.0755 13.513 13.0782H16.193C16.4348 12.3962 17.0864 11.9063 17.8501 11.9063C18.6137 11.9063 19.2653 12.3962 19.5071 13.0782H22.1871C22.4417 13.0755 22.6808 13.2549 22.7496 13.5001L24.327 18.9086C24.3789 19.0856 24.3442 19.2766 24.2336 19.4242Z" fill="white"/>
<defs>
<linearGradient id="paint0_linear_2_10800" x1="0.350098" y1="10.9746" x2="36.0461" y2="11.1632" gradientUnits="userSpaceOnUse">
<stop stop-color="#9C3FE4"/>
<stop offset="1" stop-color="#C65647"/>
</linearGradient>
</defs>
</svg>
