<svg width="36" height="35" viewBox="0 0 36 35" fill="none" xmlns="http://www.w3.org/2000/svg">
<rect x="0.350098" width="35" height="35" rx="5" fill="url(#paint0_linear_275_5565)"/>
<g clip-path="url(#clip0_275_5565)">
<path d="M19.4227 22.5546H8.92696C8.05648 22.5546 7.3501 23.2609 7.3501 24.1315V26.9988H20.9995V24.1315C20.9995 23.2609 20.2932 22.5546 19.4227 22.5546ZM28.0671 22.777L18.4862 13.1961L20.3368 11.3489C20.6419 11.6179 21.1111 11.6048 21.3999 11.316C21.5449 11.1699 21.6263 10.9723 21.6263 10.7665C21.6263 10.5606 21.5449 10.363 21.3999 10.2169L17.4101 6.23031C17.1082 5.92518 16.616 5.92518 16.3142 6.23031C16.009 6.53219 16.009 7.02436 16.3142 7.32619L16.2814 7.29338L11.2153 12.3561L11.2481 12.3922C10.9462 12.0871 10.454 12.0871 10.1522 12.3922C9.84708 12.6941 9.84708 13.1862 10.1522 13.4881L14.1388 17.4779C14.4439 17.7798 14.9361 17.7798 15.2379 17.4779C15.383 17.3318 15.4644 17.1343 15.4644 16.9284C15.4644 16.7225 15.383 16.525 15.2379 16.3788L15.2707 16.4116L17.1213 14.5643L26.6989 24.1419C27.0762 24.5192 27.6898 24.5192 28.0671 24.1419C28.4444 23.7646 28.4444 23.1543 28.0671 22.777Z" fill="white"/>
</g>
<defs>
<linearGradient id="paint0_linear_275_5565" x1="0.350098" y1="10.9746" x2="36.0461" y2="11.1632" gradientUnits="userSpaceOnUse">
<stop stop-color="#9C3FE4"/>
<stop offset="1" stop-color="#C65647"/>
</linearGradient>
<clipPath id="clip0_275_5565">
<rect width="21" height="21" fill="white" transform="translate(7.3501 6)"/>
</clipPath>
</defs>
</svg>
