<svg width="762" height="443" viewBox="0 0 762 443" fill="none" xmlns="http://www.w3.org/2000/svg">
<g filter="url(#filter0_f_48_1827)">
<path d="M384.77 409.869C486.272 409.869 568.555 327.586 568.555 226.084C568.555 124.583 486.272 42.2996 384.77 42.2996C283.269 42.2996 200.985 124.583 200.985 226.084C200.985 327.586 283.269 409.869 384.77 409.869Z" fill="#2D276E" fill-opacity="0.39"/>
</g>
<path style="mix-blend-mode:color-dodge" d="M481.714 317.237C534.115 264.837 534.115 179.878 481.714 127.477C429.313 75.076 344.354 75.076 291.953 127.477C239.552 179.878 239.552 264.837 291.953 317.237C344.354 369.638 429.313 369.638 481.714 317.237Z" fill="url(#paint0_radial_48_1827)"/>
<path style="mix-blend-mode:screen" opacity="0.6" d="M267.283 223.19C267.283 166.371 298.17 129.372 327.387 118.022C288.822 129.569 260.189 172.26 260.189 223.19C260.189 274.12 288.822 316.812 327.387 328.358C299.005 313.026 267.283 268.281 267.283 223.19Z" fill="url(#paint1_linear_48_1827)"/>
<path style="mix-blend-mode:screen" d="M387.389 344.852C351.002 344.852 317.883 331.363 293.099 309.29C316.515 335.934 350.085 352.643 387.389 352.643C424.693 352.643 458.265 335.937 481.683 309.29C456.897 331.361 423.778 344.852 387.389 344.852Z" fill="url(#paint2_linear_48_1827)"/>
<path style="mix-blend-mode:screen" d="M386.435 91.7908C348.82 91.7908 314.935 107.672 291.048 133.069C314.483 111.024 346.019 97.494 380.731 97.494C453.06 97.494 511.694 156.128 511.694 228.457C511.694 263.169 498.164 294.705 476.122 318.142C501.518 294.256 517.397 260.368 517.397 222.754C517.397 150.425 458.764 91.7908 386.435 91.7908Z" fill="url(#paint3_linear_48_1827)"/>
<path style="mix-blend-mode:color-dodge" d="M513.413 179.88C496.019 193.962 464.611 183.997 443.26 157.625C421.911 131.246 418.706 98.4589 436.103 84.3711C453.501 70.2916 484.907 80.2571 506.261 106.628C527.605 133.002 530.809 165.797 513.415 179.88H513.413Z" fill="url(#paint4_radial_48_1827)"/>
<path style="mix-blend-mode:color-dodge" d="M397.354 397.189C361.195 400.65 329.927 382.989 327.513 357.747C325.098 332.503 352.453 309.237 388.611 305.779C424.768 302.321 456.036 319.98 458.45 345.221C460.864 370.463 433.509 393.731 397.352 397.189H397.354Z" fill="url(#paint5_radial_48_1827)"/>
<g style="mix-blend-mode:color-dodge">
<path d="M467.522 174.457C461.205 163.118 452.852 153.353 442.696 145.429C432.889 137.782 421.825 132.173 409.813 128.756C397.799 125.34 385.438 124.289 373.078 125.63C360.276 127.021 348.032 130.928 336.693 137.247C325.351 143.567 315.586 151.92 307.667 162.075C300.02 171.882 294.409 182.944 290.992 194.958C287.576 206.97 286.525 219.331 287.868 231.694C289.259 244.497 293.166 256.739 299.485 268.081C305.805 279.422 314.158 289.187 324.311 297.104C334.118 304.754 345.182 310.363 357.194 313.78C365.831 316.235 374.648 317.47 383.519 317.47C384.202 317.47 384.887 317.428 385.572 317.413V305.203C377.137 305.41 368.744 304.357 360.537 302.024C350.046 299.042 340.387 294.143 331.827 287.467C322.968 280.561 315.68 272.036 310.161 262.131C304.643 252.226 301.231 241.54 300.018 230.372C298.846 219.582 299.765 208.791 302.749 198.299C305.734 187.808 310.631 178.149 317.305 169.589C324.213 160.731 332.74 153.44 342.643 147.923C352.547 142.403 363.231 138.993 374.4 137.78C385.192 136.61 395.982 137.527 406.474 140.511C416.966 143.496 426.624 148.393 435.184 155.067C444.045 161.977 451.333 170.502 456.851 180.405C462.28 190.149 465.674 200.657 466.935 211.638L479.077 210.24C477.63 197.654 473.743 185.615 467.526 174.457H467.522Z" fill="url(#paint6_radial_48_1827)"/>
<path d="M447.812 203.201L471.964 245.541L496.56 203.458L447.812 203.201Z" fill="url(#paint7_radial_48_1827)"/>
<path d="M384.012 240.208C383.008 240.208 381.997 239.961 381.076 239.456L333.347 213.281C330.388 211.658 329.304 207.945 330.927 204.986C332.548 202.025 336.265 200.939 339.222 202.566L383.095 226.625L433.881 179.678C436.358 177.387 440.226 177.539 442.517 180.016C444.807 182.495 444.655 186.361 442.178 188.651L388.162 238.583C387.005 239.652 385.516 240.206 384.012 240.206V240.208Z" fill="url(#paint8_radial_48_1827)"/>
<path d="M418.555 267.064C418.555 262.841 416.753 260.73 413.151 260.73C411.119 260.73 409.634 261.452 408.696 262.893C407.756 264.336 407.236 266.575 407.136 269.614H394.422C394.727 262.971 396.707 257.975 400.36 254.628C404.014 251.28 408.631 249.607 414.216 249.607C419.8 249.607 424.455 251.101 427.424 254.087C430.394 257.075 431.879 260.962 431.879 265.752C431.879 271.057 429.872 276.246 425.864 281.317C421.855 286.389 417.058 290.676 411.476 294.178H432.716V304.839H394.345V294.951C410.486 283.261 418.555 273.966 418.555 267.066V267.064Z" fill="url(#paint9_radial_48_1827)"/>
<path d="M434.391 295.413V284.368L458.981 250.146H472.989V283.904H479.461V295.413H472.989V305.455H459.818V295.413H434.391ZM460.885 265.441L447.639 283.904H460.885V265.441Z" fill="url(#paint10_radial_48_1827)"/>
</g>
<g filter="url(#filter1_bd_48_1827)">
<path d="M499.932 31.3185C502.791 20.6492 513.757 14.3175 524.427 17.1764L684.739 60.1319C695.408 62.9907 701.74 73.9574 698.881 84.6268L674.971 173.859C672.112 184.528 661.146 190.86 650.476 188.001L571.882 166.941C570.867 166.669 569.792 166.724 568.809 167.098L506.515 190.803C501.972 192.531 497.883 187.416 500.57 183.366L516.74 158.99C518.629 156.142 517.168 152.281 513.867 151.396L490.164 145.045C479.495 142.186 473.163 131.22 476.022 120.55L499.932 31.3185Z" fill="#919AFF" fill-opacity="0.4" shape-rendering="crispEdges"/>
<path d="M499.932 31.3185C502.791 20.6492 513.757 14.3175 524.427 17.1764L684.739 60.1319C695.408 62.9907 701.74 73.9574 698.881 84.6268L674.971 173.859C672.112 184.528 661.146 190.86 650.476 188.001L571.882 166.941C570.867 166.669 569.792 166.724 568.809 167.098L506.515 190.803C501.972 192.531 497.883 187.416 500.57 183.366L516.74 158.99C518.629 156.142 517.168 152.281 513.867 151.396L490.164 145.045C479.495 142.186 473.163 131.22 476.022 120.55L499.932 31.3185Z" stroke="white" stroke-opacity="0.2" stroke-width="2" shape-rendering="crispEdges"/>
</g>
<rect x="521.793" y="42.1675" width="158.12" height="16.5474" rx="8.27372" transform="rotate(15 521.793 42.1675)" fill="url(#paint11_linear_48_1827)"/>
<rect x="513.227" y="74.1345" width="158.12" height="16.5474" rx="8.27372" transform="rotate(15 513.227 74.1345)" fill="url(#paint12_linear_48_1827)"/>
<rect x="504.661" y="106.102" width="104.8" height="16.5474" rx="8.27372" transform="rotate(15 504.661 106.102)" fill="url(#paint13_linear_48_1827)"/>
<defs>
<filter id="filter0_f_48_1827" x="0.985352" y="-157.7" width="767.57" height="767.57" filterUnits="userSpaceOnUse" color-interpolation-filters="sRGB">
<feFlood flood-opacity="0" result="BackgroundImageFix"/>
<feBlend mode="normal" in="SourceGraphic" in2="BackgroundImageFix" result="shape"/>
<feGaussianBlur stdDeviation="100" result="effect1_foregroundBlur_48_1827"/>
</filter>
<filter id="filter1_bd_48_1827" x="414.335" y="-4.51025" width="366.232" height="356.662" filterUnits="userSpaceOnUse" color-interpolation-filters="sRGB">
<feFlood flood-opacity="0" result="BackgroundImageFix"/>
<feGaussianBlur in="BackgroundImageFix" stdDeviation="10"/>
<feComposite in2="SourceAlpha" operator="in" result="effect1_backgroundBlur_48_1827"/>
<feColorMatrix in="SourceAlpha" type="matrix" values="0 0 0 0 0 0 0 0 0 0 0 0 0 0 0 0 0 0 127 0" result="hardAlpha"/>
<feOffset dx="10" dy="90"/>
<feGaussianBlur stdDeviation="35"/>
<feComposite in2="hardAlpha" operator="out"/>
<feColorMatrix type="matrix" values="0 0 0 0 0.12549 0 0 0 0 0.12549 0 0 0 0 0.12549 0 0 0 0.2 0"/>
<feBlend mode="normal" in2="effect1_backgroundBlur_48_1827" result="effect2_dropShadow_48_1827"/>
<feBlend mode="normal" in="SourceGraphic" in2="effect2_dropShadow_48_1827" result="shape"/>
</filter>
<radialGradient id="paint0_radial_48_1827" cx="0" cy="0" r="1" gradientUnits="userSpaceOnUse" gradientTransform="translate(386.833 222.357) scale(134.181)">
<stop offset="0.45"/>
<stop offset="0.68" stop-color="#010101"/>
<stop offset="0.77" stop-color="#080808"/>
<stop offset="0.83" stop-color="#141414"/>
<stop offset="0.88" stop-color="#252525"/>
<stop offset="0.92" stop-color="#3B3B3B"/>
<stop offset="0.95" stop-color="#565656"/>
<stop offset="0.99" stop-color="#767676"/>
<stop offset="1" stop-color="#848484"/>
</radialGradient>
<linearGradient id="paint1_linear_48_1827" x1="454.852" y1="226.909" x2="254.499" y2="221.064" gradientUnits="userSpaceOnUse">
<stop/>
<stop offset="0.14" stop-color="#000203"/>
<stop offset="0.27" stop-color="#000B0E"/>
<stop offset="0.39" stop-color="#011B21"/>
<stop offset="0.51" stop-color="#02303B"/>
<stop offset="0.63" stop-color="#034B5D"/>
<stop offset="0.74" stop-color="#056D87"/>
<stop offset="0.86" stop-color="#0794B8"/>
<stop offset="0.97" stop-color="#09C1EF"/>
<stop offset="1" stop-color="#0ACEFF"/>
</linearGradient>
<linearGradient id="paint2_linear_48_1827" x1="387.391" y1="316.365" x2="387.391" y2="359.812" gradientUnits="userSpaceOnUse">
<stop/>
<stop offset="0.14" stop-color="#000203"/>
<stop offset="0.27" stop-color="#000B0E"/>
<stop offset="0.39" stop-color="#011B21"/>
<stop offset="0.51" stop-color="#02303B"/>
<stop offset="0.63" stop-color="#034B5D"/>
<stop offset="0.74" stop-color="#056D87"/>
<stop offset="0.86" stop-color="#0794B8"/>
<stop offset="0.97" stop-color="#09C1EF"/>
<stop offset="1" stop-color="#0ACEFF"/>
</linearGradient>
<linearGradient id="paint3_linear_48_1827" x1="445.01" y1="167.67" x2="483.988" y2="131.014" gradientUnits="userSpaceOnUse">
<stop/>
<stop offset="0.14" stop-color="#000203"/>
<stop offset="0.27" stop-color="#000B0E"/>
<stop offset="0.39" stop-color="#011B21"/>
<stop offset="0.51" stop-color="#02303B"/>
<stop offset="0.63" stop-color="#034B5D"/>
<stop offset="0.74" stop-color="#056D87"/>
<stop offset="0.86" stop-color="#0794B8"/>
<stop offset="0.97" stop-color="#09C1EF"/>
<stop offset="1" stop-color="#0ACEFF"/>
</linearGradient>
<radialGradient id="paint4_radial_48_1827" cx="0" cy="0" r="1" gradientUnits="userSpaceOnUse" gradientTransform="translate(475.576 133.132) rotate(51.01) scale(61.5963 40.5239)">
<stop stop-color="#BABABA"/>
<stop offset="0.06" stop-color="#9C9C9C"/>
<stop offset="0.17" stop-color="#737373"/>
<stop offset="0.28" stop-color="#4F4F4F"/>
<stop offset="0.39" stop-color="#323232"/>
<stop offset="0.51" stop-color="#1C1C1C"/>
<stop offset="0.64" stop-color="#0C0C0C"/>
<stop offset="0.79" stop-color="#020202"/>
<stop offset="1"/>
</radialGradient>
<radialGradient id="paint5_radial_48_1827" cx="0" cy="0" r="1" gradientUnits="userSpaceOnUse" gradientTransform="translate(393.158 352.959) rotate(84.53) scale(46.0373 65.7675)">
<stop stop-color="#BABABA"/>
<stop offset="0.06" stop-color="#9C9C9C"/>
<stop offset="0.17" stop-color="#737373"/>
<stop offset="0.28" stop-color="#4F4F4F"/>
<stop offset="0.39" stop-color="#323232"/>
<stop offset="0.51" stop-color="#1C1C1C"/>
<stop offset="0.64" stop-color="#0C0C0C"/>
<stop offset="0.79" stop-color="#020202"/>
<stop offset="1"/>
</radialGradient>
<radialGradient id="paint6_radial_48_1827" cx="0" cy="0" r="1" gradientUnits="userSpaceOnUse" gradientTransform="translate(383.826 221.267) scale(149.864 149.864)">
<stop offset="0.46" stop-color="#CCCCCC"/>
<stop offset="1"/>
</radialGradient>
<radialGradient id="paint7_radial_48_1827" cx="0" cy="0" r="1" gradientUnits="userSpaceOnUse" gradientTransform="translate(383.826 221.392) scale(149.768 149.768)">
<stop offset="0.46" stop-color="#CCCCCC"/>
<stop offset="1"/>
</radialGradient>
<radialGradient id="paint8_radial_48_1827" cx="0" cy="0" r="1" gradientUnits="userSpaceOnUse" gradientTransform="translate(383.826 221.392) scale(149.768 149.768)">
<stop offset="0.46" stop-color="#CCCCCC"/>
<stop offset="1"/>
</radialGradient>
<radialGradient id="paint9_radial_48_1827" cx="0" cy="0" r="1" gradientUnits="userSpaceOnUse" gradientTransform="translate(383.826 221.392) scale(149.768)">
<stop offset="0.46" stop-color="#CCCCCC"/>
<stop offset="1"/>
</radialGradient>
<radialGradient id="paint10_radial_48_1827" cx="0" cy="0" r="1" gradientUnits="userSpaceOnUse" gradientTransform="translate(383.826 221.392) scale(149.768 149.768)">
<stop offset="0.46" stop-color="#CCCCCC"/>
<stop offset="1"/>
</radialGradient>
<linearGradient id="paint11_linear_48_1827" x1="509.842" y1="50.4412" x2="741.046" y2="46.764" gradientUnits="userSpaceOnUse">
<stop stop-color="white"/>
<stop offset="1" stop-color="white" stop-opacity="0"/>
</linearGradient>
<linearGradient id="paint12_linear_48_1827" x1="501.276" y1="82.4083" x2="732.481" y2="78.7311" gradientUnits="userSpaceOnUse">
<stop stop-color="white"/>
<stop offset="1" stop-color="white" stop-opacity="0"/>
</linearGradient>
<linearGradient id="paint13_linear_48_1827" x1="496.74" y1="114.376" x2="650.002" y2="112.76" gradientUnits="userSpaceOnUse">
<stop stop-color="white"/>
<stop offset="1" stop-color="white" stop-opacity="0"/>
</linearGradient>
</defs>
</svg>
