<svg width="18" height="18" viewBox="0 0 18 18" fill="none" xmlns="http://www.w3.org/2000/svg">
<g clip-path="url(#clip0_98_280)">
<path d="M9 0C4.032 0 0 4.032 0 9C0 13.968 4.032 18 9 18C13.968 18 18 13.968 18 9C18 4.032 13.968 0 9 0ZM13.176 6.12C13.041 7.542 12.456 10.998 12.159 12.591C12.033 13.266 11.781 13.491 11.547 13.518C11.025 13.563 10.629 13.176 10.125 12.843C9.333 12.321 8.883 11.997 8.118 11.493C7.227 10.908 7.803 10.584 8.316 10.062C8.451 9.927 10.755 7.83 10.8 7.641C10.8063 7.61237 10.8054 7.58265 10.7976 7.55442C10.7897 7.52619 10.7751 7.5003 10.755 7.479C10.701 7.434 10.629 7.452 10.566 7.461C10.485 7.479 9.225 8.316 6.768 9.972C6.408 10.215 6.084 10.341 5.796 10.332C5.472 10.323 4.86 10.152 4.401 9.999C3.834 9.819 3.393 9.72 3.429 9.405C3.447 9.243 3.672 9.081 4.095 8.91C6.723 7.767 8.469 7.011 9.342 6.651C11.844 5.607 12.357 5.427 12.699 5.427C12.771 5.427 12.942 5.445 13.05 5.535C13.14 5.607 13.167 5.706 13.176 5.778C13.167 5.832 13.185 5.994 13.176 6.12Z" fill="url(#paint0_linear_98_280)"/>
</g>
<defs>
<linearGradient id="paint0_linear_98_280" x1="6.32195" y1="8.94666" x2="17.3355" y2="9.50318" gradientUnits="userSpaceOnUse">
<stop stop-color="#42E8E0"/>
<stop offset="1" stop-color="#824BF4"/>
</linearGradient>
<clipPath id="clip0_98_280">
<rect width="18" height="18" fill="white"/>
</clipPath>
</defs>
</svg>
