<svg width="18" height="18" viewBox="0 0 18 18" fill="none" xmlns="http://www.w3.org/2000/svg">
<path d="M14.4526 3.99753C13.4551 3.53253 12.3751 3.19503 11.2501 3.00003C11.2402 2.99972 11.2304 3.00157 11.2213 3.00546C11.2123 3.00935 11.2042 3.01517 11.1976 3.02253C11.0626 3.27003 10.9051 3.59253 10.8001 3.84003C9.60684 3.66003 8.39334 3.66003 7.20009 3.84003C7.09509 3.58503 6.93759 3.27003 6.79509 3.02253C6.78759 3.00753 6.76509 3.00003 6.74259 3.00003C5.61759 3.19503 4.54509 3.53253 3.54009 3.99753C3.53259 3.99753 3.52509 4.00503 3.51759 4.01253C1.47759 7.06503 0.915088 10.035 1.19259 12.975C1.19259 12.99 1.20009 13.005 1.21509 13.0125C2.56509 14.0025 3.86259 14.6025 5.14509 15C5.16759 15.0075 5.19009 15 5.19759 14.985C5.49759 14.5725 5.76759 14.1375 6.00009 13.68C6.01509 13.65 6.00009 13.62 5.97009 13.6125C5.54259 13.4475 5.13759 13.2525 4.74009 13.0275C4.71009 13.0125 4.71009 12.9675 4.73259 12.945C4.81509 12.885 4.89759 12.8175 4.98009 12.7575C4.99509 12.7425 5.01759 12.7425 5.03259 12.75C7.61259 13.9275 10.3951 13.9275 12.9451 12.75C12.9601 12.7425 12.9826 12.7425 12.9976 12.7575C13.0801 12.825 13.1626 12.885 13.2451 12.9525C13.2751 12.975 13.2751 13.02 13.2376 13.035C12.8476 13.2675 12.4351 13.455 12.0076 13.62C11.9776 13.6275 11.9701 13.665 11.9776 13.6875C12.2176 14.145 12.4876 14.58 12.7801 14.9925C12.8026 15 12.8251 15.0075 12.8476 15C14.1376 14.6025 15.4351 14.0025 16.7851 13.0125C16.8001 13.005 16.8076 12.99 16.8076 12.975C17.1376 9.57753 16.2601 6.63003 14.4826 4.01253C14.4751 4.00503 14.4676 3.99753 14.4526 3.99753ZM6.39009 11.1825C5.61759 11.1825 4.97259 10.47 4.97259 9.59253C4.97259 8.71503 5.60259 8.00253 6.39009 8.00253C7.18509 8.00253 7.81509 8.72253 7.80759 9.59253C7.80759 10.47 7.17759 11.1825 6.39009 11.1825ZM11.6176 11.1825C10.8451 11.1825 10.2001 10.47 10.2001 9.59253C10.2001 8.71503 10.8301 8.00253 11.6176 8.00253C12.4126 8.00253 13.0426 8.72253 13.0351 9.59253C13.0351 10.47 12.4126 11.1825 11.6176 11.1825Z" fill="url(#paint0_linear_98_282)"/>
<defs>
<linearGradient id="paint0_linear_98_282" x1="6.65802" y1="8.966" x2="16.2769" y2="9.60375" gradientUnits="userSpaceOnUse">
<stop stop-color="#42E8E0"/>
<stop offset="1" stop-color="#824BF4"/>
</linearGradient>
</defs>
</svg>
