<svg width="138" height="95" viewBox="0 0 138 95" fill="none" xmlns="http://www.w3.org/2000/svg">
<g clip-path="url(#clip0_2_10164)">
<path d="M40.652 22.1198C40.6303 22.1525 42.3898 24.5599 44.551 27.4575C46.7123 30.3551 51.3064 36.5207 54.76 41.1503L61.0375 49.5708L60.6357 50.0283C60.4076 50.2789 55.7918 55.2789 50.3832 61.1394C44.9746 67.0109 40.5326 71.8475 40.5217 71.902C40.5 71.9564 41.4449 72 42.8025 71.9891L45.1158 71.9782L45.876 71.1394C46.2996 70.6819 50.2311 66.4227 54.6189 61.6623C59.0066 56.902 62.7209 52.8715 62.873 52.6972L63.1445 52.3813L65.3166 55.3007C66.5113 56.902 69.802 61.3246 72.6258 65.1155L77.7738 72H85.6477C92.1967 72 93.5109 71.9782 93.4674 71.8584C93.4348 71.7712 91.4365 69.0697 89.0254 65.8344C86.6143 62.61 83.8557 58.9063 82.9 57.6209C81.9334 56.3355 79.0988 52.512 76.5791 49.146C74.0594 45.7691 71.9959 42.9586 71.9959 42.915C71.9959 42.8388 85.3111 28.3399 89.84 23.4924L91.1324 22.1089H88.7539L86.3863 22.1198L83.6168 25.1264C82.0963 26.7821 78.3711 30.8344 75.3301 34.1133L69.8238 40.0828L63.1445 31.1285L56.4543 22.1634L48.5803 22.1089C44.2469 22.0763 40.6738 22.0871 40.652 22.1198ZM59.3107 31.7712C61.8846 35.2353 65.8596 40.5621 68.1404 43.6231C70.4211 46.6732 75.4822 53.4706 79.392 58.7102C83.3018 63.9608 86.5383 68.3072 86.5926 68.3834C86.6578 68.4815 85.8867 68.5142 83.0738 68.5142H79.4789L72.3543 58.9499C55.9113 36.9129 47.6137 25.78 47.516 25.6166C47.4508 25.5185 48.1893 25.4858 51.024 25.4858H54.6189L59.3107 31.7712Z" fill="white"/>
</g>
<defs>
<clipPath id="clip0_2_10164">
<rect width="53" height="50" fill="white" transform="translate(40.5 22)"/>
</clipPath>
</defs>
</svg>
