<svg width="171" height="64" viewBox="0 0 171 64" fill="none" xmlns="http://www.w3.org/2000/svg">
<g clipPath="url(#clip0_2_10149)">
<path d="M89.9871 31.7422C88.8469 31.7422 88.0251 32.1165 87.1917 32.4979V41.1276C87.9899 41.2037 88.4475 41.2037 89.2048 41.2037C91.9414 41.2037 92.3166 39.9489 92.3166 38.1968V34.0752C92.3166 32.7814 91.8878 31.7422 89.9871 31.7422ZM71.8124 31.2712C69.9137 31.2712 69.4804 32.3149 69.4804 33.6075V34.3338H74.1419V33.6075C74.1419 32.3149 73.7086 31.2712 71.8124 31.2712ZM36.6045 40.2535C36.6045 41.276 37.0864 41.8071 38.1499 41.8071C39.2907 41.8071 39.9662 41.4347 40.7989 41.0521V39.005H38.3045C37.1235 39.005 36.6045 39.2251 36.6045 40.2535ZM107.666 31.7422C105.765 31.7422 105.106 32.7814 105.106 34.0752V38.7971C105.106 40.0941 105.765 41.1365 107.666 41.1365C109.563 41.1365 110.227 40.0941 110.227 38.7971V34.0752C110.227 32.7814 109.563 31.7422 107.666 31.7422ZM27.2839 45.548H21.6931V31.9988H18.8996V27.3301H21.6937V24.5261C21.6937 20.7167 23.2704 18.4521 27.7517 18.4521H31.4828V23.1221H29.1507C27.406 23.1221 27.2909 23.7748 27.2909 24.9925L27.2839 27.3294H31.5084L31.0143 31.9981H27.2839V45.548ZM46.391 45.5832H41.7314L41.53 44.4032C39.4025 45.5832 37.5037 45.7745 36.2511 45.7745C32.8338 45.7745 31.015 43.4888 31.015 40.3277C31.015 36.5984 33.1374 35.2674 36.9343 35.2674H40.7989V34.4611C40.7989 32.5574 40.581 31.9988 37.6571 31.9988H32.8767L33.3438 27.3301H38.5691C44.9844 27.3301 46.391 29.3592 46.391 34.4989V45.5832ZM62.2362 32.3411C59.3366 31.8433 58.5038 31.7339 57.1087 31.7339C54.6028 31.7339 53.8455 32.2874 53.8455 34.4182V38.4489C53.8455 40.5798 54.6028 41.1359 57.1087 41.1359C58.5038 41.1359 59.3366 41.0245 62.2362 40.5248V45.0789C59.6964 45.6491 58.0418 45.7988 56.6434 45.7988C50.641 45.7988 48.2553 42.6384 48.2553 38.0727V34.8022C48.2553 30.2327 50.641 27.0665 56.6434 27.0665C58.0418 27.0665 59.6964 27.2168 62.2362 27.7895V32.3411ZM79.7321 38.0727H69.4797V38.4489C69.4797 40.5798 70.2377 41.1359 72.743 41.1359C74.9951 41.1359 76.3698 41.0245 79.2643 40.5248V45.0789C76.4727 45.6491 75.0181 45.7988 72.2796 45.7988C66.2766 45.7988 63.8895 42.6384 63.8895 38.0727V34.3331C63.8895 30.3382 65.6605 27.0665 71.8118 27.0665C77.9631 27.0665 79.7321 30.3005 79.7321 34.3331V38.0727ZM97.9062 38.1591C97.9062 42.5718 96.6465 45.7905 89.0157 45.7905C86.2599 45.7905 84.6436 45.548 81.6021 45.0796V19.8548L87.191 18.9212V27.7447C88.3989 27.2955 89.9622 27.0671 91.3848 27.0671C96.9743 27.0671 97.9055 29.5761 97.9055 33.6081V38.1591H97.9062ZM115.822 38.2551C115.822 42.0618 114.252 45.754 107.685 45.754C101.114 45.754 99.5154 42.0618 99.5154 38.2551V34.5795C99.5154 30.7708 101.114 27.078 107.685 27.078C114.252 27.078 115.822 30.7708 115.822 34.5795V38.2551ZM133.726 38.2551C133.726 42.0618 132.154 45.754 125.588 45.754C119.017 45.754 117.418 42.0618 117.418 38.2551V34.5795C117.418 30.7708 119.017 27.078 125.588 27.078C132.154 27.078 133.726 30.7708 133.726 34.5795V38.2551ZM152.099 45.548H146.041L140.917 36.9842V45.548H135.327V19.8542L140.917 18.9206V35.4613L146.041 27.3301H152.099L146.506 36.2036L152.099 45.548ZM125.569 31.7422C123.67 31.7422 123.011 32.7814 123.011 34.0752V38.7971C123.011 40.0941 123.67 41.1365 125.569 41.1365C127.465 41.1365 128.136 40.0941 128.136 38.7971V34.0752C128.136 32.7814 127.465 31.7422 125.569 31.7422ZM155.29 42.3523C156.231 42.3523 156.981 43.1208 156.981 44.0807C156.981 45.0553 156.231 45.8155 155.283 45.8155C154.34 45.8155 153.575 45.0553 153.575 44.0807C153.575 43.1208 154.34 42.3523 155.283 42.3523H155.29ZM155.283 42.6211C154.524 42.6211 153.904 43.2744 153.904 44.0807C153.904 44.9017 154.525 45.5467 155.29 45.5467C156.056 45.5544 156.667 44.9017 156.667 44.0884C156.667 43.2751 156.056 42.6211 155.29 42.6211H155.283ZM154.962 45.0866H154.655V43.158C154.816 43.1356 154.969 43.1132 155.199 43.1132C155.491 43.1132 155.681 43.1746 155.798 43.2584C155.911 43.3435 155.972 43.4734 155.972 43.6571C155.972 43.9118 155.805 44.0647 155.598 44.1268V44.1415C155.766 44.1728 155.881 44.3251 155.92 44.6086C155.964 44.9087 156.011 45.0233 156.041 45.086H155.72C155.674 45.0233 155.628 44.8473 155.589 44.5932C155.544 44.3482 155.42 44.256 155.175 44.256H154.962V45.0866H154.962ZM154.962 44.0193H155.184C155.436 44.0193 155.65 43.9265 155.65 43.6878C155.65 43.5189 155.528 43.3506 155.184 43.3506C155.084 43.3506 155.014 43.3582 154.962 43.3653V44.0193Z" fill="white"/>
</g>
<defs>
<clipPath id="clip0_2_10149">
<rect width="170" height="64" fill="white" transform="translate(0.5)"/>
</clipPath>
</defs>
</svg>
