<svg width="187" height="95" viewBox="0 0 187 95" fill="none" xmlns="http://www.w3.org/2000/svg">
<g clipPath="url(#clip0_2_10157)">
<path d="M160.239 42.2103C162.248 42.2103 163.876 40.5905 163.876 38.5925C163.876 36.5944 162.248 34.9746 160.239 34.9746C158.231 34.9746 156.603 36.5944 156.603 38.5925C156.603 40.5905 158.231 42.2103 160.239 42.2103Z" fill="#1B1E2C"/>
<path d="M108.3 54.0187C110.084 54.0187 111.113 52.6879 111.045 51.3907C111.025 50.8979 110.968 50.4072 110.873 49.9231C109.775 45.2136 105.933 41.7319 101.37 41.7319C95.9501 41.7319 91.559 46.6125 91.559 52.6192C91.559 58.6258 95.9501 63.5064 101.37 63.5064C104.767 63.5064 107.203 62.278 108.952 60.3326C109.81 59.3771 109.638 57.9095 108.609 57.1925C107.751 56.6123 106.688 56.8172 105.899 57.4654C105.144 58.1143 103.704 59.4108 101.37 59.4108C98.6263 59.4108 96.2935 57.0558 95.7788 53.95H108.3V54.0187ZM101.336 45.8619C103.806 45.8619 105.933 47.7729 106.722 50.4009H95.9501C96.7392 47.7392 98.8661 45.8619 101.336 45.8619ZM91.7649 43.8821C91.7649 42.8585 91.0103 42.0392 90.0499 41.8687C87.0649 41.4253 84.2519 42.5169 82.6398 44.531V44.2575C82.6398 42.9947 81.6103 42.2103 80.5814 42.2103C80.0361 42.2118 79.5135 42.428 79.1278 42.8115C78.7421 43.1951 78.5247 43.7149 78.523 44.2575V60.9809C78.523 62.0732 79.346 63.0287 80.4439 63.0967C81.6448 63.1648 82.6398 62.2436 82.6398 61.0489V52.4143C82.6398 48.5923 85.5212 45.4522 89.5006 45.8962H89.9124C90.9413 45.8275 91.7649 44.9401 91.7649 43.8821ZM162.297 46.0667C162.295 45.5242 162.078 45.0043 161.693 44.6206C161.307 44.2369 160.785 44.0206 160.239 44.0189C159.694 44.0204 159.171 44.2366 158.785 44.6204C158.4 45.0041 158.182 45.5241 158.181 46.0667V61.0489C158.182 61.5916 158.4 62.1116 158.785 62.4953C159.171 62.879 159.694 63.0952 160.239 63.0967C160.785 63.0951 161.307 62.8788 161.693 62.4951C162.078 62.1114 162.295 61.5915 162.297 61.0489V46.0667ZM131.696 34.736C131.695 34.1934 131.478 33.6734 131.092 33.2897C130.706 32.906 130.183 32.6897 129.638 32.6882C129.093 32.6899 128.57 32.9062 128.185 33.2899C127.799 33.6736 127.582 34.1935 127.58 34.736V43.8484C126.173 42.4489 124.424 41.7663 122.331 41.7663C116.911 41.7663 112.52 46.6469 112.52 52.6535C112.52 58.6602 116.911 63.5408 122.331 63.5408C124.424 63.5408 126.208 62.8238 127.614 61.4243C127.786 62.3804 128.644 63.0967 129.638 63.0967C130.183 63.0952 130.706 62.879 131.092 62.4953C131.478 62.1116 131.695 61.5916 131.696 61.0489V34.736ZM122.365 59.4789C119.209 59.4789 116.67 56.4419 116.67 52.6535C116.67 48.8995 119.209 45.8275 122.365 45.8275C125.522 45.8275 128.06 48.8652 128.06 52.6535C128.06 56.4419 125.487 59.4789 122.365 59.4789ZM153.172 34.736C153.17 34.1934 152.953 33.6734 152.567 33.2897C152.182 32.906 151.659 32.6897 151.114 32.6882C150.568 32.6897 150.045 32.906 149.66 33.2897C149.274 33.6734 149.057 34.1934 149.055 34.736V43.8484C147.649 42.4489 145.899 41.7663 143.806 41.7663C138.386 41.7663 133.995 46.6469 133.995 52.6535C133.995 58.6602 138.386 63.5408 143.806 63.5408C145.899 63.5408 147.683 62.8238 149.09 61.4243C149.261 62.3804 150.119 63.0967 151.114 63.0967C151.659 63.0952 152.182 62.879 152.567 62.4953C152.953 62.1116 153.17 61.5916 153.172 61.0489V34.736ZM143.806 59.4789C140.65 59.4789 138.112 56.4419 138.112 52.6535C138.112 48.8995 140.65 45.8275 143.806 45.8275C146.963 45.8275 149.501 48.8652 149.501 52.6535C149.501 56.4419 146.963 59.4789 143.806 59.4789ZM172.726 61.0833V45.8619H174.545C175.505 45.8619 176.363 45.1449 176.431 44.155C176.5 43.0971 175.642 42.2103 174.613 42.2103H172.726V39.3431C172.726 38.2508 171.903 37.2953 170.805 37.2272C169.604 37.1592 168.61 38.0803 168.61 39.275V42.244H166.894C165.934 42.244 165.076 42.961 165.008 43.9508C164.939 45.0088 165.797 45.8962 166.826 45.8962H168.575V61.1176C168.577 61.6602 168.794 62.18 169.18 62.5636C169.566 62.9472 170.088 63.1633 170.634 63.1648C171.835 63.0967 172.726 62.2093 172.726 61.0833Z" fill="white"/>
<path d="M38.2481 76.0999C54.1252 76.0999 66.9962 63.2953 66.9962 47.5C66.9962 31.7048 54.1252 18.9001 38.2481 18.9001C22.371 18.9001 9.5 31.7048 9.5 47.5C9.5 63.2953 22.371 76.0999 38.2481 76.0999Z" fill="white" fill-opacity="0.1"/>
<path d="M57.4248 47.4999C57.4255 46.953 57.3178 46.4112 57.1077 45.9057C56.8977 45.4002 56.5894 44.9409 56.2006 44.5541C55.8118 44.1673 55.3502 43.8607 54.842 43.6517C54.3339 43.4427 53.7893 43.3355 53.2395 43.3363C52.1077 43.3363 51.0781 43.7797 50.3236 44.4966C47.4422 42.4488 43.4967 41.118 39.1056 40.9475L41.0265 32.0056L47.2702 33.3365C47.3063 34.1116 47.6458 34.8419 48.2161 35.3713C48.7864 35.9006 49.5422 36.187 50.322 36.1691C51.1018 36.1512 51.8436 35.8306 52.3888 35.2757C52.934 34.7207 53.2393 33.9756 53.2395 33.1997C53.239 32.4124 52.9244 31.6575 52.3649 31.1009C51.8053 30.5442 51.0465 30.2312 50.2552 30.2307C49.6964 30.2322 49.1493 30.3897 48.6762 30.6854C48.203 30.9811 47.8229 31.403 47.579 31.9032L40.6154 30.4356C40.4094 30.4012 40.2035 30.4356 40.0661 30.538C39.8947 30.6404 39.7917 30.8109 39.7578 31.0157L37.6304 40.9812C33.1708 41.118 29.1569 42.4488 26.241 44.531C25.4557 43.7848 24.411 43.369 23.3251 43.3706C22.7752 43.3699 22.2307 43.4771 21.7225 43.686C21.2144 43.895 20.7527 44.2017 20.364 44.5885C19.9752 44.9752 19.6669 45.4345 19.4569 45.94C19.2468 46.4455 19.1391 46.9873 19.1398 47.5343C19.1398 49.2405 20.1687 50.6738 21.61 51.3226C21.5401 51.7399 21.5056 52.1624 21.5071 52.5854C21.5071 59.0011 29.0201 64.2234 38.2826 64.2234C47.5451 64.2234 55.0581 59.0355 55.0581 52.5854C55.0581 52.1757 55.0236 51.7317 54.9552 51.3226C55.6916 50.9877 56.3159 50.4494 56.7537 49.7717C57.1915 49.0941 57.4244 48.3055 57.4248 47.4999ZM28.6767 50.4689C28.6772 49.6815 28.9919 48.9266 29.5516 48.3699C30.1113 47.8132 30.8702 47.5003 31.6617 47.4999C33.3083 47.4999 34.646 48.8308 34.646 50.4689C34.646 52.107 33.3083 53.4385 31.6617 53.4385C30.0144 53.4722 28.6767 52.107 28.6767 50.4689ZM45.3838 58.3529C43.3254 60.4007 39.4144 60.5374 38.2826 60.5374C37.1162 60.5374 33.2053 60.3663 31.1808 58.3529C31.1076 58.2817 31.0495 58.1968 31.0098 58.103C30.97 58.0092 30.9496 57.9085 30.9496 57.8067C30.9496 57.7049 30.97 57.6042 31.0098 57.5104C31.0495 57.4166 31.1076 57.3317 31.1808 57.2606C31.2523 57.1878 31.3377 57.1299 31.4319 57.0904C31.5262 57.0509 31.6275 57.0306 31.7298 57.0306C31.8321 57.0306 31.9333 57.0509 32.0276 57.0904C32.1219 57.1299 32.2073 57.1878 32.2787 57.2606C33.5826 58.5577 36.3272 59.0011 38.2826 59.0011C40.2381 59.0011 43.0165 58.5577 44.2858 57.2606C44.3573 57.1878 44.4427 57.1299 44.537 57.0904C44.6312 57.0509 44.7325 57.0306 44.8348 57.0306C44.9371 57.0306 45.0384 57.0509 45.1326 57.0904C45.2269 57.1299 45.3123 57.1878 45.3838 57.2606C45.5165 57.4119 45.5896 57.6059 45.5896 57.8067C45.5896 58.0075 45.5165 58.2015 45.3838 58.3529ZM44.8345 53.4722C43.1879 53.4722 41.8501 52.1414 41.8501 50.5033C41.8501 48.8651 43.1879 47.5343 44.8345 47.5343C45.6259 47.5346 46.3849 47.8475 46.9446 48.4042C47.5043 48.9609 47.819 49.7159 47.8195 50.5033C47.8195 52.107 46.4817 53.4722 44.8345 53.4722Z" fill="white"/>
</g>
<defs>
<clipPath id="clip0_2_10157">
<rect width="167" height="63" fill="white" transform="translate(9.5 16)"/>
</clipPath>
</defs>
</svg>
