<svg width="40" height="41" viewBox="0 0 40 41" fill="none" xmlns="http://www.w3.org/2000/svg">
<path d="M24.754 34.43H24.014V32.58H14.986V34.43H14.246C13.802 34.43 13.506 34.726 13.506 35.17C13.506 35.614 13.802 35.91 14.246 35.91H14.986V37.76H24.014V35.91H24.754C25.198 35.91 25.494 35.614 25.494 35.17C25.494 34.726 25.198 34.43 24.754 34.43ZM18.242 16.3L19.5 25.55L20.758 16.3H18.242Z" fill="url(#paint0_linear_275_5340)"/>
<path d="M18.316 2.314C13.58 2.832 9.73201 6.606 9.14001 11.342C8.77001 14.154 9.58401 16.744 11.064 18.816C13.506 22.146 14.912 26.068 14.912 30.138V31.174H18.76L16.762 16.374H16.096C14.912 16.374 14.024 15.412 14.024 14.302C14.024 13.118 14.986 12.23 16.096 12.23C17.28 12.23 18.168 13.192 18.168 14.302V14.82H20.832V14.228C20.832 13.044 21.794 12.156 22.904 12.156C24.088 12.156 24.976 13.118 24.976 14.228C24.976 15.412 24.014 16.3 22.904 16.3H22.238L20.24 31.1H24.014V30.36C24.014 26.142 25.494 22.146 27.936 18.742C29.194 17.04 29.86 14.894 29.86 12.674C29.934 6.532 24.606 1.648 18.316 2.314Z" fill="url(#paint1_linear_275_5340)"/>
<path d="M15.43 14.228C15.43 14.598 15.726 14.82 16.022 14.82H16.614V14.228C16.614 13.858 16.318 13.636 16.022 13.636C15.726 13.636 15.43 13.932 15.43 14.228ZM23.57 14.228C23.57 13.858 23.274 13.636 22.978 13.636C22.682 13.636 22.386 13.932 22.386 14.228V14.82H22.978C23.274 14.82 23.57 14.598 23.57 14.228Z" fill="url(#paint2_linear_275_5340)"/>
<defs>
<linearGradient id="paint0_linear_275_5340" x1="13.506" y1="23.029" x2="25.7326" y2="23.0651" gradientUnits="userSpaceOnUse">
<stop stop-color="#9C3FE4"/>
<stop offset="1" stop-color="#C65647"/>
</linearGradient>
<linearGradient id="paint1_linear_275_5340" x1="9.05121" y1="11.3215" x2="30.2749" y2="11.4022" gradientUnits="userSpaceOnUse">
<stop stop-color="#9C3FE4"/>
<stop offset="1" stop-color="#C65647"/>
</linearGradient>
<linearGradient id="paint2_linear_275_5340" x1="15.43" y1="14.0073" x2="23.7212" y2="14.3085" gradientUnits="userSpaceOnUse">
<stop stop-color="#9C3FE4"/>
<stop offset="1" stop-color="#C65647"/>
</linearGradient>
</defs>
</svg>
