<svg width="54" height="50" viewBox="0 0 54 50" fill="none" xmlns="http://www.w3.org/2000/svg">
<g clip-path="url(#clip0_2_10165)">
<path d="M0.652048 0.119827C0.630327 0.152504 2.38975 2.55991 4.55102 5.45752C6.71229 8.35512 11.3064 14.5207 14.76 19.1503L21.0375 27.5708L20.6357 28.0283C20.4076 28.2789 15.7918 33.2789 10.3832 39.1394C4.97459 45.0109 0.532581 49.8475 0.521721 49.902C0.499999 49.9564 1.44488 50 2.80246 49.9891L5.11578 49.9782L5.87602 49.1394C6.29959 48.6819 10.2311 44.4227 14.6189 39.6623C19.0066 34.902 22.7209 30.8715 22.873 30.6972L23.1445 30.3813L25.3166 33.3007C26.5113 34.902 29.802 39.3246 32.6258 43.1155L37.7738 50H45.6477C52.1967 50 53.5109 49.9782 53.4674 49.8584C53.4348 49.7712 51.4365 47.0697 49.0254 43.8344C46.6143 40.61 43.8557 36.9063 42.9 35.6209C41.9334 34.3355 39.0988 30.512 36.5791 27.146C34.0594 23.7691 31.9959 20.9586 31.9959 20.915C31.9959 20.8388 45.3111 6.33987 49.84 1.49237L51.1324 0.108932H48.7539L46.3863 0.119827L43.6168 3.12636C42.0963 4.78214 38.3711 8.83442 35.3301 12.1133L29.8238 18.0828L23.1445 9.12854L16.4543 0.163399L8.58033 0.108932C4.24693 0.076252 0.67377 0.0871468 0.652048 0.119827ZM19.3107 9.77124C21.8846 13.2353 25.8596 18.5621 28.1404 21.6231C30.4211 24.6732 35.4822 31.4706 39.392 36.7102C43.3018 41.9608 46.5383 46.3072 46.5926 46.3834C46.6578 46.4815 45.8867 46.5142 43.0738 46.5142H39.4789L32.3543 36.9499C15.9113 14.9129 7.61373 3.77996 7.51598 3.61656C7.45082 3.51852 8.18934 3.48584 11.024 3.48584H14.6189L19.3107 9.77124Z" fill="white"/>
</g>
<defs>
<clipPath id="clip0_2_10165">
<rect width="53" height="50" fill="white" transform="translate(0.5)"/>
</clipPath>
</defs>
</svg>
