<svg width="310" height="325" viewBox="0 0 310 325" fill="none" xmlns="http://www.w3.org/2000/svg">
<g filter="url(#filter0_bd_48_1855)">
<path d="M63.5341 80.0869C59.097 69.9716 63.7001 58.1745 73.8154 53.7374L176.928 8.5068C187.043 4.0697 198.84 8.67279 203.277 18.7881L226.607 71.9734C231.044 82.0887 226.441 93.8857 216.326 98.3229L166.25 120.289C165.288 120.711 164.483 121.426 163.95 122.331L141.159 161.05C138.693 165.239 132.305 163.802 131.87 158.96L130.455 143.188C130.15 139.784 126.596 137.683 123.467 139.056L113.213 143.553C103.098 147.991 91.3011 143.387 86.8639 133.272L63.5341 80.0869Z" fill="#919AFF" fill-opacity="0.4" shape-rendering="crispEdges"/>
<path d="M63.5341 80.0869C59.097 69.9716 63.7001 58.1745 73.8154 53.7374L176.928 8.5068C187.043 4.0697 198.84 8.67279 203.277 18.7881L226.607 71.9734C231.044 82.0887 226.441 93.8857 216.326 98.3229L166.25 120.289C165.288 120.711 164.483 121.426 163.95 122.331L141.159 161.05C138.693 165.239 132.305 163.802 131.87 158.96L130.455 143.188C130.15 139.784 126.596 137.683 123.467 139.056L113.213 143.553C103.098 147.991 91.3011 143.387 86.8639 133.272L63.5341 80.0869Z" stroke="white" stroke-opacity="0.2" stroke-width="2" shape-rendering="crispEdges"/>
</g>
<rect x="79.1189" y="71.4919" width="117.148" height="12.2596" rx="6.12982" transform="rotate(-23.6848 79.1189 71.4919)" fill="url(#paint0_linear_48_1855)"/>
<rect x="88.9685" y="93.946" width="117.148" height="12.2596" rx="6.12982" transform="rotate(-23.6848 88.9685 93.946)" fill="url(#paint1_linear_48_1855)"/>
<rect x="98.8179" y="116.4" width="77.6444" height="12.2596" rx="6.12982" transform="rotate(-23.6848 98.8179 116.4)" fill="url(#paint2_linear_48_1855)"/>
<defs>
<filter id="filter0_bd_48_1855" x="0.844238" y="-14.1831" width="308.453" height="338.703" filterUnits="userSpaceOnUse" color-interpolation-filters="sRGB">
<feFlood flood-opacity="0" result="BackgroundImageFix"/>
<feGaussianBlur in="BackgroundImageFix" stdDeviation="10"/>
<feComposite in2="SourceAlpha" operator="in" result="effect1_backgroundBlur_48_1855"/>
<feColorMatrix in="SourceAlpha" type="matrix" values="0 0 0 0 0 0 0 0 0 0 0 0 0 0 0 0 0 0 127 0" result="hardAlpha"/>
<feOffset dx="10" dy="90"/>
<feGaussianBlur stdDeviation="35"/>
<feComposite in2="hardAlpha" operator="out"/>
<feColorMatrix type="matrix" values="0 0 0 0 0.12549 0 0 0 0 0.12549 0 0 0 0 0.12549 0 0 0 0.2 0"/>
<feBlend mode="normal" in2="effect1_backgroundBlur_48_1855" result="effect2_dropShadow_48_1855"/>
<feBlend mode="normal" in="SourceGraphic" in2="effect2_dropShadow_48_1855" result="shape"/>
</filter>
<linearGradient id="paint0_linear_48_1855" x1="70.2647" y1="77.6218" x2="241.559" y2="74.8974" gradientUnits="userSpaceOnUse">
<stop stop-color="white"/>
<stop offset="1" stop-color="white" stop-opacity="0"/>
</linearGradient>
<linearGradient id="paint1_linear_48_1855" x1="80.1143" y1="100.076" x2="251.409" y2="97.3515" gradientUnits="userSpaceOnUse">
<stop stop-color="white"/>
<stop offset="1" stop-color="white" stop-opacity="0"/>
</linearGradient>
<linearGradient id="paint2_linear_48_1855" x1="92.9494" y1="122.53" x2="206.498" y2="121.333" gradientUnits="userSpaceOnUse">
<stop stop-color="white"/>
<stop offset="1" stop-color="white" stop-opacity="0"/>
</linearGradient>
</defs>
</svg>
