<svg width="392" height="412" viewBox="0 0 392 412" fill="none" xmlns="http://www.w3.org/2000/svg">
<g filter="url(#filter0_bd_657_6121)">
<path d="M308.256 128.399C313.779 118.833 310.501 106.601 300.935 101.079L143.183 9.99997C133.617 4.47713 121.385 7.75462 115.862 17.3205L64.4694 106.335C58.9465 115.901 62.224 128.133 71.7899 133.656L149.266 178.387C150.176 178.912 150.898 179.711 151.328 180.67L181.313 247.493C183.303 251.928 189.811 251.202 190.775 246.438L197.385 213.779C198.063 210.43 201.827 208.732 204.786 210.441L229.543 224.734C239.109 230.257 251.34 226.98 256.863 217.414L308.256 128.399Z" fill="#919AFF" fill-opacity="0.4" shape-rendering="crispEdges"/>
<path d="M308.256 128.399C313.779 118.833 310.501 106.601 300.935 101.079L143.183 9.99997C133.617 4.47713 121.385 7.75462 115.862 17.3205L64.4694 106.335C58.9465 115.901 62.224 128.133 71.7899 133.656L149.266 178.387C150.176 178.912 150.898 179.711 151.328 180.67L181.313 247.493C183.303 251.928 189.811 251.202 190.775 246.438L197.385 213.779C198.063 210.43 201.827 208.732 204.786 210.441L229.543 224.734C239.109 230.257 251.34 226.98 256.863 217.414L308.256 128.399Z" stroke="white" stroke-opacity="0.2" stroke-width="2" shape-rendering="crispEdges"/>
</g>
<rect width="170.549" height="17.8482" rx="8.92408" transform="matrix(-0.866025 -0.5 -0.5 0.866025 282.522 121.362)" fill="url(#paint0_linear_657_6121)"/>
<rect width="170.549" height="17.8482" rx="8.92408" transform="matrix(-0.866025 -0.5 -0.5 0.866025 264.674 152.276)" fill="url(#paint1_linear_657_6121)"/>
<rect width="113.038" height="17.8482" rx="8.92408" transform="matrix(-0.866025 -0.5 -0.5 0.866025 246.826 183.19)" fill="url(#paint2_linear_657_6121)"/>
<defs>
<filter id="filter0_bd_657_6121" x="0.786133" y="-13.6831" width="391.153" height="425.131" filterUnits="userSpaceOnUse" color-interpolation-filters="sRGB">
<feFlood flood-opacity="0" result="BackgroundImageFix"/>
<feGaussianBlur in="BackgroundImageFix" stdDeviation="10"/>
<feComposite in2="SourceAlpha" operator="in" result="effect1_backgroundBlur_657_6121"/>
<feColorMatrix in="SourceAlpha" type="matrix" values="0 0 0 0 0 0 0 0 0 0 0 0 0 0 0 0 0 0 127 0" result="hardAlpha"/>
<feOffset dx="10" dy="90"/>
<feGaussianBlur stdDeviation="35"/>
<feComposite in2="hardAlpha" operator="out"/>
<feColorMatrix type="matrix" values="0 0 0 0 0.12549 0 0 0 0 0.12549 0 0 0 0 0.12549 0 0 0 0.2 0"/>
<feBlend mode="normal" in2="effect1_backgroundBlur_657_6121" result="effect2_dropShadow_657_6121"/>
<feBlend mode="normal" in="SourceGraphic" in2="effect2_dropShadow_657_6121" result="shape"/>
</filter>
<linearGradient id="paint0_linear_657_6121" x1="-12.8903" y1="8.92411" x2="236.488" y2="4.95784" gradientUnits="userSpaceOnUse">
<stop stop-color="white"/>
<stop offset="1" stop-color="white" stop-opacity="0"/>
</linearGradient>
<linearGradient id="paint1_linear_657_6121" x1="-12.8903" y1="8.92411" x2="236.488" y2="4.95784" gradientUnits="userSpaceOnUse">
<stop stop-color="white"/>
<stop offset="1" stop-color="white" stop-opacity="0"/>
</linearGradient>
<linearGradient id="paint2_linear_657_6121" x1="-8.54359" y1="8.92411" x2="156.766" y2="7.18152" gradientUnits="userSpaceOnUse">
<stop stop-color="white"/>
<stop offset="1" stop-color="white" stop-opacity="0"/>
</linearGradient>
</defs>
</svg>
