<svg width="89" height="126" viewBox="0 0 89 126" fill="none" xmlns="http://www.w3.org/2000/svg">
<g clip-path="url(#clip0_4_4894)">
<path d="M44.9653 39.6338C42.4871 39.903 40.5971 41.7843 40.4213 44.1568C40.3456 45.1788 40.3692 45.248 42.8485 51.2109C48.4882 64.7767 49.8547 68.0416 50.0843 68.5011C50.6412 69.614 51.424 70.6607 52.4023 71.6005C53.1528 72.3214 53.6479 72.7091 54.4848 73.232C55.9565 74.1507 56.6864 74.4043 62.4124 75.989C67.9896 77.5329 71.0369 78.5587 73.6624 79.7768C77.0641 81.3551 79.4377 83.1499 80.9389 85.2799C82.0159 86.8082 82.97 89.5486 83.3848 92.3073C83.5474 93.3858 83.5481 95.7694 83.3869 96.7443C83.0367 98.8603 82.3373 100.633 81.2672 102.117C80.6981 102.906 80.8962 102.774 81.7234 101.812C84.065 99.0912 86.4501 94.4406 87.6672 90.2231C89.1403 85.1188 89.3407 79.6378 88.2439 74.4504C86.1083 64.3483 79.2851 55.63 69.676 50.7247C69.0722 50.4162 66.7726 49.2894 63.6548 47.7745C63.1765 47.5419 62.6985 47.3088 62.221 47.075C61.9058 46.9201 61.2607 46.6051 60.7875 46.3755C60.3143 46.1456 58.9524 45.4824 57.761 44.9015L54.7982 43.4577C53.8315 42.9867 52.8652 42.5151 51.8993 42.0428C48.8096 40.5311 47.5019 39.9199 47.1291 39.814C46.7382 39.7027 45.7449 39.5601 45.4958 39.5793C45.443 39.5832 45.2047 39.6078 44.9653 39.6338Z" fill="url(#paint0_radial_4_4894)"/>
<path d="M51.7005 90.2764C51.5293 90.3712 51.2892 90.5083 51.1665 90.581C51.0435 90.6541 50.7715 90.8122 50.561 90.9327C49.031 91.8122 47.5018 92.693 45.9736 93.5751C45.038 94.1146 44.1034 94.6555 43.1698 95.1979C42.7571 95.4379 42.3429 95.6758 41.9274 95.9116C41.7697 95.9996 41.096 96.3874 40.43 96.7735C39.5708 97.2713 38.7107 97.7677 37.8497 98.2628C36.8506 98.837 35.8524 99.4125 34.8549 99.9891C33.985 100.492 33.1144 100.994 32.2429 101.495C31.6995 101.806 31.1979 102.107 31.1277 102.163C31.0234 102.247 26.1925 105.044 23.7685 106.424C21.9271 107.472 19.7974 108.174 17.6173 108.449C16.6025 108.577 14.6815 108.578 13.6695 108.45C10.9248 108.103 8.39695 107.147 6.23144 105.636C5.38233 105.043 3.78313 103.549 3.172 102.778C1.73123 100.96 0.799428 99.0103 0.316853 96.804C0.205677 96.2961 0.100754 95.8675 0.0833824 95.8509C0.038217 95.8087 0.119862 96.5754 0.266824 97.5782C0.419691 98.621 0.74523 100.129 1.09613 101.42C3.81092 111.403 11.5363 119.524 21.9938 123.387C25.0053 124.499 28.0443 125.2 31.3507 125.543C32.5931 125.673 36.1101 125.725 37.4064 125.633C43.3533 125.212 48.531 123.576 53.8424 120.438C54.3156 120.159 55.2043 119.635 55.8175 119.274C56.3922 118.936 56.9657 118.596 57.538 118.255C57.8708 118.055 58.2725 117.819 58.4298 117.73C58.6654 117.596 58.8992 117.459 59.1309 117.319C59.3589 117.181 60.3334 116.604 61.2971 116.038L65.1508 113.763L66.4741 112.981L66.5217 112.953L66.6677 112.867L66.7368 112.826L67.711 112.251L71.0775 110.264C75.3676 107.744 76.6468 106.859 78.6396 105.035C79.4707 104.274 80.7231 102.976 80.7853 102.811C80.7982 102.777 81.0209 102.456 81.2801 102.097C82.3349 100.639 83.0381 98.8515 83.3869 96.7443C83.5484 95.7694 83.5474 93.3858 83.3851 92.3073C83.0714 90.2225 82.3585 87.8577 81.59 86.3519C80.3299 83.8829 77.6456 81.6392 73.7892 79.8324C72.7243 79.3332 71.6247 78.8766 71.5021 78.8828C71.4437 78.8857 67.8552 80.9358 63.5273 83.4389C59.1994 85.9427 55.4434 88.1152 55.1804 88.2679C54.8471 88.4606 54.5126 88.6516 54.177 88.8407L51.7005 90.2764Z" fill="url(#paint1_radial_4_4894)"/>
<path d="M0.0184136 78.2672L0.0371746 95.7022L0.278636 96.7148C1.03325 99.8801 2.34131 102.162 4.61521 104.282C5.68459 105.279 6.50243 105.88 7.66145 106.521C10.1143 107.878 12.7537 108.547 15.6446 108.546C18.6728 108.545 21.2924 107.839 23.9915 106.296C24.447 106.036 26.2321 105.009 27.9578 104.014L31.0957 102.204V60.8321L31.095 41.9084C31.0943 29.8354 31.0707 22.6654 31.0297 22.103C30.7726 18.5682 29.1908 15.3185 26.5312 12.8605C25.7151 12.1061 25.0178 11.6021 22.9402 10.2658C21.5382 9.36384 20.1364 8.46149 18.735 7.55876C15.8042 5.67059 12.8734 3.78265 9.9423 1.89493C7.93453 0.600831 7.77749 0.511202 7.17053 0.308238C6.38118 0.0442226 5.54458 -0.0528753 4.74932 0.027336C2.43129 0.26115 0.575686 1.82576 0.0934577 3.9525C0.0184136 4.28373 0.00451654 8.68724 0.00347426 32.5879L0.00243199 60.8324H0L0.0184136 78.2672Z" fill="url(#paint2_linear_4_4894)"/>
</g>
<defs>
<radialGradient id="paint0_radial_4_4894" cx="0" cy="0" r="1" gradientUnits="userSpaceOnUse" gradientTransform="translate(994.243 -4662.88) rotate(-142.182) scale(5758.89 7833.04)">
<stop stop-color="#00CACC"/>
<stop offset="1" stop-color="#048FCE"/>
</radialGradient>
<radialGradient id="paint1_radial_4_4894" cx="0" cy="0" r="1" gradientUnits="userSpaceOnUse" gradientTransform="translate(1504.71 2719.05) rotate(-33.7227) scale(8304.17 6355.49)">
<stop stop-color="#00BBEC"/>
<stop offset="1" stop-color="#2756A9"/>
</radialGradient>
<linearGradient id="paint2_linear_4_4894" x1="1554.79" y1="0" x2="1554.79" y2="10854.6" gradientUnits="userSpaceOnUse">
<stop stop-color="#00BBEC"/>
<stop offset="1" stop-color="#2756A9"/>
</linearGradient>
<clipPath id="clip0_4_4894">
<rect width="88.9412" height="126" fill="white"/>
</clipPath>
</defs>
</svg>
