<svg width="126" height="126" viewBox="0 0 126 126" fill="none" xmlns="http://www.w3.org/2000/svg">
<path d="M114.479 52.7179H110.25V52.5H63V73.5H92.6704C88.3417 85.7246 76.7104 94.5 63 94.5C45.6041 94.5 31.5 80.3959 31.5 63C31.5 45.6041 45.6041 31.5 63 31.5C71.0299 31.5 78.3352 34.5292 83.8976 39.4774L98.7472 24.6277C89.3707 15.8891 76.8285 10.5 63 10.5C34.0069 10.5 10.5 34.0069 10.5 63C10.5 91.9931 34.0069 115.5 63 115.5C91.9931 115.5 115.5 91.9931 115.5 63C115.5 59.4799 115.138 56.0437 114.479 52.7179Z" fill="#FFC107"/>
<path d="M16.5533 38.5639L33.8021 51.2137C38.4694 39.6585 49.7726 31.5 63 31.5C71.0299 31.5 78.3353 34.5292 83.8976 39.4774L98.7473 24.6278C89.3708 15.8891 76.8285 10.5 63 10.5C42.8348 10.5 25.347 21.8846 16.5533 38.5639Z" fill="#FF3D00"/>
<path d="M63 115.5C76.5607 115.5 88.8825 110.31 98.1986 101.871L81.9499 88.1213C76.5018 92.2645 69.8446 94.5054 63 94.5C49.3447 94.5 37.7501 85.7929 33.3821 73.6418L16.2619 86.8324C24.9506 103.834 42.5959 115.5 63 115.5Z" fill="#4CAF50"/>
<path d="M114.479 52.7179H110.25V52.5H63V73.5H92.6704C90.5998 79.3181 86.8701 84.4021 81.942 88.1239L81.9499 88.1186L98.1986 101.868C97.0489 102.913 115.5 89.25 115.5 63C115.5 59.4799 115.138 56.0438 114.479 52.7179Z" fill="#1976D2"/>
</svg>
