<svg width="30" height="29" viewBox="0 0 30 29" fill="none" xmlns="http://www.w3.org/2000/svg">
<g clip-path="url(#clip0_749_385)">
<path d="M23.839 5.66101C18.957 0.779012 11.043 0.779012 6.16101 5.66101C1.27901 10.543 1.27901 18.457 6.16101 23.339C11.043 28.221 18.957 28.221 23.839 23.339C28.721 18.457 28.72 10.543 23.839 5.66101ZM20.303 18.389C20.4905 18.5765 20.5959 18.8308 20.5959 19.096C20.5959 19.3612 20.4905 19.6155 20.303 19.803C20.1155 19.9905 19.8612 20.0959 19.596 20.0959C19.3308 20.0959 19.0765 19.9905 18.889 19.803L15 15.914L11.111 19.803C11.0184 19.8962 10.9082 19.9701 10.7869 20.0206C10.6655 20.0711 10.5354 20.097 10.404 20.097C10.2726 20.097 10.1425 20.0711 10.0212 20.0206C9.89983 19.9701 9.78966 19.8962 9.69701 19.803C9.60407 19.7102 9.53033 19.6 9.48002 19.4787C9.42971 19.3574 9.40381 19.2273 9.40381 19.096C9.40381 18.9647 9.42971 18.8346 9.48002 18.7133C9.53033 18.592 9.60407 18.4818 9.69701 18.389L13.586 14.5L9.69701 10.611C9.5095 10.4235 9.40416 10.1692 9.40416 9.90401C9.40416 9.63884 9.5095 9.38452 9.69701 9.19701C9.88452 9.0095 10.1388 8.90416 10.404 8.90416C10.6692 8.90416 10.9235 9.0095 11.111 9.19701L15 13.086L18.889 9.19701C18.9819 9.10417 19.0921 9.03052 19.2134 8.98027C19.3347 8.93002 19.4647 8.90416 19.596 8.90416C19.7273 8.90416 19.8573 8.93002 19.9786 8.98027C20.0999 9.03052 20.2102 9.10417 20.303 9.19701C20.3959 9.28986 20.4695 9.40008 20.5198 9.52139C20.57 9.64269 20.5959 9.77271 20.5959 9.90401C20.5959 10.0353 20.57 10.1653 20.5198 10.2866C20.4695 10.4079 20.3959 10.5182 20.303 10.611L16.414 14.5L20.303 18.389Z" fill="url(#paint0_linear_749_385)"/>
<g filter="url(#filter0_d_749_385)">
<path fill-rule="evenodd" clip-rule="evenodd" d="M9.36296 8.83639C8.88636 9.29829 8.87443 10.0591 9.33633 10.5357L13.1926 14.5148L9.44439 18.3591C8.98106 18.8343 8.9907 19.5951 9.46591 20.0585C9.94112 20.5218 10.702 20.5122 11.1653 20.037L14.8659 16.2414L18.4689 19.9591C18.9308 20.4357 19.6916 20.4477 20.1682 19.9858C20.6448 19.5239 20.6568 18.7631 20.1949 18.2865L16.5445 14.5198L20.3262 10.6411C20.7896 10.1659 20.7799 9.40504 20.3047 8.94171C19.8295 8.47838 19.0687 8.48801 18.6053 8.96323L14.8711 12.7932L11.0623 8.86302C10.6004 8.38642 9.83957 8.37449 9.36296 8.83639Z" fill="white"/>
</g>
</g>
<defs>
<filter id="filter0_d_749_385" x="2.99756" y="6.49762" width="23.6699" height="23.9022" filterUnits="userSpaceOnUse" color-interpolation-filters="sRGB">
<feFlood flood-opacity="0" result="BackgroundImageFix"/>
<feColorMatrix in="SourceAlpha" type="matrix" values="0 0 0 0 0 0 0 0 0 0 0 0 0 0 0 0 0 0 127 0" result="hardAlpha"/>
<feOffset dy="4"/>
<feGaussianBlur stdDeviation="3"/>
<feComposite in2="hardAlpha" operator="out"/>
<feColorMatrix type="matrix" values="0 0 0 0 0 0 0 0 0 0 0 0 0 0 0 0 0 0 0.35 0"/>
<feBlend mode="normal" in2="BackgroundImageFix" result="effect1_dropShadow_749_385"/>
<feBlend mode="normal" in="SourceGraphic" in2="effect1_dropShadow_749_385" result="shape"/>
</filter>
<linearGradient id="paint0_linear_749_385" x1="14.9998" y1="1.99951" x2="14.9998" y2="27.0005" gradientUnits="userSpaceOnUse">
<stop stop-color="#DD5757"/>
<stop offset="1" stop-color="#F77676"/>
</linearGradient>
<clipPath id="clip0_749_385">
<rect width="29" height="29" fill="white" transform="translate(0.5)"/>
</clipPath>
</defs>
</svg>
