<svg width="75" height="76" viewBox="0 0 75 76" fill="none" xmlns="http://www.w3.org/2000/svg">
<g filter="url(#filter0_d_2_12423)">
<rect x="20" y="16.4062" width="35" height="35" rx="5" fill="white"/>
<g clipath="url(#clip0_2_12423)">
<path d="M47.8906 31.1875H35.1406C33.9775 31.1875 33.0312 32.1337 33.0312 33.2969V40.3281C33.0312 41.4913 33.9775 42.4375 35.1406 42.4375H46.1932L48.7997 45.044C49.0027 45.247 49.3069 45.3046 49.566 45.1964C49.6945 45.1433 49.8044 45.0532 49.8816 44.9375C49.9589 44.8219 50.0001 44.6859 50 44.5469V33.2969C50 32.1337 49.0538 31.1875 47.8906 31.1875ZM44.375 38.9219H38.6562C38.2676 38.9219 37.9531 38.6074 37.9531 38.2188C37.9531 37.8301 38.2676 37.5156 38.6562 37.5156H44.375C44.7636 37.5156 45.0781 37.8301 45.0781 38.2188C45.0781 38.6074 44.7636 38.9219 44.375 38.9219ZM45.7812 36.1094H37.25C36.8614 36.1094 36.5469 35.7949 36.5469 35.4062C36.5469 35.0176 36.8614 34.7031 37.25 34.7031H45.7812C46.1699 34.7031 46.4844 35.0176 46.4844 35.4062C46.4844 35.7949 46.1699 36.1094 45.7812 36.1094Z" fill="url(#paint0_linear_2_12423)"/>
<path d="M26.434 39.5714C26.6931 39.6796 26.9973 39.622 27.2003 39.419L29.8068 36.8125H31.625V33.2969C31.625 31.3585 33.2022 29.7812 35.1406 29.7812H42.9688V27.6719C42.9688 26.5069 42.0244 25.5625 40.8594 25.5625H28.1094C26.9444 25.5625 26 26.5069 26 27.6719V38.9219C25.9999 39.0609 26.0411 39.1969 26.1183 39.3126C26.1956 39.4282 26.3055 39.5183 26.434 39.5714Z" fill="url(#paint1_linear_2_12423)"/>
</g>
</g>
<defs>
<filter id="filter0_d_2_12423" x="0" y="0.40625" width="75" height="75" filterUnits="userSpaceOnUse" color-interpolation-filters="sRGB">
<feFlood flood-opacity="0" result="BackgroundImageFix"/>
<feColorMatrix in="SourceAlpha" type="matrix" values="0 0 0 0 0 0 0 0 0 0 0 0 0 0 0 0 0 0 127 0" result="hardAlpha"/>
<feOffset dy="4"/>
<feGaussianBlur stdDeviation="10"/>
<feComposite in2="hardAlpha" operator="out"/>
<feColorMatrix type="matrix" values="0 0 0 0 1 0 0 0 0 1 0 0 0 0 1 0 0 0 0.49 0"/>
<feBlend mode="normal" in2="BackgroundImageFix" result="effect1_dropShadow_2_12423"/>
<feBlend mode="normal" in="SourceGraphic" in2="effect1_dropShadow_2_12423" result="shape"/>
</filter>
<linearGradient id="paint0_linear_2_12423" x1="33.0313" y1="35.5969" x2="50.3372" y2="35.7073" gradientUnits="userSpaceOnUse">
<stop stop-color="#9C3FE4"/>
<stop offset="1" stop-color="#C65647"/>
</linearGradient>
<linearGradient id="paint1_linear_2_12423" x1="26" y1="29.9719" x2="43.306" y2="30.0823" gradientUnits="userSpaceOnUse">
<stop stop-color="#9C3FE4"/>
<stop offset="1" stop-color="#C65647"/>
</linearGradient>
<clipPath id="clip0_2_12423">
<rect width="24" height="24" fill="white" transform="translate(26 23.4062)"/>
</clipPath>
</defs>
</svg>
