<svg width="350" height="349" viewBox="0 0 350 349" fill="none" xmlns="http://www.w3.org/2000/svg">
<g filter="url(#filter0_bd_2_12377)">
<rect x="57" y="47.074" width="184" height="150" rx="20" transform="rotate(-14.8231 57 47.074)" fill="#919AFF" fill-opacity="0.4" shape-rendering="crispEdges"/>
<rect x="57" y="47.074" width="184" height="150" rx="20" transform="rotate(-14.8231 57 47.074)" stroke="white" stroke-opacity="0.2" stroke-width="2" shape-rendering="crispEdges"/>
</g>
<g opacity="0.7">
<path d="M219.663 40.2313C218.25 34.8923 212.776 31.7095 207.437 33.1225L97.2311 62.2878C91.8921 63.7008 88.7093 69.1743 90.1223 74.5134L110.589 151.851C112.002 157.19 117.476 160.373 122.815 158.96L233.021 129.794C238.36 128.382 241.543 122.908 240.13 117.569L219.663 40.2313Z" fill="white"/>
<path fillRule="evenodd" clipRule="evenodd" d="M211.042 85.0173L234.103 94.7979L219.601 39.9969C218.188 34.6579 212.714 31.4752 207.375 32.8881L97.1691 62.0535C91.83 63.4664 88.6473 68.94 90.0603 74.279L93.8539 88.6138L137.595 103.422C140.43 104.87 144.083 104.014 146.003 101.454L155.245 89.1261C157.209 86.5063 160.977 85.6813 163.822 87.2483L188.164 100.656C191.343 102.406 195.577 101.151 197.26 97.9597L202.517 87.9905C204.084 85.0185 207.904 83.6864 211.042 85.0173ZM198.674 70.0346C205.489 68.231 209.673 61.7067 208.021 55.4619C206.368 49.2172 199.504 45.6169 192.689 47.4204C185.874 49.224 181.689 55.7483 183.342 61.993C184.995 68.2378 191.859 71.8381 198.674 70.0346Z" fill="#0015FF" fill-opacity="0.4"/>
</g>
<defs>
<filter id="filter0_bd_2_12377" x="0.445984" y="-16.554" width="349.36" height="365.19" filterUnits="userSpaceOnUse" color-interpolation-filters="sRGB">
<feFlood flood-opacity="0" result="BackgroundImageFix"/>
<feGaussianBlur in="BackgroundImageFix" stdDeviation="10"/>
<feComposite in2="SourceAlpha" operator="in" result="effect1_backgroundBlur_2_12377"/>
<feColorMatrix in="SourceAlpha" type="matrix" values="0 0 0 0 0 0 0 0 0 0 0 0 0 0 0 0 0 0 127 0" result="hardAlpha"/>
<feOffset dx="10" dy="90"/>
<feGaussianBlur stdDeviation="35"/>
<feComposite in2="hardAlpha" operator="out"/>
<feColorMatrix type="matrix" values="0 0 0 0 0.12549 0 0 0 0 0.12549 0 0 0 0 0.12549 0 0 0 0.2 0"/>
<feBlend mode="normal" in2="effect1_backgroundBlur_2_12377" result="effect2_dropShadow_2_12377"/>
<feBlend mode="normal" in="SourceGraphic" in2="effect2_dropShadow_2_12377" result="shape"/>
</filter>
</defs>
</svg>
