<svg width="188" height="189" viewBox="0 0 188 189" fill="none" xmlns="http://www.w3.org/2000/svg">
<path d="M187.625 10.3378L178.162 0.875L102.647 76.3969C102.008 77.0138 101.499 77.7518 101.148 78.5677C100.798 79.3836 100.613 80.2611 100.606 81.1491C100.598 82.037 100.767 82.9176 101.103 83.7395C101.44 84.5614 101.936 85.308 102.564 85.9359C103.192 86.5639 103.939 87.0604 104.761 87.3967C105.582 87.7329 106.463 87.9021 107.351 87.8944C108.239 87.8867 109.117 87.7022 109.932 87.3517C110.748 87.0013 111.486 86.4918 112.103 85.8531L135.208 62.7477C138.563 67.7734 140.488 73.6169 140.777 79.6525C141.066 85.6881 139.708 91.6887 136.849 97.0119C133.989 102.335 129.736 106.78 124.544 109.872C119.352 112.963 113.418 114.585 107.375 114.562C106.016 114.533 104.661 114.421 103.316 114.228C97.8578 101.09 87.417 90.6489 74.2787 85.191C73.5898 80.4804 73.9356 75.6763 75.292 71.1129C76.6484 66.5495 78.9829 62.3365 82.1329 58.7669C85.283 55.1974 89.173 52.3572 93.5323 50.4438C97.8916 48.5304 102.615 47.5898 107.375 47.6875V34.3125C94.964 34.3267 83.0653 39.2632 74.2893 48.0392C65.5133 56.8152 60.5768 68.7139 60.5626 81.125C60.5626 81.2788 60.6027 81.4393 60.6027 81.5931C58.3722 81.2966 56.1252 81.1402 53.8751 81.125C49.3879 81.1412 44.9208 81.7254 40.5803 82.8637C40.5603 82.2819 40.5001 81.7135 40.5001 81.125C40.5196 63.3946 47.5716 46.396 60.1088 33.8587C72.6461 21.3215 89.6447 14.2695 107.375 14.25V0.875C86.0991 0.899779 65.7016 9.36262 50.6572 24.407C35.6127 39.4515 27.1499 59.849 27.1251 81.125C27.1251 83.4991 27.2388 85.8464 27.4394 88.1736C20.2816 92.2397 14.1595 97.9039 9.55035 104.725C4.94117 111.545 1.96943 119.338 0.866771 127.496C-0.23589 135.654 0.560318 143.956 3.19333 151.756C5.82635 159.556 10.225 166.642 16.0465 172.462C21.868 178.283 28.955 182.68 36.7551 185.312C44.5552 187.943 52.8577 188.738 61.0154 187.634C69.1731 186.53 76.9656 183.557 83.7855 178.946C90.6054 174.336 96.2684 168.213 100.333 161.054C102.674 161.255 105.021 161.375 107.375 161.375C122.679 161.396 137.669 157.034 150.574 148.806C163.478 140.578 173.757 128.828 180.195 114.944C186.634 101.06 188.962 85.6229 186.906 70.4575C184.85 55.292 178.495 41.0323 168.592 29.3637L187.625 10.3378ZM93.3982 127.937H80.3308C79.4622 117.854 76.6988 108.026 72.1855 98.9672C77.7251 101.821 82.5253 105.924 86.2068 110.952C89.8883 115.98 92.3503 121.795 93.3982 127.937ZM14.352 141.312H27.4193C28.2876 151.398 31.0511 161.229 35.5647 170.289C30.0243 167.435 25.2236 163.331 21.542 158.302C17.8605 153.273 15.399 147.457 14.352 141.312ZM27.4127 127.937H14.352C15.3992 121.795 17.8602 115.981 21.5405 110.953C25.2208 105.925 30.0196 101.822 35.558 98.9672C31.0452 108.026 28.2817 117.854 27.4127 127.937ZM53.8751 174.656C46.5949 164.927 42.0986 153.401 40.8679 141.312H66.8823C65.6516 153.401 61.1553 164.927 53.8751 174.656ZM40.8679 127.937C42.0988 115.851 46.5951 104.327 53.8751 94.6003C61.1557 104.326 65.6521 115.851 66.8823 127.937H40.8679ZM72.1855 170.289C76.7014 161.229 79.4672 151.398 80.3375 141.312H93.3982C92.3512 147.457 89.8897 153.273 86.2082 158.302C82.5266 163.331 77.7259 167.435 72.1855 170.289ZM174.25 81.125C174.231 98.8554 167.179 115.854 154.641 128.391C142.104 140.929 125.105 147.981 107.375 148C106.793 148 106.218 147.933 105.636 147.92C107.394 141.398 107.826 134.589 106.907 127.897C107.067 127.897 107.221 127.937 107.375 127.937C116.061 127.935 124.576 125.516 131.966 120.951C139.356 116.386 145.33 109.855 149.22 102.089C153.11 94.322 154.762 85.6263 153.992 76.9742C153.221 68.3222 150.059 60.0551 144.859 53.0977L159.116 38.8399C168.909 50.7551 174.258 65.702 174.25 81.125Z" fill="url(#paint0_linear_725_572)"/>
<defs>
<linearGradient id="paint0_linear_725_572" x1="0.38501" y1="59.5865" x2="191.357" y2="60.5957" gradientUnits="userSpaceOnUse">
<stop stop-color="#9C3FE4"/>
<stop offset="1" stop-color="#C65647"/>
</linearGradient>
</defs>
</svg>
