<svg width="447" height="375" viewBox="0 0 447 375" fill="none" xmlns="http://www.w3.org/2000/svg">
<path d="M436.69 289.27L329.82 350.97C318.83 357.32 299.62 356.52 286.93 349.19L13.31 191.22C0.609993 183.89 -0.760007 172.8 10.23 166.45L117.1 104.75C128.09 98.4 147.3 99.2 160 106.53L433.62 264.5C446.32 271.83 447.69 282.92 436.7 289.27H436.69Z" fill="#455A64"/>
<path d="M3.17002 172.29L3.19002 172.25C4.46002 169.76 6.71002 167.53 9.81002 165.73L116.68 104.03C121.59 101.2 128.35 99.63 135.72 99.63C144.61 99.63 153.6 101.88 160.4 105.8L434.02 263.77C438.69 266.47 442.02 269.79 443.69 273.3C443.69 273.3 446.36 278.25 446.36 288.37C446.36 298.49 442.38 303.85 442.38 303.85C441.15 305.75 439.26 307.5 436.68 308.99L335.09 367.64L329.81 370.69C318.82 377.04 299.61 376.24 286.91 368.91L13.31 210.94C9.13002 208.53 6.19002 205.71 4.50002 202.79C4.50002 202.79 0.52002 197.43 0.52002 187.31C0.52002 180.61 1.40002 175.62 3.17002 172.28V172.29Z" fill="#263238"/>
<path d="M436.69 289.27L329.82 350.97C318.83 357.32 299.62 356.52 286.93 349.19L13.31 191.22C0.609993 183.89 -0.760007 172.8 10.23 166.45L117.1 104.75C128.09 98.4 147.3 99.2 160 106.53L433.62 264.5C446.32 271.83 447.69 282.92 436.7 289.27H436.69Z" fill="#37474F"/>
<path d="M103.73 254.35C103.73 255.74 104.71 257.44 105.93 258.14L122.72 267.84C123.93 268.54 124.92 267.98 124.92 266.59C124.92 265.2 123.93 263.5 122.72 262.8L105.93 253.1C104.71 252.4 103.73 252.96 103.73 254.35Z" fill="#1D262A"/>
<path d="M126.38 265.76C126.38 264.37 125.4 262.67 124.18 261.97L107.39 252.27C106.78 251.92 106.23 251.88 105.83 252.11L104.5 252.89C104.89 252.73 105.38 252.78 105.93 253.09L122.72 262.79C123.93 263.49 124.92 265.19 124.92 266.58C124.92 267.22 124.71 267.67 124.37 267.92L125.67 267.2H125.65C126.09 266.99 126.38 266.5 126.38 265.76Z" fill="#37474F"/>
<path d="M36.52 215.55C36.52 216.94 37.5 218.64 38.72 219.34L85.74 246.49C86.95 247.19 87.94 246.63 87.94 245.24C87.94 243.85 86.95 242.15 85.74 241.45L38.72 214.3C37.51 213.6 36.52 214.16 36.52 215.55Z" fill="#1D262A"/>
<path d="M89.4101 244.41C89.4101 243.02 88.43 241.32 87.21 240.62L40.19 213.47C39.58 213.12 39.0301 213.08 38.6301 213.31L37.3 214.09C37.69 213.93 38.18 213.98 38.73 214.29L85.75 241.44C86.96 242.14 87.95 243.84 87.95 245.23C87.95 245.87 87.7401 246.32 87.4001 246.57L88.7 245.86H88.68C89.12 245.65 89.4101 245.16 89.4101 244.41Z" fill="#37474F"/>
<path d="M349.08 349.71C349.08 352.23 347.3 355.31 345.1 356.58C342.9 357.85 341.12 356.83 341.12 354.31C341.12 351.79 342.9 348.71 345.1 347.44C347.3 346.17 349.08 347.19 349.08 349.71Z" fill="#1D262A"/>
<path d="M345.1 348.63C343.08 349.8 341.43 352.49 341.17 354.88C341.15 354.7 341.12 354.52 341.12 354.32C341.12 351.8 342.9 348.72 345.1 347.45C347.3 346.18 349.08 347.2 349.08 349.72C349.08 349.92 349.05 350.14 349.03 350.34C348.77 348.25 347.12 347.47 345.1 348.63Z" fill="#161C20"/>
<path d="M392.91 319.84L376.25 329.46C374.05 330.73 372.27 333.81 372.27 336.33C372.27 338.85 374.05 339.87 376.25 338.6L392.91 328.98C395.11 327.71 396.89 324.63 396.89 322.11C396.89 319.59 395.11 318.57 392.91 319.84Z" fill="#1D262A"/>
<path d="M392.91 321.03L376.25 330.65C374.23 331.82 372.58 334.51 372.32 336.9C372.3 336.72 372.27 336.54 372.27 336.34C372.27 333.82 374.05 330.74 376.25 329.47L392.91 319.85C395.11 318.58 396.89 319.6 396.89 322.12C396.89 322.32 396.86 322.54 396.84 322.74C396.58 320.65 394.93 319.87 392.91 321.03Z" fill="#161C20"/>
<path d="M84.74 133.81C85.42 134.2 85.5 134.8 84.91 135.14L64.64 146.84C64.28 147.05 63.85 147.05 63.49 146.84L63 146.56C62.32 146.17 62.24 145.57 62.83 145.23L83.1 133.53C83.46 133.32 83.89 133.32 84.25 133.53L84.74 133.81Z" fill="#263238"/>
<path d="M84.91 135.14C84.85 135.09 84.81 135.04 84.74 135L84.25 134.72C83.89 134.51 83.46 134.51 83.1 134.72L62.83 146.42C62.34 146.04 62.3 145.54 62.83 145.23L83.1 133.53C83.46 133.32 83.89 133.32 84.25 133.53L84.74 133.81C85.42 134.2 85.49 134.8 84.91 135.14Z" fill="#1D262A"/>
<path d="M415.89 313.17L415.26 313.54C414.69 313.87 414.23 313.52 414.23 312.76V310.72C414.23 310.32 414.44 309.96 414.79 309.76L415.42 309.39C415.99 309.06 416.45 309.41 416.45 310.17V312.21C416.45 312.61 416.24 312.97 415.89 313.17Z" fill="#1D262A"/>
<path d="M419.14 311.29L418.51 311.66C417.94 311.99 417.48 311.64 417.48 310.88V308.84C417.48 308.44 417.69 308.08 418.04 307.88L418.67 307.51C419.24 307.18 419.7 307.53 419.7 308.29V310.33C419.7 310.73 419.49 311.09 419.14 311.29Z" fill="#1D262A"/>
<path d="M422.39 309.42L421.76 309.79C421.19 310.12 420.73 309.77 420.73 309.01V306.97C420.73 306.57 420.94 306.21 421.29 306.01L421.92 305.64C422.49 305.31 422.95 305.66 422.95 306.42V308.46C422.95 308.86 422.74 309.22 422.39 309.42Z" fill="#1D262A"/>
<path d="M425.64 307.54L425.01 307.91C424.44 308.24 423.98 307.89 423.98 307.13V305.09C423.98 304.69 424.19 304.33 424.54 304.13L425.17 303.76C425.74 303.43 426.2 303.78 426.2 304.54V306.58C426.2 306.98 425.99 307.34 425.64 307.54Z" fill="#1D262A"/>
<path d="M428.89 305.66L428.26 306.03C427.69 306.36 427.23 306.01 427.23 305.25V303.21C427.23 302.81 427.44 302.45 427.79 302.25L428.42 301.88C428.99 301.55 429.45 301.9 429.45 302.66V304.7C429.45 305.1 429.24 305.46 428.89 305.66Z" fill="#1D262A"/>
<path d="M414.78 309.75L415.41 309.38C415.98 309.05 416.44 309.4 416.44 310.16V311.35C416.44 310.59 415.98 310.24 415.41 310.57L414.78 310.94C414.44 311.14 414.22 311.51 414.22 311.9V310.71C414.22 310.31 414.43 309.95 414.78 309.75Z" fill="#161C20"/>
<path d="M418.03 307.88L418.66 307.51C419.23 307.18 419.69 307.53 419.69 308.29V309.48C419.69 308.72 419.23 308.37 418.66 308.7L418.03 309.07C417.69 309.27 417.47 309.64 417.47 310.03V308.84C417.47 308.44 417.68 308.08 418.03 307.88Z" fill="#161C20"/>
<path d="M421.28 306L421.91 305.63C422.48 305.3 422.94 305.65 422.94 306.41V307.6C422.94 306.84 422.48 306.49 421.91 306.82L421.28 307.19C420.94 307.39 420.72 307.76 420.72 308.15V306.96C420.72 306.56 420.93 306.2 421.28 306Z" fill="#161C20"/>
<path d="M424.53 304.12L425.16 303.75C425.73 303.42 426.19 303.77 426.19 304.53V305.72C426.19 304.96 425.73 304.61 425.16 304.94L424.53 305.31C424.19 305.51 423.97 305.88 423.97 306.27V305.08C423.97 304.68 424.18 304.32 424.53 304.12Z" fill="#161C20"/>
<path d="M427.78 302.24L428.41 301.87C428.98 301.54 429.44 301.89 429.44 302.65V303.84C429.44 303.08 428.98 302.73 428.41 303.06L427.78 303.43C427.44 303.63 427.22 304 427.22 304.39V303.2C427.22 302.8 427.43 302.44 427.78 302.24Z" fill="#161C20"/>
<g style="mix-blend-mode:darken" opacity="0.7">
<path d="M443.7 273.31C442.02 269.8 438.7 266.48 434.03 263.78L160.41 105.81C153.61 101.89 144.62 99.64 135.73 99.64C128.36 99.64 121.6 101.2 116.69 104.04L9.82003 165.73C6.71003 167.52 4.47003 169.75 3.20003 172.25L3.18003 172.29C1.41003 175.63 0.530029 180.61 0.530029 187.32C0.530029 197.43 4.51003 202.8 4.51003 202.8C6.20003 205.72 9.14003 208.54 13.32 210.95L286.94 368.92C299.64 376.25 318.84 377.05 329.84 370.7L335.12 367.65L436.71 309C439.29 307.51 441.18 305.76 442.41 303.86C442.41 303.86 446.39 298.5 446.39 288.38C446.39 278.26 443.72 273.31 443.72 273.31H443.7Z" fill="url(#paint0_radial_2_9201)"/>
</g>
<g style="mix-blend-mode:color-dodge" opacity="0.6">
<path d="M443.7 273.31C442.02 269.8 438.7 266.48 434.03 263.78L160.41 105.81C153.61 101.89 144.62 99.64 135.73 99.64C128.36 99.64 121.6 101.2 116.69 104.04L9.82003 165.73C6.71003 167.52 4.47003 169.75 3.20003 172.25L3.18003 172.29C1.41003 175.63 0.530029 180.61 0.530029 187.32C0.530029 197.43 4.51003 202.8 4.51003 202.8C6.20003 205.72 9.14003 208.54 13.32 210.95L286.94 368.92C299.64 376.25 318.84 377.05 329.84 370.7L335.12 367.65L436.71 309C439.29 307.51 441.18 305.76 442.41 303.86C442.41 303.86 446.39 298.5 446.39 288.38C446.39 278.26 443.72 273.31 443.72 273.31H443.7Z" fill="url(#paint1_radial_2_9201)"/>
</g>
<g style="mix-blend-mode:color-burn" opacity="0.2">
<path d="M443.7 273.31C442.02 269.8 438.7 266.48 434.03 263.78L160.41 105.81C153.61 101.89 144.62 99.64 135.73 99.64C128.36 99.64 121.6 101.2 116.69 104.04L9.82003 165.73C6.71003 167.52 4.47003 169.75 3.20003 172.25L3.18003 172.29C1.41003 175.63 0.530029 180.61 0.530029 187.32C0.530029 197.43 4.51003 202.8 4.51003 202.8C6.20003 205.72 9.14003 208.54 13.32 210.95L286.94 368.92C299.64 376.25 318.84 377.05 329.84 370.7L335.12 367.65L436.71 309C439.29 307.51 441.18 305.76 442.41 303.86C442.41 303.86 446.39 298.5 446.39 288.38C446.39 278.26 443.72 273.31 443.72 273.31H443.7Z" fill="url(#paint2_radial_2_9201)"/>
</g>
<path d="M417.92 280.08L316.18 338.82C305.41 345.04 286.6 344.26 274.16 337.08L33.68 198.24C21.24 191.06 19.89 180.2 30.66 173.98L132.4 115.24C143.17 109.02 161.98 109.8 174.42 116.98L414.9 255.82C427.34 263 428.69 273.86 417.92 280.08Z" fill="url(#paint3_linear_2_9201)"/>
<mask id="mask0_2_9201" style="mask-type:luminance" maskUnits="userSpaceOnUse" x="23" y="111" width="403" height="233">
<path d="M417.92 280.08L316.18 338.82C305.41 345.04 286.6 344.26 274.16 337.08L33.68 198.24C21.24 191.06 19.89 180.2 30.66 173.98L132.4 115.24C143.17 109.02 161.98 109.8 174.42 116.98L414.9 255.82C427.34 263 428.69 273.86 417.92 280.08Z" fill="white"/>
</mask>
<g mask="url(#mask0_2_9201)">
<g opacity="0.5">
<path d="M358.81 299.38L360.76 300.5C361.85 301.13 361.85 302.15 360.75 302.79L358.79 303.92" stroke="white" stroke-width="1.29" stroke-miterlimit="10" stroke-linecap="round"/>
<path d="M356.38 303.92L354.43 302.8C353.34 302.17 353.34 301.15 354.44 300.51L356.4 299.38" stroke="white" stroke-width="1.29" stroke-miterlimit="10" stroke-linecap="round"/>
<path d="M391.29 285.16L386.15 285.17L386.16 282.2" fill="white"/>
<path d="M391.29 285.16L386.15 285.17L386.16 282.2" stroke="white" stroke-width="1.1" stroke-linecap="round" stroke-linejoin="round"/>
<path d="M386.15 285.17L391.09 282.31" stroke="white" stroke-width="1.1" stroke-linecap="round" stroke-linejoin="round"/>
<path d="M323.8 320.28L326.96 318.45C328.06 317.82 328.14 316.84 327.15 316.26" fill="white"/>
<path d="M323.8 320.28L326.96 318.45C328.06 317.82 328.14 316.84 327.15 316.26" stroke="white" stroke-width="1.05" stroke-linecap="round" stroke-linejoin="round"/>
<path d="M330.48 318.19L327.32 320.02C326.22 320.65 326.14 321.63 327.13 322.21" fill="white"/>
<path d="M330.48 318.19L327.32 320.02C326.22 320.65 326.14 321.63 327.13 322.21" stroke="white" stroke-width="1.05" stroke-linecap="round" stroke-linejoin="round"/>
</g>
<g opacity="0.5">
<path d="M295.73 313.97L292.34 315.93C289.03 317.84 283.25 317.6 279.43 315.4L277.99 314.57C274.17 312.36 273.75 309.03 277.06 307.12L280.45 305.16C283.76 303.25 289.54 303.49 293.36 305.69L294.8 306.52C298.62 308.73 299.03 312.06 295.73 313.97Z" fill="white"/>
<path d="M317.49 301.4L314.1 303.36C310.79 305.27 305.01 305.03 301.19 302.83L299.75 302C295.93 299.79 295.52 296.46 298.82 294.55L302.21 292.59C305.52 290.68 311.3 290.92 315.12 293.12L316.56 293.95C320.38 296.16 320.79 299.49 317.49 301.4Z" fill="white"/>
<path d="M339.26 288.84L335.87 290.8C332.56 292.71 326.78 292.47 322.96 290.27L321.52 289.44C317.7 287.23 317.29 283.9 320.59 281.99L323.98 280.03C327.29 278.12 333.07 278.36 336.89 280.56L338.33 281.39C342.15 283.6 342.56 286.93 339.26 288.84Z" fill="white"/>
<path d="M361.02 276.27L357.63 278.23C354.32 280.14 348.54 279.9 344.72 277.69L343.28 276.86C339.46 274.65 339.05 271.32 342.35 269.41L345.74 267.45C349.05 265.54 354.83 265.78 358.65 267.99L360.09 268.82C363.91 271.03 364.32 274.36 361.02 276.27Z" fill="white"/>
<path d="M382.78 263.71L379.39 265.67C376.08 267.58 370.3 267.34 366.48 265.14L365.04 264.31C361.22 262.1 360.81 258.77 364.11 256.86L367.5 254.9C370.81 252.99 376.59 253.23 380.41 255.43L381.85 256.26C385.67 258.47 386.08 261.8 382.78 263.71Z" fill="white"/>
</g>
<path opacity="0.5" d="M346.65 240.06L251.38 295.07C248.61 296.67 243.77 296.47 240.57 294.62C237.37 292.77 237.02 289.98 239.79 288.38L335.06 233.37C337.83 231.77 342.67 231.97 345.87 233.82C349.07 235.67 349.42 238.46 346.65 240.06Z" fill="white"/>
</g>
<g style="mix-blend-mode:multiply" opacity="0.2">
<g style="mix-blend-mode:multiply">
<path d="M30.66 174.81L132.4 116.07C143.17 109.85 161.98 110.63 174.42 117.81L414.9 256.65C421.5 260.46 424.98 265.31 425.18 269.96C425.39 265.07 421.9 259.87 414.9 255.83L174.42 116.98C161.98 109.8 143.17 109.02 132.4 115.24L30.66 173.98C25.61 176.9 23.22 180.83 23.4 184.93C23.56 181.13 25.95 177.53 30.66 174.81Z" fill="black"/>
</g>
</g>
<g style="mix-blend-mode:soft-light" opacity="0.2">
<path d="M414.87 255.92L292.02 184.99L174.27 117.01C161.83 109.83 143.01 109.05 132.23 115.27L30.44 174.04C25.39 176.95 23.01 180.89 23.17 184.99H268.92C276.53 185 284.01 187 290.6 190.81L414.87 262.55C420.09 265.56 423.35 269.22 424.59 272.92C426.6 267.28 423.26 260.77 414.87 255.93V255.92Z" fill="white"/>
</g>
<path d="M30.44 174.87L132.23 116.1C143.01 109.88 161.83 110.66 174.27 117.84L414.87 256.75C421.48 260.57 424.96 265.42 425.15 270.06C425.36 265.17 421.87 259.96 414.87 255.92L174.27 117.01C161.83 109.83 143.01 109.05 132.23 115.27L30.44 174.04C25.39 176.96 23 180.9 23.17 185C23.33 181.2 25.72 177.59 30.44 174.87Z" fill="#29353B"/>
<path d="M237.19 19.96L230.14 15.86H230.21L237.26 19.96H237.19Z" fill="#9C9C9C"/>
<path d="M237.26 19.97L230.21 15.87C230.36 15.87 230.5 15.9 230.64 15.92L237.69 20.02C237.55 20 237.41 19.98 237.26 19.97Z" fill="#999999"/>
<path d="M237.68 20.02L230.63 15.92C230.77 15.94 230.9 15.97 231.03 16.01L238.08 20.11C237.95 20.07 237.82 20.04 237.68 20.02Z" fill="#969696"/>
<path d="M238.08 20.11L231.03 16.01C231.16 16.05 231.28 16.09 231.41 16.14L238.46 20.24C238.34 20.19 238.21 20.15 238.08 20.11Z" fill="#949494"/>
<path d="M238.46 20.24L231.41 16.14C231.53 16.19 231.65 16.25 231.77 16.31L238.82 20.41C238.7 20.34 238.59 20.29 238.46 20.24Z" fill="#919191"/>
<path d="M238.82 20.4199L231.77 16.3199L231.81 16.3399L238.86 20.4399L238.82 20.4199Z" fill="#8F8F8F"/>
<path d="M233.81 20.93L226.76 16.83C227.1 16.63 227.44 16.47 227.77 16.33L234.82 20.43C234.49 20.57 234.16 20.73 233.81 20.93Z" fill="#A6A6A6"/>
<path d="M234.81 20.4299L227.76 16.3299C228.04 16.2099 228.32 16.1199 228.59 16.0499L235.64 20.1499C235.37 20.2199 235.1 20.3199 234.81 20.4299Z" fill="#A3A3A3"/>
<path d="M235.64 20.15L228.59 16.05C228.8 15.99 229.01 15.95 229.21 15.92L236.26 20.02C236.06 20.05 235.85 20.1 235.64 20.15Z" fill="#A1A1A1"/>
<path d="M236.26 20.01L229.21 15.91C229.39 15.88 229.56 15.87 229.74 15.86L236.79 19.96C236.62 19.96 236.44 19.98 236.26 20.01Z" fill="#9E9E9E"/>
<path d="M236.79 19.96L229.74 15.86C229.88 15.86 230.01 15.86 230.14 15.86L237.19 19.96C237.06 19.96 236.93 19.96 236.79 19.96Z" fill="#9C9C9C"/>
<path d="M237.19 19.9601C239.4 20.0601 240.92 21.8901 240.92 24.9801L241.15 106.38C241.15 106.94 241.1 107.52 241.01 108.11C240.85 109.13 240.55 110.18 240.13 111.21C239.6 112.53 238.88 113.81 238.04 114.96C237.66 115.47 237.26 115.96 236.84 116.41C236.3 116.96 236.08 117.17 235.85 117.36C235.28 117.85 234.69 118.29 234.08 118.64L122.83 182.87C121.43 183.68 120.05 184.95 118.89 186.52L101.53 209.92L99.03 106.91C99.03 103.82 100.51 100.26 102.72 97.6001C103.72 96.3901 104.87 95.3701 106.1 94.6601L233.81 20.9301C235.03 20.2201 236.19 19.9201 237.19 19.9601Z" fill="url(#paint4_radial_2_9201)"/>
<path d="M219.7 57.9801L219.69 52.4901L127.46 105.73L127.48 111.23L219.7 57.9801Z" fill="white"/>
<path d="M219.74 72.4601L219.73 66.9601L127.5 120.21L127.52 125.7L219.74 72.4601Z" fill="white"/>
<path d="M205.63 109.59L205.62 104.1L127.58 149.15L127.6 154.65L205.63 109.59Z" fill="white"/>
<path d="M205.59 95.12L205.58 89.63L127.54 134.68L127.56 140.17L205.59 95.12Z" fill="white"/>
<path d="M231.81 16.3401C231.32 16.0601 230.76 15.8901 230.15 15.8701C229.14 15.8201 227.99 16.1301 226.77 16.8401L99.07 90.5601C98.69 90.7801 98.33 91.0301 97.97 91.3001C97.87 91.3801 97.77 91.4601 97.66 91.5401C97.39 91.7601 97.13 91.9901 96.87 92.2401C96.81 92.3001 96.75 92.3401 96.69 92.4001C96.65 92.4401 96.62 92.4801 96.58 92.5201C96.45 92.6501 96.33 92.7801 96.21 92.9101C96.11 93.0101 96.01 93.1101 95.92 93.2201C95.84 93.3101 95.77 93.4001 95.69 93.4901C95.57 93.6301 95.46 93.7701 95.35 93.9101C95.2 94.1001 95.06 94.2901 94.92 94.4901L94.89 94.5301V94.5501C94.74 94.7501 94.6 94.9601 94.47 95.1701C94.39 95.3001 94.31 95.4301 94.23 95.5601C94.21 95.6001 94.18 95.6401 94.16 95.6801C94.14 95.7101 94.12 95.7401 94.1 95.7701C93.99 95.9701 93.87 96.1701 93.77 96.3701C93.71 96.4801 93.65 96.6001 93.6 96.7101C93.58 96.7601 93.55 96.8001 93.53 96.8501C93.51 96.8901 93.49 96.9301 93.47 96.9801C93.37 97.1801 93.28 97.3901 93.19 97.5901C93.15 97.6901 93.11 97.8001 93.06 97.9001C93.04 97.9501 93.02 98.0101 92.99 98.0601C92.97 98.1201 92.94 98.1701 92.92 98.2301C92.83 98.4501 92.75 98.6701 92.68 98.9001C92.66 98.9701 92.64 99.0401 92.62 99.1101C92.6 99.1801 92.58 99.2501 92.56 99.3201C92.53 99.4201 92.5 99.5201 92.47 99.6201C92.4 99.8901 92.33 100.16 92.27 100.42C92.2 100.76 92.14 101.09 92.1 101.42C92.1 101.45 92.1 101.48 92.1 101.51C92.05 101.95 92.01 102.38 92.02 102.8L94.52 205.81L101.57 209.91L99.07 106.9C99.07 106.48 99.1 106.04 99.15 105.6C99.24 104.88 99.4 104.14 99.62 103.41C99.64 103.34 99.66 103.27 99.68 103.2C99.79 102.85 99.92 102.5 100.05 102.15C100.07 102.1 100.09 102.04 100.12 101.99C100.26 101.64 100.42 101.29 100.59 100.94C100.61 100.9 100.64 100.85 100.66 100.81C100.84 100.46 101.02 100.12 101.22 99.7801C101.24 99.7401 101.27 99.7001 101.29 99.6601C101.5 99.3101 101.72 98.9701 101.95 98.6401L101.98 98.6001C102.23 98.2501 102.48 97.9201 102.75 97.5901C102.92 97.3901 103.09 97.2001 103.27 97.0101C103.39 96.8801 103.51 96.7401 103.64 96.6201C103.74 96.5201 103.84 96.4301 103.93 96.3401C104.19 96.0901 104.45 95.8601 104.72 95.6401C104.82 95.5601 104.92 95.4701 105.03 95.4001C105.39 95.1301 105.76 94.8701 106.13 94.6601L233.81 20.9301C235.03 20.2201 236.19 19.9201 237.19 19.9601C237.8 19.9901 238.36 20.1501 238.85 20.4301L231.8 16.3301L231.81 16.3401Z" fill="url(#paint5_radial_2_9201)"/>
<path d="M269.2 5.77004C269.33 5.71004 269.46 5.66004 269.59 5.60004C269.93 5.46004 270.27 5.33004 270.61 5.21004C270.7 5.18004 270.78 5.14004 270.87 5.11004C271.29 4.97004 271.71 4.84004 272.12 4.73004C272.36 4.66004 272.6 4.61004 272.84 4.55004C272.95 4.52004 273.07 4.49004 273.18 4.47004C273.53 4.39004 273.88 4.33004 274.23 4.28004C274.76 4.20004 275.27 4.15004 275.78 4.13004C275.88 4.13004 275.99 4.12004 276.09 4.11004C276.54 4.09004 276.99 4.10004 277.43 4.12004C277.51 4.12004 277.58 4.13004 277.66 4.14004C278.01 4.17004 278.36 4.21004 278.71 4.26004C278.82 4.28004 278.92 4.29004 279.03 4.31004C279.42 4.38004 279.81 4.47004 280.19 4.58004C280.21 4.58004 280.23 4.59004 280.25 4.60004C280.61 4.70004 280.95 4.83004 281.29 4.97004C281.39 5.01004 281.49 5.05004 281.59 5.10004C281.88 5.23004 282.16 5.37004 282.44 5.52004C282.53 5.57004 282.63 5.61004 282.72 5.67004L275.67 1.57004C275.67 1.57004 275.59 1.52004 275.54 1.50004C275.49 1.47004 275.44 1.45004 275.39 1.43004C275.11 1.28004 274.83 1.14004 274.54 1.01004C274.49 0.990042 274.44 0.960042 274.38 0.930042C274.34 0.910042 274.29 0.900042 274.24 0.880042C273.9 0.740042 273.55 0.620042 273.2 0.510042C273.19 0.510042 273.17 0.500042 273.16 0.490042C272.78 0.380042 272.4 0.290042 272 0.220042C271.95 0.220042 271.91 0.200042 271.87 0.190042C271.81 0.180042 271.75 0.180042 271.68 0.170042C271.34 0.120042 270.99 0.0700423 270.63 0.0500423C270.57 0.0500423 270.52 0.0300423 270.46 0.0300423C270.44 0.0300423 270.42 0.0300423 270.4 0.0300423C269.96 4.22858e-05 269.51 4.22848e-05 269.06 0.0200423C269.02 0.0200423 268.97 0.0200423 268.93 0.0200423C268.87 0.0200423 268.81 0.0300423 268.75 0.0400423C268.24 0.0700423 267.73 0.110042 267.2 0.200042C266.86 0.250042 266.51 0.320042 266.16 0.390042C266.05 0.410042 265.94 0.450042 265.82 0.470042C265.6 0.520042 265.38 0.570042 265.16 0.630042C265.14 0.630042 265.12 0.640042 265.09 0.650042C264.68 0.760042 264.26 0.890042 263.84 1.03004C263.75 1.06004 263.67 1.10004 263.58 1.13004C263.24 1.25004 262.9 1.38004 262.56 1.52004C262.51 1.54004 262.47 1.55004 262.42 1.57004C262.34 1.60004 262.25 1.65004 262.17 1.69004C261.8 1.85004 261.44 2.01004 261.07 2.19004C260.93 2.26004 260.79 2.32004 260.65 2.39004C260.16 2.64004 259.68 2.89004 259.18 3.18004C258.57 3.53004 257.96 3.92004 257.36 4.32004C257.26 4.39004 257.15 4.46004 257.05 4.53004C256.48 4.92004 255.91 5.34004 255.35 5.77004C255.24 5.85004 255.13 5.94004 255.03 6.02004C254.46 6.47004 253.89 6.93004 253.34 7.42004C253.29 7.46004 253.24 7.51004 253.2 7.55004C252.67 8.02004 252.14 8.52004 251.62 9.02004C251.57 9.07004 251.51 9.12004 251.46 9.17004C251.43 9.20004 251.4 9.24004 251.36 9.27004C250.96 9.67004 250.57 10.07 250.18 10.48C250.16 10.5 250.14 10.52 250.13 10.54C249.76 10.94 249.4 11.34 249.04 11.75C249.01 11.79 248.97 11.82 248.94 11.86C248.9 11.91 248.86 11.96 248.81 12.01C248.23 12.68 247.66 13.37 247.11 14.08C247.09 14.1 247.08 14.12 247.06 14.14C247.02 14.2 246.98 14.25 246.94 14.31C246.5 14.88 246.07 15.46 245.65 16.05C245.61 16.11 245.56 16.17 245.52 16.23C245.5 16.26 245.48 16.29 245.46 16.32C245.06 16.89 244.67 17.48 244.29 18.07C244.25 18.13 244.21 18.18 244.18 18.24C244.13 18.33 244.08 18.41 244.02 18.5C243.71 18.98 243.42 19.47 243.13 19.96C243.08 20.04 243.03 20.12 242.99 20.2C242.97 20.23 242.96 20.26 242.94 20.29C242.61 20.86 242.29 21.43 241.98 22.01C241.95 22.06 241.93 22.1 241.9 22.15C241.85 22.25 241.8 22.34 241.75 22.44C241.51 22.9 241.27 23.37 241.04 23.83C240.99 23.93 240.94 24.02 240.89 24.12C240.86 24.18 240.84 24.24 240.81 24.3C240.53 24.89 240.25 25.48 240 26.08C240 26.1 239.98 26.12 239.98 26.13C239.95 26.19 239.93 26.26 239.9 26.32C239.67 26.86 239.45 27.4 239.24 27.95C239.21 28.04 239.17 28.12 239.13 28.21C239.1 28.28 239.08 28.36 239.05 28.43C238.81 29.07 238.57 29.71 238.36 30.36V30.4C238.36 30.4 238.32 30.48 238.31 30.51C238.09 31.17 237.89 31.84 237.7 32.51C237.68 32.59 237.65 32.68 237.62 32.76C237.61 32.81 237.6 32.85 237.59 32.9C237.38 33.67 237.19 34.44 237.02 35.21C237.01 35.28 236.98 35.35 236.97 35.42C236.95 35.52 236.93 35.62 236.91 35.72C236.85 36.02 236.79 36.32 236.74 36.62C236.7 36.83 236.66 37.04 236.63 37.25C236.58 37.56 236.53 37.87 236.49 38.18C236.47 38.33 236.44 38.47 236.42 38.62C236.42 38.66 236.42 38.7 236.41 38.74C236.33 39.41 236.26 40.07 236.22 40.73C236.22 40.87 236.2 41.01 236.19 41.15C236.15 41.83 236.12 42.5 236.13 43.16C236.13 43.85 236.16 44.52 236.2 45.17C236.22 45.39 236.23 45.6 236.25 45.81C236.27 46.02 236.29 46.23 236.32 46.44C236.4 47.06 236.49 47.67 236.61 48.25C236.65 48.44 236.69 48.64 236.73 48.83C236.84 49.3 236.96 49.76 237.1 50.21C237.29 50.83 237.51 51.43 237.75 51.99C238.13 52.88 238.58 53.69 239.08 54.43C239.13 54.5 239.17 54.56 239.22 54.63C239.72 55.34 240.28 55.98 240.89 56.55C241.5 57.11 242.16 57.6 242.87 58.01L249.92 62.11C248.51 61.29 247.28 60.16 246.27 58.73C246.22 58.66 246.18 58.6 246.13 58.53C245.63 57.79 245.18 56.97 244.8 56.09C244.56 55.52 244.34 54.93 244.15 54.31C244.01 53.86 243.89 53.4 243.78 52.93C243.74 52.74 243.69 52.55 243.66 52.35C243.54 51.77 243.45 51.16 243.37 50.54C243.34 50.33 243.32 50.12 243.3 49.91C243.28 49.7 243.26 49.48 243.25 49.27C243.2 48.62 243.18 47.95 243.18 47.26C243.18 46.6 243.2 45.92 243.24 45.25C243.24 45.11 243.26 44.97 243.27 44.83C243.32 44.17 243.38 43.51 243.46 42.84C243.48 42.65 243.51 42.46 243.54 42.28C243.58 41.97 243.63 41.66 243.68 41.36C243.71 41.15 243.75 40.94 243.79 40.73C243.84 40.43 243.9 40.13 243.96 39.82C243.99 39.65 244.03 39.48 244.07 39.31C244.24 38.54 244.43 37.77 244.64 36.99C244.68 36.86 244.71 36.73 244.75 36.6C244.94 35.93 245.14 35.27 245.36 34.6C245.38 34.55 245.39 34.5 245.41 34.45C245.63 33.81 245.86 33.16 246.1 32.52C246.16 32.36 246.22 32.2 246.29 32.03C246.5 31.49 246.72 30.95 246.95 30.41C246.99 30.33 247.02 30.25 247.05 30.16C247.31 29.56 247.58 28.97 247.86 28.38C247.93 28.23 248.01 28.07 248.09 27.92C248.32 27.45 248.55 26.99 248.8 26.53C248.87 26.39 248.95 26.25 249.02 26.1C249.33 25.52 249.65 24.95 249.98 24.38C250.04 24.27 250.11 24.17 250.17 24.06C250.46 23.57 250.76 23.08 251.07 22.59C251.16 22.45 251.25 22.31 251.34 22.17C251.72 21.58 252.11 20.99 252.51 20.42C252.57 20.33 252.63 20.25 252.69 20.16C253.11 19.57 253.54 18.98 253.98 18.41C254.04 18.34 254.09 18.26 254.15 18.18C254.7 17.47 255.27 16.78 255.86 16.1C255.94 16.01 256.01 15.92 256.09 15.84C256.45 15.43 256.81 15.02 257.19 14.63C257.21 14.61 257.23 14.59 257.24 14.57C257.63 14.16 258.02 13.75 258.42 13.36C258.5 13.28 258.59 13.2 258.68 13.11C259.2 12.6 259.73 12.11 260.26 11.63C260.31 11.59 260.35 11.54 260.4 11.5C260.95 11.01 261.52 10.55 262.09 10.1C262.2 10.01 262.31 9.93004 262.41 9.85004C262.97 9.42004 263.54 9.00004 264.11 8.61004C264.21 8.54004 264.31 8.47004 264.42 8.41004C265.02 8.01004 265.63 7.62004 266.24 7.27004C266.73 6.99004 267.22 6.73004 267.71 6.48004C267.85 6.41004 267.99 6.34004 268.13 6.28004C268.5 6.10004 268.87 5.93004 269.23 5.78004L269.2 5.77004Z" fill="url(#paint6_radial_2_9201)"/>
<path d="M266.21 7.2701C279 -0.109897 289.4 5.8101 289.44 20.5201C289.44 21.2101 289.42 21.9001 289.38 22.6101C289.37 22.8401 289.35 23.0801 289.33 23.3101C289.31 23.5501 289.29 23.7801 289.27 24.0201C289.2 24.7301 289.11 25.4401 288.99 26.1601C288.95 26.4001 288.91 26.6401 288.87 26.8801C288.76 27.4801 288.64 28.0801 288.51 28.6801C288.32 29.5201 288.11 30.3701 287.87 31.2101C287.49 32.5401 287.05 33.8601 286.56 35.1801C286.51 35.3001 286.47 35.4201 286.42 35.5401C282.45 45.8301 274.96 55.5401 266.37 60.5001C257.78 65.4601 250.26 64.4101 246.24 58.7301C246.19 58.6601 246.15 58.6001 246.1 58.5301C245.6 57.7901 245.15 56.9701 244.77 56.0901C244.53 55.5201 244.31 54.9301 244.12 54.3101C243.98 53.8601 243.86 53.4001 243.75 52.9301C243.71 52.7401 243.66 52.5501 243.63 52.3501C243.51 51.7701 243.42 51.1601 243.34 50.5401C243.31 50.3301 243.29 50.1201 243.27 49.9101C243.25 49.7001 243.23 49.4801 243.22 49.2701C243.17 48.6201 243.15 47.9501 243.15 47.2601C243.11 32.5601 253.44 14.6601 266.23 7.2701H266.21Z" fill="url(#paint7_radial_2_9201)"/>
<path d="M268.47 14.27L264 16.85L264.72 42.15L267.89 40.32L268.47 14.27Z" fill="white"/>
<path d="M266.34 52.2001C268.01 51.2301 269.08 49.1701 269.08 47.3001C269.08 45.3801 268 44.6001 266.33 45.5701C264.75 46.4801 263.59 48.5501 263.59 50.4701C263.59 52.3401 264.72 53.1401 266.34 52.2001Z" fill="white"/>
<path d="M361.86 109.96L354.81 105.86H354.88L361.93 109.96H361.86Z" fill="#9C9C9C"/>
<path d="M361.92 109.97L354.87 105.87C355.02 105.87 355.16 105.9 355.3 105.92L362.35 110.02C362.21 110 362.07 109.98 361.92 109.97Z" fill="#999999"/>
<path d="M362.35 110.02L355.3 105.92C355.44 105.94 355.57 105.97 355.7 106.01L362.75 110.11C362.62 110.07 362.49 110.04 362.35 110.02Z" fill="#969696"/>
<path d="M362.75 110.11L355.7 106.01C355.83 106.05 355.95 106.09 356.08 106.14L363.13 110.24C363.01 110.19 362.88 110.15 362.75 110.11Z" fill="#949494"/>
<path d="M363.12 110.24L356.07 106.14C356.19 106.19 356.31 106.25 356.43 106.31L363.48 110.41C363.36 110.34 363.25 110.29 363.12 110.24Z" fill="#919191"/>
<path d="M363.48 110.42L356.43 106.32L356.47 106.34L363.52 110.44L363.48 110.42Z" fill="#8F8F8F"/>
<path d="M358.47 110.93L351.42 106.83C351.76 106.63 352.1 106.47 352.43 106.33L359.48 110.43C359.15 110.57 358.82 110.73 358.47 110.93Z" fill="#A6A6A6"/>
<path d="M359.48 110.43L352.43 106.33C352.71 106.21 352.99 106.12 353.26 106.05L360.31 110.15C360.04 110.22 359.77 110.32 359.48 110.43Z" fill="#A3A3A3"/>
<path d="M360.31 110.15L353.26 106.05C353.47 105.99 353.68 105.95 353.88 105.92L360.93 110.02C360.73 110.05 360.52 110.1 360.31 110.15Z" fill="#A1A1A1"/>
<path d="M360.93 110.01L353.88 105.91C354.06 105.88 354.23 105.87 354.41 105.86L361.46 109.96C361.29 109.96 361.11 109.98 360.93 110.01Z" fill="#9E9E9E"/>
<path d="M361.46 109.96L354.41 105.86C354.55 105.86 354.68 105.86 354.81 105.86L361.86 109.96C361.73 109.96 361.6 109.96 361.46 109.96Z" fill="#9C9C9C"/>
<path d="M361.86 109.96C364.07 110.06 365.59 111.89 365.59 114.98L365.82 176.38C365.82 176.94 365.77 177.52 365.68 178.11C365.52 179.13 365.22 180.18 364.8 181.21C364.27 182.53 363.55 183.81 362.71 184.96C362.33 185.47 361.93 185.96 361.51 186.41C360.97 186.96 360.75 187.17 360.52 187.36C359.95 187.85 359.36 188.29 358.75 188.64L247.5 252.87C246.1 253.68 244.72 254.95 243.56 256.52L226.2 279.92L223.7 196.91C223.7 193.82 225.18 190.26 227.39 187.6C228.39 186.39 229.54 185.37 230.77 184.66L358.46 110.94C359.68 110.23 360.84 109.93 361.84 109.97L361.86 109.96Z" fill="url(#paint8_radial_2_9201)"/>
<path d="M356.47 106.34C355.98 106.06 355.42 105.89 354.81 105.87C353.8 105.82 352.65 106.13 351.43 106.84L223.74 180.56C223.36 180.78 223 181.03 222.64 181.3C222.54 181.38 222.44 181.46 222.33 181.54C222.06 181.76 221.8 181.99 221.54 182.24C221.48 182.3 221.42 182.34 221.36 182.4C221.32 182.44 221.29 182.48 221.25 182.52C221.12 182.65 221 182.78 220.88 182.91C220.78 183.01 220.68 183.11 220.59 183.22C220.51 183.31 220.44 183.4 220.36 183.49C220.24 183.63 220.13 183.77 220.02 183.91C219.87 184.1 219.73 184.29 219.59 184.49L219.56 184.53V184.55C219.41 184.75 219.27 184.96 219.14 185.17C219.06 185.3 218.98 185.43 218.9 185.56C218.88 185.6 218.85 185.64 218.83 185.68C218.81 185.71 218.79 185.74 218.77 185.77C218.66 185.97 218.54 186.17 218.44 186.37C218.38 186.48 218.32 186.6 218.27 186.71C218.25 186.76 218.22 186.8 218.2 186.85C218.18 186.89 218.16 186.93 218.14 186.98C218.04 187.18 217.95 187.39 217.86 187.59C217.82 187.69 217.78 187.8 217.73 187.9C217.71 187.95 217.69 188.01 217.66 188.06C217.64 188.12 217.61 188.17 217.59 188.23C217.5 188.45 217.42 188.67 217.35 188.9C217.33 188.97 217.31 189.04 217.29 189.11C217.27 189.18 217.25 189.25 217.23 189.32C217.2 189.42 217.17 189.52 217.14 189.62C217.07 189.89 217 190.16 216.94 190.42C216.87 190.76 216.81 191.09 216.77 191.42C216.77 191.45 216.77 191.48 216.77 191.51C216.72 191.95 216.68 192.38 216.69 192.8L219.19 275.81L226.24 279.91L223.74 196.9C223.74 196.48 223.77 196.04 223.82 195.6C223.91 194.88 224.07 194.14 224.29 193.41C224.31 193.34 224.33 193.27 224.35 193.2C224.46 192.85 224.59 192.5 224.72 192.15C224.74 192.1 224.76 192.04 224.79 191.99C224.93 191.64 225.09 191.29 225.26 190.94C225.28 190.9 225.31 190.85 225.33 190.81C225.51 190.46 225.69 190.12 225.89 189.78C225.91 189.74 225.94 189.7 225.96 189.66C226.17 189.31 226.39 188.97 226.62 188.64L226.65 188.6C226.9 188.25 227.15 187.92 227.42 187.59C227.59 187.39 227.76 187.2 227.94 187.01C228.06 186.88 228.18 186.74 228.31 186.62C228.41 186.52 228.51 186.43 228.6 186.34C228.86 186.09 229.12 185.86 229.39 185.64C229.49 185.56 229.59 185.47 229.7 185.4C230.06 185.13 230.43 184.87 230.8 184.66L358.49 110.94C359.71 110.23 360.87 109.93 361.87 109.97C362.48 110 363.04 110.16 363.53 110.44L356.48 106.34H356.47Z" fill="url(#paint9_radial_2_9201)"/>
<g style="mix-blend-mode:darken">
<path d="M365.59 114.98C365.59 112.71 364.76 111.13 363.45 110.4C363.47 110.41 363.5 110.42 363.52 110.43L356.47 106.33C355.98 106.05 355.42 105.88 354.81 105.86C353.8 105.81 352.65 106.12 351.43 106.83L223.74 180.55C223.36 180.77 223 181.02 222.64 181.29C222.54 181.37 222.44 181.45 222.33 181.53C222.06 181.75 221.8 181.98 221.54 182.23C221.48 182.29 221.42 182.33 221.36 182.39C221.32 182.43 221.29 182.47 221.25 182.51C221.12 182.64 221 182.77 220.88 182.9C220.78 183 220.68 183.1 220.59 183.21C220.51 183.3 220.44 183.39 220.36 183.48C220.24 183.62 220.13 183.76 220.02 183.9C219.87 184.09 219.73 184.28 219.59 184.48L219.56 184.52V184.54C219.41 184.74 219.27 184.95 219.14 185.16C219.06 185.29 218.98 185.42 218.9 185.55C218.88 185.59 218.85 185.63 218.83 185.67C218.81 185.7 218.79 185.73 218.77 185.76C218.66 185.96 218.54 186.16 218.44 186.36C218.38 186.47 218.32 186.59 218.27 186.7C218.25 186.75 218.22 186.79 218.2 186.84C218.18 186.88 218.16 186.92 218.14 186.97C218.04 187.17 217.95 187.38 217.86 187.58C217.82 187.68 217.78 187.79 217.73 187.89C217.71 187.94 217.69 188 217.66 188.05C217.64 188.11 217.61 188.16 217.59 188.22C217.5 188.44 217.42 188.66 217.35 188.89C217.33 188.96 217.31 189.03 217.29 189.1C217.27 189.17 217.25 189.24 217.23 189.31C217.2 189.41 217.17 189.51 217.14 189.61C217.07 189.88 217 190.15 216.94 190.41C216.87 190.75 216.81 191.08 216.77 191.41C216.77 191.44 216.77 191.47 216.77 191.5C216.72 191.94 216.68 192.37 216.69 192.79L219.19 275.8L226.24 279.9L243.6 256.5C244.76 254.93 246.13 253.66 247.54 252.85L358.79 188.62C359.4 188.27 359.99 187.83 360.56 187.34C360.79 187.14 361.01 186.93 361.55 186.39C361.97 185.94 362.38 185.45 362.75 184.94C363.6 183.79 364.31 182.51 364.84 181.19C365.25 180.17 365.55 179.12 365.72 178.09C365.81 177.5 365.86 176.93 365.86 176.36L365.63 114.96L365.59 114.98ZM226.6 188.63C226.6 188.63 226.55 188.72 226.52 188.76C226.55 188.72 226.57 188.67 226.6 188.63ZM227.07 188.01C227.18 187.87 227.28 187.72 227.4 187.58C227.29 187.72 227.18 187.87 227.07 188.01ZM230.08 185.1C230.31 184.94 230.54 184.78 230.78 184.65C230.54 184.79 230.31 184.94 230.08 185.1ZM362.69 110.09C362.78 110.11 362.86 110.16 362.94 110.19C362.85 110.16 362.78 110.12 362.69 110.09Z" fill="#81C784"/>
</g>
<path d="M344.41 142.46L344.4 136.96L252.17 190.21L252.18 195.7L344.41 142.46Z" fill="white"/>
<path d="M330.3 179.59L330.28 174.1L252.25 219.15L252.27 224.65L330.3 179.59Z" fill="white"/>
<path d="M330.26 165.12L330.24 159.63L252.21 204.68L252.23 210.17L330.26 165.12Z" fill="white"/>
<defs>
<radialGradient id="paint0_radial_2_9201" cx="0" cy="0" r="1" gradientUnits="userSpaceOnUse" gradientTransform="translate(181.5 268.68) scale(301.06 301.06)">
<stop stop-color="#000A2B"/>
<stop offset="0.22" stop-color="#000D38"/>
<stop offset="0.62" stop-color="#00155C"/>
<stop offset="1" stop-color="#001F84"/>
</radialGradient>
<radialGradient id="paint1_radial_2_9201" cx="0" cy="0" r="1" gradientUnits="userSpaceOnUse" gradientTransform="translate(309.5 265.68) scale(301.06 301.06)">
<stop stop-color="#4A148C"/>
<stop offset="0.16" stop-color="#48188F"/>
<stop offset="0.34" stop-color="#44269A"/>
<stop offset="0.53" stop-color="#3C3DAD"/>
<stop offset="0.73" stop-color="#325EC6"/>
<stop offset="0.93" stop-color="#2587E7"/>
<stop offset="1" stop-color="#2196F3"/>
</radialGradient>
<radialGradient id="paint2_radial_2_9201" cx="0" cy="0" r="1" gradientUnits="userSpaceOnUse" gradientTransform="translate(312.5 268.68) scale(236.05 236.05)">
<stop stop-color="#4A148C"/>
<stop offset="0.11" stop-color="#48188E"/>
<stop offset="0.24" stop-color="#462695"/>
<stop offset="0.38" stop-color="#413DA0"/>
<stop offset="0.52" stop-color="#3A5EB0"/>
<stop offset="0.67" stop-color="#3187C4"/>
<stop offset="0.82" stop-color="#26BADD"/>
<stop offset="0.98" stop-color="#19F5FA"/>
<stop offset="1" stop-color="#18FFFF"/>
</radialGradient>
<linearGradient id="paint3_linear_2_9201" x1="200.94" y1="322.91" x2="257.94" y2="88.9" gradientUnits="userSpaceOnUse">
<stop stop-color="#F301FE"/>
<stop offset="0.56" stop-color="#730F8C"/>
<stop offset="0.85" stop-color="#361756"/>
</linearGradient>
<radialGradient id="paint4_radial_2_9201" cx="0" cy="0" r="1" gradientUnits="userSpaceOnUse" gradientTransform="translate(133.43 195.6) scale(170.86 170.86)">
<stop stop-color="#0076AA"/>
<stop offset="0.16" stop-color="#007AAC"/>
<stop offset="0.33" stop-color="#0387B5"/>
<stop offset="0.51" stop-color="#069DC2"/>
<stop offset="0.7" stop-color="#0CBCD5"/>
<stop offset="0.89" stop-color="#13E4EE"/>
<stop offset="1" stop-color="#18FFFF"/>
</radialGradient>
<radialGradient id="paint5_radial_2_9201" cx="0" cy="0" r="1" gradientUnits="userSpaceOnUse" gradientTransform="translate(122.43 173.88) scale(169.07 169.07)">
<stop stop-color="#003CAA"/>
<stop offset="0.18" stop-color="#0040AB"/>
<stop offset="0.37" stop-color="#004DB0"/>
<stop offset="0.57" stop-color="#0063B8"/>
<stop offset="0.78" stop-color="#0082C2"/>
<stop offset="1" stop-color="#00ABD1"/>
</radialGradient>
<radialGradient id="paint6_radial_2_9201" cx="0" cy="0" r="1" gradientUnits="userSpaceOnUse" gradientTransform="translate(256.72 50.05) scale(71.5 71.5)">
<stop stop-color="#722C78"/>
<stop offset="0.99" stop-color="#E91E63"/>
</radialGradient>
<radialGradient id="paint7_radial_2_9201" cx="0" cy="0" r="1" gradientUnits="userSpaceOnUse" gradientTransform="translate(261.29 54.2101) scale(62.16 62.16)">
<stop stop-color="#9C27B0"/>
<stop offset="1" stop-color="#E91E63"/>
</radialGradient>
<radialGradient id="paint8_radial_2_9201" cx="0" cy="0" r="1" gradientUnits="userSpaceOnUse" gradientTransform="translate(258.1 267.11) scale(170.56 170.56)">
<stop stop-color="#0076AA"/>
<stop offset="0.16" stop-color="#007AAC"/>
<stop offset="0.33" stop-color="#0387B5"/>
<stop offset="0.51" stop-color="#069DC2"/>
<stop offset="0.7" stop-color="#0CBCD5"/>
<stop offset="0.89" stop-color="#13E4EE"/>
<stop offset="1" stop-color="#18FFFF"/>
</radialGradient>
<radialGradient id="paint9_radial_2_9201" cx="0" cy="0" r="1" gradientUnits="userSpaceOnUse" gradientTransform="translate(247.09 247.6) scale(167.62 167.62)">
<stop stop-color="#003CAA"/>
<stop offset="0.18" stop-color="#0040AB"/>
<stop offset="0.37" stop-color="#004DB0"/>
<stop offset="0.57" stop-color="#0063B8"/>
<stop offset="0.78" stop-color="#0082C2"/>
<stop offset="1" stop-color="#00ABD1"/>
</radialGradient>
</defs>
</svg>
