<svg width="182" height="182" viewBox="0 0 182 182" fill="none" xmlns="http://www.w3.org/2000/svg">
<path d="M5 60.2857V29.5714C5 23.0547 7.58877 16.8048 12.1968 12.1968C16.8048 7.58877 23.0547 5 29.5714 5H60.2857M121.714 5H152.429C158.945 5 165.195 7.58877 169.803 12.1968C174.411 16.8048 177 23.0547 177 29.5714V60.2857M5 121.714V152.429C5 158.945 7.58877 165.195 12.1968 169.803C16.8048 174.411 23.0547 177 29.5714 177H60.2857M177 121.714V152.429C177 158.945 174.411 165.195 169.803 169.803C165.195 174.411 158.945 177 152.429 177H121.714" stroke="url(#paint0_linear_53_1218)" stroke-width="10"/>
<path d="M97.3333 59.5386H116.333V122.231H97.3333V134.77H148V122.231H129V59.5386H148V47H97.3333V59.5386ZM72 47H46.6667C39.681 47 34 52.6235 34 59.5386V134.77H46.6667V103.424H72V134.77H84.6667V59.5386C84.6667 52.6235 78.9857 47 72 47ZM46.6667 90.885V59.5386H72V90.885H46.6667Z" fill="url(#paint1_linear_53_1218)"/>
<defs>
<linearGradient id="paint0_linear_53_1218" x1="5" y1="58.9322" x2="180.42" y2="59.8592" gradientUnits="userSpaceOnUse">
<stop stop-color="#9C3FE4"/>
<stop offset="1" stop-color="#C65647"/>
</linearGradient>
<linearGradient id="paint1_linear_53_1218" x1="34" y1="74.5211" x2="150.265" y2="75.3191" gradientUnits="userSpaceOnUse">
<stop stop-color="#9C3FE4"/>
<stop offset="1" stop-color="#C65647"/>
</linearGradient>
</defs>
</svg>
