<svg width="144" height="145" viewBox="0 0 144 145" fill="none" xmlns="http://www.w3.org/2000/svg">
<path d="M102.36 78.5C91.2 78.5 81.84 86.48 79.44 97.1C73.74 94.64 68.52 95.3 64.56 97.04C62.1 86.36 52.74 78.5 41.64 78.5C28.62 78.5 18 89.24 18 102.5C18 115.76 28.62 126.5 41.64 126.5C54 126.5 64.08 116.78 65.04 104.42C67.08 102.98 72.42 100.28 78.96 104.54C80.04 116.84 90 126.5 102.36 126.5C115.38 126.5 126 115.76 126 102.5C126 89.24 115.38 78.5 102.36 78.5ZM41.64 119.66C32.28 119.66 24.78 111.98 24.78 102.5C24.78 93.02 32.34 85.34 41.64 85.34C51 85.34 58.5 93.02 58.5 102.5C58.5 111.98 51 119.66 41.64 119.66ZM102.36 119.66C93 119.66 85.5 111.98 85.5 102.5C85.5 93.02 93 85.34 102.36 85.34C111.72 85.34 119.28 93.02 119.28 102.5C119.28 111.98 111.66 119.66 102.36 119.66ZM132 63.5H12V72.5H132V63.5ZM93.18 16.28C91.86 13.34 88.5 11.78 85.32 12.8L72 17.24L58.62 12.8L58.32 12.74C55.14 11.84 51.78 13.52 50.58 16.58L36 54.5H108L93.36 16.58L93.18 16.28Z" fill="url(#paint0_linear_630_9924)"/>
<defs>
<linearGradient id="paint0_linear_630_9924" x1="12" y1="48.2373" x2="134.386" y2="48.918" gradientUnits="userSpaceOnUse">
<stop stop-color="#9C3FE4"/>
<stop offset="1" stop-color="#C65647"/>
</linearGradient>
</defs>
</svg>
