<svg width="309" height="301" viewBox="0 0 309 301" fill="none" xmlns="http://www.w3.org/2000/svg">
<g filter="url(#filter0_bd_2_5321)">
<path d="M83.1219 18.7307C86.9944 8.38608 98.5197 3.13944 108.864 7.01199L214.314 46.4876C224.659 50.3602 229.905 61.8854 226.033 72.23L205.671 126.621C201.799 136.966 190.274 142.212 179.929 138.34L128.718 119.169C127.734 118.8 126.659 118.751 125.645 119.029L82.3114 130.891C77.6229 132.175 74.0455 126.69 77.11 122.916L87.0931 110.624C89.2474 107.971 88.1652 103.987 84.9648 102.789L74.4791 98.864C64.1345 94.9914 58.8879 83.4662 62.7604 73.1215L83.1219 18.7307Z" fill="#919AFF" fill-opacity="0.4" shape-rendering="crispEdges"/>
<path d="M83.1219 18.7307C86.9944 8.38608 98.5197 3.13944 108.864 7.01199L214.314 46.4876C224.659 50.3602 229.905 61.8854 226.033 72.23L205.671 126.621C201.799 136.966 190.274 142.212 179.929 138.34L128.718 119.169C127.734 118.8 126.659 118.751 125.645 119.029L82.3114 130.891C77.6229 132.175 74.0455 126.69 77.11 122.916L87.0931 110.624C89.2474 107.971 88.1652 103.987 84.9648 102.789L74.4791 98.864C64.1345 94.9914 58.8879 83.4662 62.7604 73.1215L83.1219 18.7307Z" stroke="white" stroke-opacity="0.2" stroke-width="2" shape-rendering="crispEdges"/>
</g>
<rect x="100.286" y="23.4365" width="117.148" height="12.2596" rx="6.12982" transform="rotate(20.5236 100.286 23.4365)" fill="url(#paint0_linear_2_5321)"/>
<rect x="91.6899" y="46.3995" width="117.148" height="12.2596" rx="6.12982" transform="rotate(20.5236 91.6899 46.3995)" fill="url(#paint1_linear_2_5321)"/>
<rect x="83.0936" y="69.3625" width="77.6444" height="12.2596" rx="6.12982" transform="rotate(20.5236 83.0936 69.3625)" fill="url(#paint2_linear_2_5321)"/>
<defs>
<filter id="filter0_bd_2_5321" x="0.485291" y="-15.2631" width="307.823" height="315.878" filterUnits="userSpaceOnUse" color-interpolation-filters="sRGB">
<feFlood flood-opacity="0" result="BackgroundImageFix"/>
<feGaussianBlur in="BackgroundImageFix" stdDeviation="10"/>
<feComposite in2="SourceAlpha" operator="in" result="effect1_backgroundBlur_2_5321"/>
<feColorMatrix in="SourceAlpha" type="matrix" values="0 0 0 0 0 0 0 0 0 0 0 0 0 0 0 0 0 0 127 0" result="hardAlpha"/>
<feOffset dx="10" dy="90"/>
<feGaussianBlur stdDeviation="35"/>
<feComposite in2="hardAlpha" operator="out"/>
<feColorMatrix type="matrix" values="0 0 0 0 0.12549 0 0 0 0 0.12549 0 0 0 0 0.12549 0 0 0 0.2 0"/>
<feBlend mode="normal" in2="effect1_backgroundBlur_2_5321" result="effect2_dropShadow_2_5321"/>
<feBlend mode="normal" in="SourceGraphic" in2="effect2_dropShadow_2_5321" result="shape"/>
</filter>
<linearGradient id="paint0_linear_2_5321" x1="91.432" y1="29.5664" x2="262.726" y2="26.842" gradientUnits="userSpaceOnUse">
<stop stop-color="white"/>
<stop offset="1" stop-color="white" stop-opacity="0"/>
</linearGradient>
<linearGradient id="paint1_linear_2_5321" x1="82.8357" y1="52.5294" x2="254.13" y2="49.805" gradientUnits="userSpaceOnUse">
<stop stop-color="white"/>
<stop offset="1" stop-color="white" stop-opacity="0"/>
</linearGradient>
<linearGradient id="paint2_linear_2_5321" x1="77.2251" y1="75.4924" x2="190.774" y2="74.2954" gradientUnits="userSpaceOnUse">
<stop stop-color="white"/>
<stop offset="1" stop-color="white" stop-opacity="0"/>
</linearGradient>
</defs>
</svg>
