<svg width="144" height="145" viewBox="0 0 144 145" fill="none" xmlns="http://www.w3.org/2000/svg">
<path d="M40.5 27.5C36.9196 27.5 33.4858 28.9223 30.9541 31.4541C28.4223 33.9858 27 37.4196 27 41V104C27 107.58 28.4223 111.014 30.9541 113.546C33.4858 116.078 36.9196 117.5 40.5 117.5H81V27.5H40.5ZM117 54.5V41C117 37.4196 115.578 33.9858 113.046 31.4541C110.514 28.9223 107.08 27.5 103.5 27.5H90V54.5H117ZM90 117.5H103.5C107.08 117.5 110.514 116.078 113.046 113.546C115.578 111.014 117 107.58 117 104V90.5H90V117.5ZM117 63.5H90V81.5H117V63.5ZM18 41C18 35.0326 20.3705 29.3097 24.5901 25.0901C28.8097 20.8705 34.5326 18.5 40.5 18.5H103.5C109.467 18.5 115.19 20.8705 119.41 25.0901C123.629 29.3097 126 35.0326 126 41V104C126 109.967 123.629 115.69 119.41 119.91C115.19 124.129 109.467 126.5 103.5 126.5H40.5C34.5326 126.5 28.8097 124.129 24.5901 119.91C20.3705 115.69 18 109.967 18 104V41ZM36 41C36 39.8065 36.4741 38.6619 37.318 37.818C38.1619 36.9741 39.3065 36.5 40.5 36.5H67.5C68.6935 36.5 69.8381 36.9741 70.682 37.818C71.5259 38.6619 72 39.8065 72 41V68C72 69.1935 71.5259 70.3381 70.682 71.182C69.8381 72.0259 68.6935 72.5 67.5 72.5H40.5C39.3065 72.5 38.1619 72.0259 37.318 71.182C36.4741 70.3381 36 69.1935 36 68V41ZM45 45.5V63.5H63V45.5H45ZM40.5 81.5C39.3065 81.5 38.1619 81.9741 37.318 82.818C36.4741 83.6619 36 84.8065 36 86C36 87.1935 36.4741 88.3381 37.318 89.182C38.1619 90.0259 39.3065 90.5 40.5 90.5H67.5C68.6935 90.5 69.8381 90.0259 70.682 89.182C71.5259 88.3381 72 87.1935 72 86C72 84.8065 71.5259 83.6619 70.682 82.818C69.8381 81.9741 68.6935 81.5 67.5 81.5H40.5ZM40.5 99.5C39.3065 99.5 38.1619 99.9741 37.318 100.818C36.4741 101.662 36 102.807 36 104C36 105.193 36.4741 106.338 37.318 107.182C38.1619 108.026 39.3065 108.5 40.5 108.5H67.5C68.6935 108.5 69.8381 108.026 70.682 107.182C71.5259 106.338 72 105.193 72 104C72 102.807 71.5259 101.662 70.682 100.818C69.8381 99.9741 68.6935 99.5 67.5 99.5H40.5Z" fill="url(#paint0_linear_630_9934)"/>
<defs>
<linearGradient id="paint0_linear_630_9934" x1="18" y1="52.3644" x2="128.148" y2="52.9465" gradientUnits="userSpaceOnUse">
<stop stop-color="#9C3FE4"/>
<stop offset="1" stop-color="#C65647"/>
</linearGradient>
</defs>
</svg>
