<svg width="350" height="349" viewBox="0 0 350 349" fill="none" xmlns="http://www.w3.org/2000/svg">
<g filter="url(#filter0_bd_2_5327)">
<rect x="57" y="47.0739" width="184" height="150" rx="20" transform="rotate(-14.8231 57 47.0739)" fill="#919AFF" fill-opacity="0.4" shape-rendering="crispEdges"/>
<rect x="57" y="47.0739" width="184" height="150" rx="20" transform="rotate(-14.8231 57 47.0739)" stroke="white" stroke-opacity="0.2" stroke-width="2" shape-rendering="crispEdges"/>
</g>
<g opacity="0.7">
<path d="M219.663 40.2311C218.25 34.892 212.776 31.7093 207.437 33.1222L97.2311 62.2876C91.892 63.7005 88.7093 69.1741 90.1222 74.5131L110.589 151.851C112.002 157.19 117.476 160.373 122.815 158.96L233.021 129.794C238.36 128.381 241.543 122.908 240.13 117.569L219.663 40.2311Z" fill="white"/>
<path fillRule="evenodd" clipRule="evenodd" d="M211.042 85.0172L234.103 94.7977L219.601 39.9968C218.188 34.6577 212.714 31.475 207.375 32.8879L97.1691 62.0533C91.83 63.4662 88.6473 68.9398 90.0602 74.2788L93.8538 88.6136L137.595 103.422C140.43 104.869 144.083 104.014 146.003 101.454L155.245 89.1259C157.209 86.5061 160.977 85.6811 163.822 87.2481L188.164 100.656C191.343 102.406 195.577 101.151 197.26 97.9595L202.517 87.9903C204.084 85.0183 207.904 83.6862 211.042 85.0172ZM198.674 70.0344C205.489 68.2308 209.673 61.7065 208.021 55.4618C206.368 49.217 199.504 45.6167 192.689 47.4202C185.874 49.2238 181.689 55.7481 183.342 61.9928C184.995 68.2376 191.859 71.8379 198.674 70.0344Z" fill="#0015FF" fill-opacity="0.4"/>
</g>
<defs>
<filter id="filter0_bd_2_5327" x="0.445923" y="-16.5541" width="349.36" height="365.19" filterUnits="userSpaceOnUse" color-interpolation-filters="sRGB">
<feFlood flood-opacity="0" result="BackgroundImageFix"/>
<feGaussianBlur in="BackgroundImageFix" stdDeviation="10"/>
<feComposite in2="SourceAlpha" operator="in" result="effect1_backgroundBlur_2_5327"/>
<feColorMatrix in="SourceAlpha" type="matrix" values="0 0 0 0 0 0 0 0 0 0 0 0 0 0 0 0 0 0 127 0" result="hardAlpha"/>
<feOffset dx="10" dy="90"/>
<feGaussianBlur stdDeviation="35"/>
<feComposite in2="hardAlpha" operator="out"/>
<feColorMatrix type="matrix" values="0 0 0 0 0.12549 0 0 0 0 0.12549 0 0 0 0 0.12549 0 0 0 0.2 0"/>
<feBlend mode="normal" in2="effect1_backgroundBlur_2_5327" result="effect2_dropShadow_2_5327"/>
<feBlend mode="normal" in="SourceGraphic" in2="effect2_dropShadow_2_5327" result="shape"/>
</filter>
</defs>
</svg>
