<svg width="144" height="145" viewBox="0 0 144 145" fill="none" xmlns="http://www.w3.org/2000/svg">
<path d="M42 123.5C34.548 123.5 28.184 120.864 22.908 115.592C17.636 110.316 15 103.952 15 96.5C15 90.584 16.68 85.324 20.04 80.72C23.396 76.12 27.716 72.926 33 71.138V77.588C29.5 79.248 26.626 81.782 24.378 85.19C22.126 88.598 21 92.368 21 96.5C21 102.268 23.058 107.21 27.174 111.326C31.29 115.442 36.232 117.5 42 117.5C47.768 117.5 52.71 115.442 56.826 111.326C60.942 107.21 63 102.268 63 96.5V93.5H95.364C95.936 92.216 96.816 91.164 98.004 90.344C99.192 89.524 100.524 89.114 102 89.114C104.04 89.114 105.78 89.834 107.22 91.274C108.66 92.718 109.38 94.46 109.38 96.5C109.38 98.54 108.66 100.28 107.22 101.72C105.78 103.16 104.04 103.88 102 103.88C100.448 103.88 99.096 103.492 97.944 102.716C96.792 101.94 95.932 100.868 95.364 99.5H68.862C67.922 106.86 64.842 112.7 59.622 117.02C54.41 121.34 48.536 123.5 42 123.5ZM102 123.5C97.784 123.5 93.864 122.586 90.24 120.758C86.612 118.934 83.458 116.386 80.778 113.114H89.214C90.846 114.422 92.782 115.482 95.022 116.294C97.262 117.098 99.588 117.5 102 117.5C107.768 117.5 112.71 115.442 116.826 111.326C120.942 107.21 123 102.268 123 96.5C123 90.732 120.942 85.79 116.826 81.674C112.71 77.558 107.768 75.5 102 75.5C100.232 75.5 98.592 75.7 97.08 76.1C95.576 76.492 94.112 77.046 92.688 77.762L75.888 49.736C73.788 50.028 71.884 49.468 70.176 48.056C68.468 46.652 67.614 44.8 67.614 42.5C67.614 40.46 68.334 38.72 69.774 37.28C71.218 35.84 72.96 35.12 75 35.12C77.04 35.12 78.78 35.84 80.22 37.28C81.66 38.72 82.38 40.46 82.38 42.5C82.38 43.232 82.266 43.946 82.038 44.642C81.806 45.338 81.476 45.936 81.048 46.436L95.25 70.298C96.282 70.098 97.342 69.914 98.43 69.746C99.526 69.582 100.716 69.5 102 69.5C109.452 69.5 115.816 72.136 121.092 77.408C126.364 82.684 129 89.048 129 96.5C129 103.952 126.364 110.316 121.092 115.592C115.816 120.864 109.452 123.5 102 123.5ZM42 103.88C39.96 103.88 38.22 103.16 36.78 101.72C35.34 100.28 34.62 98.54 34.62 96.5C34.62 94.452 35.376 92.668 36.888 91.148C38.404 89.624 40.392 88.996 42.852 89.264L58.224 63.674C54.864 61.05 52.32 57.902 50.592 54.23C48.864 50.558 48 46.648 48 42.5C48 35.048 50.636 28.684 55.908 23.408C61.184 18.136 67.548 15.5 75 15.5C82.452 15.5 88.816 18.136 94.092 23.408C99.364 28.684 102 35.048 102 42.5H96C96 36.732 93.942 31.79 89.826 27.674C85.71 23.558 80.768 21.5 75 21.5C69.232 21.5 64.29 23.558 60.174 27.674C56.058 31.79 54 36.732 54 42.5C54 46.724 55.108 50.5 57.324 53.828C59.54 57.156 62.57 59.768 66.414 61.664L48.012 92.42C48.444 92.996 48.78 93.638 49.02 94.346C49.26 95.054 49.38 95.774 49.38 96.506C49.38 98.546 48.66 100.286 47.22 101.726C45.78 103.166 44.04 103.886 42 103.886" fill="url(#paint0_linear_630_9944)"/>
<defs>
<linearGradient id="paint0_linear_630_9944" x1="15" y1="49.3644" x2="131.267" y2="50.013" gradientUnits="userSpaceOnUse">
<stop stop-color="#9C3FE4"/>
<stop offset="1" stop-color="#C65647"/>
</linearGradient>
</defs>
</svg>
