<svg width="117" height="117" viewBox="0 0 117 117" fill="none" xmlns="http://www.w3.org/2000/svg">
<path d="M5 39.5V20.5C5 16.4688 6.60142 12.6026 9.45198 9.75203C12.3025 6.90147 16.1687 5.30005 20.2 5.30005H39.2M77.2 5.30005H96.2C100.231 5.30005 104.097 6.90147 106.948 9.75203C109.799 12.6026 111.4 16.4688 111.4 20.5V39.5M5 77.5V96.5C5 100.531 6.60142 104.398 9.45198 107.248C12.3025 110.099 16.1687 111.7 20.2 111.7H39.2M111.4 77.5V96.5C111.4 100.531 109.799 104.398 106.948 107.248C104.097 110.099 100.231 111.7 96.2 111.7H77.2M16.4 58.5H100" stroke="url(#paint0_linear_630_9905)" stroke-width="10"/>
<defs>
<linearGradient id="paint0_linear_630_9905" x1="5" y1="38.6628" x2="113.516" y2="39.2362" gradientUnits="userSpaceOnUse">
<stop stop-color="#9C3FE4"/>
<stop offset="1" stop-color="#C65647"/>
</linearGradient>
</defs>
</svg>
